RobotoAvar2-wght800.ufo
<glyph name="exclam" format="2">
  <advance width="823.4953271028037"/>
  <unicode hex="0021"/>
  <outline>
    <contour>
      <point x="186.0" y="178.50467289719626" type="qcurve" smooth="yes"/>
      <point x="186.0" y="267.9906542056075"/>
      <point x="302.7383177570093" y="395.5233644859813"/>
      <point x="411.74766355140184" y="395.5233644859813" type="qcurve" smooth="yes"/>
      <point x="521.2897196261682" y="395.5233644859813"/>
      <point x="637.4953271028037" y="267.9906542056075"/>
      <point x="637.4953271028037" y="178.50467289719626" type="qcurve" smooth="yes"/>
      <point x="637.4953271028037" y="89.55140186915887"/>
      <point x="521.2897196261682" y="-37.981308411214954"/>
      <point x="411.74766355140184" y="-37.981308411214954" type="qcurve" smooth="yes"/>
      <point x="302.7383177570093" y="-37.981308411214954"/>
      <point x="186.0" y="89.55140186915887"/>
    </contour>
    <contour>
      <point x="233.85981308411215" y="493.6355140186916" type="line"/>
      <point x="202.8785046728972" y="1456.0" type="line"/>
      <point x="620.6168224299065" y="1456.0" type="line"/>
      <point x="589.6355140186915" y="493.6355140186916" type="line"/>
    </contour>
  </outline>
</glyph>
<glyph name="quotedbl" format="2">
  <advance width="1115.620279093586"/>
  <unicode hex="0022"/>
  <outline>
    <contour>
      <point x="115.0" y="966.0" type="line"/>
      <point x="100.0" y="1320.0" type="line"/>
      <point x="100.0" y="1456.0" type="line"/>
      <point x="493.0841121495327" y="1456.0" type="line"/>
      <point x="493.0841121495327" y="1320.0" type="line"/>
      <point x="478.0841121495327" y="966.0" type="line"/>
    </contour>
    <contour>
      <point x="637.5361669440533" y="966.0" type="line"/>
      <point x="622.5361669440533" y="1320.0" type="line"/>
      <point x="622.5361669440533" y="1456.0" type="line"/>
      <point x="1015.6202790935861" y="1456.0" type="line"/>
      <point x="1015.6202790935861" y="1320.0" type="line"/>
      <point x="1000.6202790935861" y="966.0" type="line"/>
    </contour>
  </outline>
</glyph>
<glyph name="numbersign" format="2">
  <advance width="1465.2758808696244"/>
  <unicode hex="0023"/>
  <outline>
    <contour>
      <point x="158.62100456621005" y="-20.0" type="line"/>
      <point x="454.5251141552511" y="1501.0" type="line"/>
      <point x="751.7589450010223" y="1501.0" type="line"/>
      <point x="455.8548354119812" y="-20.0" type="line"/>
    </contour>
    <contour>
      <point x="700.2749267361821" y="-20.0" type="line"/>
      <point x="996.1790363252233" y="1501.0" type="line"/>
      <point x="1293.4128671709943" y="1501.0" type="line"/>
      <point x="997.5087575819532" y="-20.0" type="line"/>
    </contour>
    <contour>
      <point x="64.0" y="297.4579439252336" type="line"/>
      <point x="64.0" y="595.2710280373832" type="line"/>
      <point x="1343.6777073536427" y="595.2710280373832" type="line"/>
      <point x="1343.6777073536427" y="297.4579439252336" type="line"/>
    </contour>
    <contour>
      <point x="110.29680365296804" y="832.4579439252336" type="line"/>
      <point x="110.29680365296804" y="1130.271028037383" type="line"/>
      <point x="1385.6822735636883" y="1130.271028037383" type="line"/>
      <point x="1385.6822735636883" y="832.4579439252336" type="line"/>
    </contour>
  </outline>
</glyph>
<glyph name="dollar" format="2">
  <advance width="1238.9947083173304"/>
  <unicode hex="0024"/>
  <outline>
    <contour>
      <point x="21.0" y="403.60199004975124" type="qcurve" smooth="yes"/>
      <point x="21.0" y="412.30348258706465" type="line"/>
      <point x="411.0841121495327" y="412.30348258706465" type="line"/>
      <point x="411.0841121495327" y="403.60199004975124" type="line" smooth="yes"/>
      <point x="411.0841121495327" y="326.1243781094527"/>
      <point x="517.7644774463364" y="242.98507462686567"/>
      <point x="613.5589979942816" y="242.98507462686567" type="qcurve" smooth="yes"/>
      <point x="703.4606540973281" y="242.98507462686567"/>
      <point x="811.3261212819529" y="312.66485330357557"/>
      <point x="811.3261212819529" y="372.08229878644164" type="qcurve" smooth="yes"/>
      <point x="811.3261212819529" y="425.11517180452876"/>
      <point x="742.8403609911013" y="516.9065420560747"/>
      <point x="574.7233815559255" y="581.0373831775701" type="qcurve" smooth="yes"/>
      <point x="275.6438782912986" y="672.9345794392524"/>
      <point x="49.0" y="896.4579439252336"/>
      <point x="49.0" y="1064.9065420560748" type="qcurve" smooth="yes"/>
      <point x="49.0" y="1246.0093457943926"/>
      <point x="343.86928690308537" y="1458.0"/>
      <point x="615.7873084965647" y="1458.0" type="qcurve" smooth="yes"/>
      <point x="889.2380403704176" y="1458.0"/>
      <point x="1192.2230188196136" y="1210.4825870646766"/>
      <point x="1192.2230188196136" y="1058.3781094527362" type="qcurve" smooth="yes"/>
      <point x="1192.2230188196136" y="1048.1442786069651" type="line"/>
      <point x="802.1389066700807" y="1048.1442786069651" type="line"/>
      <point x="802.1389066700807" y="1058.3781094527362" type="line" smooth="yes"/>
      <point x="802.1389066700807" y="1130.81592039801"/>
      <point x="708.9334272180259" y="1224.4875621890546"/>
      <point x="616.2576281312679" y="1224.4875621890546" type="qcurve" smooth="yes"/>
      <point x="527.8438832594167" y="1224.4875621890546"/>
      <point x="437.0841121495327" y="1163.5280606314222"/>
      <point x="437.0841121495327" y="1105.457246477891" type="qcurve" smooth="yes"/>
      <point x="437.0841121495327" y="1057.6115683265914"/>
      <point x="496.273673878718" y="974.7476635514018"/>
      <point x="666.9790893184826" y="907.8878504672897" type="qcurve" smooth="yes"/>
      <point x="988.4445440191182" y="807.9345794392523"/>
      <point x="1199.4102334314857" y="584.5327102803739"/>
      <point x="1199.4102334314857" y="408.14953271028037" type="qcurve" smooth="yes"/>
      <point x="1199.4102334314857" y="215.85046728971963"/>
      <point x="893.7859429010371" y="-6.0"/>
      <point x="614.0293176289848" y="-6.0" type="qcurve" smooth="yes"/>
      <point x="329.9779587531553" y="-6.0"/>
      <point x="21.0" y="210.81094527363183"/>
    </contour>
    <contour>
      <point x="476.3614560662314" y="-170.0" type="line"/>
      <point x="476.3614560662314" y="745.7716894977169" type="line"/>
      <point x="750.8661289634276" y="745.7716894977169" type="line"/>
      <point x="750.8661289634276" y="80.0" type="line"/>
      <point x="764.8661289634276" y="70.0" type="line"/>
      <point x="764.8661289634276" y="-170.0" type="line"/>
    </contour>
    <contour>
      <point x="490.3614560662314" y="745.7716894977169" type="line"/>
      <point x="490.3614560662314" y="1386.0" type="line"/>
      <point x="476.3614560662314" y="1396.0" type="line"/>
      <point x="476.3614560662314" y="1586.0" type="line"/>
      <point x="764.8661289634276" y="1586.0" type="line"/>
      <point x="764.8661289634276" y="745.7716894977169" type="line"/>
    </contour>
  </outline>
</glyph>
<glyph name="ampersand" format="2">
  <advance width="1619.0031835445739"/>
  <unicode hex="0026"/>
  <outline>
    <contour>
      <point x="66.0" y="368.81308411214957" type="qcurve" smooth="yes"/>
      <point x="66.0" y="519.8770110527888"/>
      <point x="486.2304327804072" y="798.9467385897296"/>
      <point x="602.0760899127458" y="869.9261801350438" type="qcurve" smooth="yes"/>
      <point x="724.1002012087814" y="945.1612670229699" type="line" smooth="yes"/>
      <point x="844.4139493290174" y="1007.0237151204674"/>
      <point x="909.0256902658645" y="1104.774771004789"/>
      <point x="909.0256902658645" y="1151.995024875622" type="qcurve" smooth="yes"/>
      <point x="909.0256902658645" y="1201.6915422885572"/>
      <point x="856.0406156389987" y="1265.044776119403"/>
      <point x="798.4594802202023" y="1265.044776119403" type="qcurve" smooth="yes"/>
      <point x="743.5599368412068" y="1265.044776119403"/>
      <point x="684.126146886869" y="1193.6069651741293"/>
      <point x="684.126146886869" y="1141.995024875622" type="qcurve" smooth="yes"/>
      <point x="684.126146886869" y="1084.2537313432838"/>
      <point x="758.5741539390489" y="966.236653118991"/>
      <point x="897.3475440617932" y="818.3748559723467" type="qcurve" smooth="yes"/>
      <point x="1597.8031835445738" y="0.0" type="line"/>
      <point x="1088.557120300431" y="0.0" type="line"/>
      <point x="485.34856825843895" y="724.018691588785" type="line" smooth="yes"/>
      <point x="394.00042674860237" y="839.227585029659"/>
      <point x="289.0420347373362" y="1018.981308411215"/>
      <point x="289.0420347373362" y="1146.1495327102805" type="qcurve" smooth="yes"/>
      <point x="289.0420347373362" y="1300.0"/>
      <point x="539.0002133743012" y="1486.0"/>
      <point x="795.6375624119831" y="1486.0" type="qcurve" smooth="yes"/>
      <point x="1052.1876763920761" y="1486.0"/>
      <point x="1288.7826996116587" y="1322.7489654531082"/>
      <point x="1288.7826996116587" y="1157.242014227926" type="qcurve" smooth="yes"/>
      <point x="1288.7826996116587" y="993.726368159204"/>
      <point x="922.3721400678085" y="776.3437173370123"/>
      <point x="845.6717335101475" y="731.889322431499" type="qcurve" smooth="yes"/>
      <point x="726.4695400223311" y="657.1869458239464" type="line" smooth="yes"/>
      <point x="622.1313767865321" y="591.8834084601956"/>
      <point x="473.7383177570094" y="448.24378109452744"/>
      <point x="473.7383177570094" y="376.55223880597015" type="qcurve" smooth="yes"/>
      <point x="473.7383177570094" y="305.2437810945274"/>
      <point x="538.4431007171288" y="218.96019900497515"/>
      <point x="744.3235607903384" y="218.96019900497515" type="qcurve" smooth="yes"/>
      <point x="905.6788780460774" y="218.96019900497515"/>
      <point x="1199.7328579226514" y="446.4147951829637"/>
      <point x="1226.901082221717" y="674.0" type="qcurve"/>
      <point x="1467.4732215251997" y="674.0" type="line"/>
      <point x="1441.3704177868817" y="375.7383177570093"/>
      <point x="1025.3729782784962" y="-20.0"/>
      <point x="739.6203644433065" y="-20.0" type="qcurve" smooth="yes"/>
      <point x="375.8508513634618" y="-20.0"/>
      <point x="66.0" y="193.81308411214954"/>
    </contour>
  </outline>
</glyph>
<glyph name="quotesingle" format="2">
  <advance width="577.0841121495328"/>
  <unicode hex="0027"/>
  <outline>
    <contour>
      <point x="107.0" y="966.0" type="line"/>
      <point x="82.0" y="1320.0" type="line"/>
      <point x="82.0" y="1456.0" type="line"/>
      <point x="495.0841121495327" y="1456.0" type="line"/>
      <point x="495.0841121495327" y="1320.0" type="line"/>
      <point x="470.0841121495327" y="966.0" type="line"/>
    </contour>
  </outline>
</glyph>
<glyph name="parenleft" format="2">
  <advance width="810.5544317842359"/>
  <unicode hex="0028"/>
  <outline>
    <contour>
      <point x="773.6137925148296" y="-436.0" type="line"/>
      <point x="502.1082661204285" y="-340.0"/>
      <point x="124.0" y="140.0"/>
      <point x="124.0" y="515.0" type="qcurve" smooth="yes"/>
      <point x="124.0" y="525.0" type="line" smooth="yes"/>
      <point x="124.0" y="917.0"/>
      <point x="502.1082661204285" y="1380.0"/>
      <point x="773.6137925148296" y="1476.0" type="qcurve"/>
      <point x="774.5544317842359" y="1181.0746268656717" type="line"/>
      <point x="665.0204578184484" y="1091.6666666666667"/>
      <point x="532.0841121495328" y="786.2985074626865"/>
      <point x="532.0841121495328" y="532.0" type="qcurve" smooth="yes"/>
      <point x="532.0841121495328" y="508.0" type="line" smooth="yes"/>
      <point x="532.0841121495328" y="262.33830845771143"/>
      <point x="665.0204578184484" y="-51.666666666666686"/>
      <point x="774.5544317842359" y="-141.07462686567163" type="qcurve"/>
    </contour>
  </outline>
</glyph>
<glyph name="parenright" format="2">
  <advance width="810.5544317842359"/>
  <unicode hex="0029"/>
  <outline>
    <contour>
      <point x="36.0" y="-436.0" type="qcurve"/>
      <point x="36.0" y="-141.07462686567163" type="line"/>
      <point x="145.0636543310843" y="-51.666666666666686"/>
      <point x="278.4703196347032" y="262.72139303482584"/>
      <point x="278.4703196347032" y="508.0" type="qcurve" smooth="yes"/>
      <point x="278.4703196347032" y="532.0" type="line" smooth="yes"/>
      <point x="278.4703196347032" y="785.9154228855722"/>
      <point x="145.0636543310843" y="1091.6666666666667"/>
      <point x="36.0" y="1181.0746268656717" type="qcurve"/>
      <point x="36.0" y="1476.0" type="line"/>
      <point x="307.5055263944011" y="1380.0"/>
      <point x="686.5544317842359" y="917.0"/>
      <point x="686.5544317842359" y="525.0" type="qcurve" smooth="yes"/>
      <point x="686.5544317842359" y="515.0" type="line" smooth="yes"/>
      <point x="686.5544317842359" y="140.0"/>
      <point x="307.5055263944011" y="-340.0"/>
    </contour>
  </outline>
</glyph>
<glyph name="asterisk" format="2">
  <advance width="972.6155523751107"/>
  <unicode hex="002A"/>
  <outline>
    <contour>
      <point x="46.89054726368159" y="1072.0652218360253" type="line"/>
      <point x="138.6650991617256" y="1318.3388536768214" type="line"/>
      <point x="388.3177264363116" y="1178.4500102228583" type="line"/>
      <point x="353.38240305322705" y="1476.0" type="line"/>
      <point x="618.8500647447693" y="1476.0" type="line"/>
      <point x="583.9147413616847" y="1178.4500102228583" type="line"/>
      <point x="833.5673686362708" y="1318.3388536768214" type="line"/>
      <point x="925.3419205343148" y="1072.0652218360253" type="line"/>
      <point x="644.8152388741225" y="999.1117017651469" type="line"/>
      <point x="855.3124787023785" y="791.3676821372588" type="line"/>
      <point x="635.6988345941526" y="634.8236897703264" type="line"/>
      <point x="486.30777618755536" y="889.440059974102" type="line"/>
      <point x="336.9167177809582" y="634.8236897703264" type="line"/>
      <point x="117.30307367273224" y="791.3676821372588" type="line"/>
      <point x="327.4172289238738" y="999.1117017651469" type="line"/>
    </contour>
  </outline>
</glyph>
<glyph name="plus" format="2">
  <advance width="1008.5087696837793"/>
  <unicode hex="002B"/>
  <outline>
    <contour>
      <point x="57.0" y="516.4205607476636" type="line"/>
      <point x="57.0" y="829.5794392523364" type="line"/>
      <point x="951.5087696837793" y="829.5794392523364" type="line"/>
      <point x="951.5087696837793" y="516.4205607476636" type="line"/>
    </contour>
    <contour>
      <point x="307.71232876712327" y="311.2237442922374" type="line"/>
      <point x="307.71232876712327" y="1036.7762557077626" type="line"/>
      <point x="700.796440916656" y="1036.7762557077626" type="line"/>
      <point x="700.796440916656" y="311.2237442922374" type="line"/>
    </contour>
  </outline>
</glyph>
<glyph name="comma" format="2">
  <advance width="793.6168224299065"/>
  <unicode hex="002C"/>
  <outline>
    <contour>
      <point x="110.0" y="-218.0" type="line"/>
      <point x="158.0" y="-154.0"/>
      <point x="210.53271028037383" y="-20.0"/>
      <point x="210.0" y="70.0" type="qcurve" smooth="yes"/>
      <point x="210.0" y="321.21495327102804" type="line"/>
      <point x="603.6168224299065" y="321.21495327102804" type="line"/>
      <point x="603.6168224299065" y="70.0" type="line" smooth="yes"/>
      <point x="603.6168224299065" y="-55.981308411214954"/>
      <point x="401.607476635514" y="-241.0467289719626"/>
      <point x="215.0" y="-291.0" type="qcurve"/>
    </contour>
  </outline>
</glyph>
<glyph name="hyphen" format="2">
  <advance width="580.8995433789954"/>
  <unicode hex="002D"/>
  <outline>
    <contour>
      <point x="75.0" y="471.5514018691589" type="line"/>
      <point x="75.0" y="788.4485981308411" type="line"/>
      <point x="494.1415525114155" y="788.4485981308411" type="line"/>
      <point x="494.1415525114155" y="471.5514018691589" type="line"/>
    </contour>
  </outline>
</glyph>
<glyph name="period" format="2">
  <advance width="708.0467289719626"/>
  <unicode hex="002E"/>
  <outline>
    <contour>
      <point x="130.0" y="193.5607476635514" type="qcurve" smooth="yes"/>
      <point x="130.0" y="282.85046728971963"/>
      <point x="245.4766355140187" y="408.588785046729"/>
      <point x="354.2897196261682" y="408.588785046729" type="qcurve" smooth="yes"/>
      <point x="462.5700934579439" y="408.588785046729"/>
      <point x="578.0467289719626" y="282.85046728971963"/>
      <point x="578.0467289719626" y="193.5607476635514" type="qcurve" smooth="yes"/>
      <point x="578.0467289719626" y="103.73831775700934"/>
      <point x="462.5700934579439" y="-22.0"/>
      <point x="354.2897196261682" y="-22.0" type="qcurve" smooth="yes"/>
      <point x="245.4766355140187" y="-22.0"/>
      <point x="130.0" y="103.73831775700934"/>
    </contour>
  </outline>
</glyph>
<glyph name="zero" format="2">
  <advance width="1384.9123458370673"/>
  <unicode hex="0030"/>
  <outline>
    <contour>
      <point x="110.0" y="471.88290018350193" type="qcurve" smooth="yes"/>
      <point x="110.0" y="979.8842231041693" type="line" smooth="yes"/>
      <point x="110.0" y="1223.8561857209918"/>
      <point x="418.9786625698801" y="1486.0"/>
      <point x="692.1586224555115" y="1486.0" type="qcurve" smooth="yes"/>
      <point x="963.8712926215167" y="1486.0"/>
      <point x="1274.9123458370673" y="1223.8561857209918"/>
      <point x="1274.9123458370673" y="979.8842231041693" type="qcurve" smooth="yes"/>
      <point x="1274.9123458370673" y="471.88290018350193" type="line" smooth="yes"/>
      <point x="1274.9123458370673" y="232.61413391371144"/>
      <point x="963.8712926215167" y="-30.0"/>
      <point x="692.1586224555115" y="-30.0" type="qcurve" smooth="yes"/>
      <point x="418.9786625698801" y="-30.0"/>
      <point x="110.0" y="232.61413391371144"/>
    </contour>
    <contour>
      <point x="520.2803738317757" y="513.7515163906495" type="line" smooth="yes"/>
      <point x="520.2803738317757" y="398.00722415320655"/>
      <point x="603.4858532838305" y="290.4278606965174"/>
      <point x="692.6913327358853" y="290.4278606965174" type="qcurve" smooth="yes"/>
      <point x="781.8968121879401" y="290.4278606965174"/>
      <point x="864.6319720052917" y="398.00722415320655"/>
      <point x="864.6319720052917" y="513.7515163906495" type="qcurve" smooth="yes"/>
      <point x="864.6319720052917" y="938.5731615893137" type="line" smooth="yes"/>
      <point x="864.6319720052917" y="1057.9927758467934"/>
      <point x="783.3077710920497" y="1165.189054726368"/>
      <point x="692.6913327358853" y="1165.189054726368" type="qcurve" smooth="yes"/>
      <point x="602.074894379721" y="1165.189054726368"/>
      <point x="520.2803738317757" y="1057.9927758467934"/>
      <point x="520.2803738317757" y="938.5731615893137" type="qcurve" smooth="yes"/>
    </contour>
  </outline>
</glyph>
<glyph name="one" format="2">
  <advance width="1384.9123458370673"/>
  <unicode hex="0031"/>
  <outline>
    <contour>
      <point x="599.75978321171" y="0.0" type="line"/>
      <point x="599.75978321171" y="1068.2235398350713" type="line"/>
      <point x="156.00913242009133" y="951.7897498807333" type="line"/>
      <point x="156.00913242009133" y="1308.9223744292237" type="line"/>
      <point x="761.75978321171" y="1476.0" type="line"/>
      <point x="1058.1149233986257" y="1476.0" type="line"/>
      <point x="1058.1149233986257" y="0.0" type="line"/>
    </contour>
  </outline>
</glyph>
<glyph name="two" format="2">
  <advance width="1349.7123458370675"/>
  <unicode hex="0032"/>
  <outline>
    <contour>
      <point x="93.5994110869287" y="0.0" type="line"/>
      <point x="93.5994110869287" y="261.8028548844562" type="line"/>
      <point x="688.3855246874066" y="754.0669084484123" type="line" smooth="yes"/>
      <point x="784.7622386085193" y="827.5955920054064"/>
      <point x="837.7095122263474" y="948.7717022364812"/>
      <point x="837.7095122263474" y="1021.3177086020416" type="qcurve" smooth="yes"/>
      <point x="837.7095122263474" y="1095.495990155483"/>
      <point x="756.9235476694113" y="1178.5097798677843"/>
      <point x="667.8709512226347" y="1178.9800995024875" type="qcurve" smooth="yes"/>
      <point x="543.5771080584786" y="1179.4504191371907"/>
      <point x="443.8828148337814" y="1085.293186480859"/>
      <point x="443.41249519907825" y="996.8670416958862" type="qcurve" smooth="yes"/>
      <point x="443.41249519907825" y="947.0112521504627" type="line"/>
      <point x="82.94520547945206" y="947.0112521504627" type="line"/>
      <point x="82.94520547945206" y="1002.9811969470277" type="line" smooth="yes"/>
      <point x="82.94520547945206" y="1236.37315152569"/>
      <point x="372.29517500195857" y="1486.0"/>
      <point x="653.8045064652414" y="1486.0" type="qcurve" smooth="yes"/>
      <point x="938.7671869814925" y="1486.0"/>
      <point x="1240.79362437588" y="1261.1627644647078"/>
      <point x="1240.79362437588" y="1032.509885599528" type="qcurve" smooth="yes"/>
      <point x="1240.79362437588" y="840.8042497791417"/>
      <point x="1113.5335191919037" y="635.6518183630561"/>
      <point x="982.134681858917" y="531.278513972195" type="qcurve" smooth="yes"/>
      <point x="703.0054681145547" y="279.81220067884874" type="line"/>
      <point x="1279.8529851064736" y="279.81220067884874" type="line"/>
      <point x="1279.8529851064736" y="0.0" type="line"/>
    </contour>
  </outline>
</glyph>
<glyph name="three" format="2">
  <advance width="1384.9123458370673"/>
  <unicode hex="0033"/>
  <outline>
    <contour>
      <point x="80.0" y="395.65987499450637" type="qcurve" smooth="yes"/>
      <point x="80.0" y="458.6188217789557" type="line"/>
      <point x="500.39252336448595" y="458.6188217789557" type="line"/>
      <point x="500.39252336448595" y="397.070833898616" type="line" smooth="yes"/>
      <point x="500.39252336448595" y="323.34673833495435"/>
      <point x="576.7518858148127" y="244.8407960199005"/>
      <point x="666.198054026373" y="244.8407960199005" type="qcurve" smooth="yes"/>
      <point x="767.3341371493576" y="244.8407960199005"/>
      <point x="842.6638501258908" y="320.68309967255004"/>
      <point x="842.6638501258908" y="424.9004975124378" type="qcurve" smooth="yes"/>
      <point x="842.6638501258908" y="518.7149300227833"/>
      <point x="751.707898861855" y="611.8955223880597"/>
      <point x="645.0" y="611.1293532338309" type="qcurve" smooth="yes"/>
      <point x="499.0499722613408" y="611.1293532338309" type="line"/>
      <point x="499.0499722613408" y="881.2039800995025" type="line"/>
      <point x="642.5251141552511" y="881.2039800995025" type="line" smooth="yes"/>
      <point x="737.4789609754326" y="881.2039800995025"/>
      <point x="819.9423889386762" y="970.8319616868927"/>
      <point x="819.9423889386762" y="1054.3370530524946" type="qcurve" smooth="yes"/>
      <point x="819.9423889386762" y="1146.1348054249302"/>
      <point x="752.9219884446669" y="1211.1592039800994"/>
      <point x="676.6698672811847" y="1211.1592039800994" type="qcurve" smooth="yes"/>
      <point x="603.4450153533957" y="1211.1592039800994"/>
      <point x="540.3925233644859" y="1140.164290568665"/>
      <point x="540.3925233644859" y="1071.99336501464" type="qcurve" smooth="yes"/>
      <point x="540.3925233644859" y="1022.1409773562095" type="line"/>
      <point x="137.57943925233644" y="1022.1409773562095" type="line"/>
      <point x="137.57943925233644" y="1084.221675516923" type="line" smooth="yes"/>
      <point x="137.57943925233644" y="1279.1654739998637"/>
      <point x="417.82749483920816" y="1486.0"/>
      <point x="682.0305551999318" y="1486.0" type="qcurve" smooth="yes"/>
      <point x="935.2111029795333" y="1486.0"/>
      <point x="1202.1199590321341" y="1308.168699454972"/>
      <point x="1202.1199590321341" y="1100.0" type="qcurve" smooth="yes"/>
      <point x="1202.1199590321341" y="957.7479622754236"/>
      <point x="1041.1141125762813" y="795.2365289160396"/>
      <point x="930.1724064353689" y="758.3383084577115" type="qcurve"/>
      <point x="930.6427260700721" y="754.3383084577115" type="line"/>
      <point x="1061.5763666623993" y="728.7308318221975"/>
      <point x="1249.7479622754236" y="549.588785046729"/>
      <point x="1249.7479622754236" y="401.0" type="qcurve" smooth="yes"/>
      <point x="1249.7479622754236" y="179.4798469564863"/>
      <point x="959.6269312762777" y="-30.0"/>
      <point x="669.207143771604" y="-30.0" type="qcurve" smooth="yes"/>
      <point x="379.7755913812068" y="-30.0"/>
      <point x="80.0" y="189.42708490577454"/>
    </contour>
  </outline>
</glyph>
<glyph name="four" format="2">
  <advance width="1384.9123458370673"/>
  <unicode hex="0034"/>
  <outline>
    <contour>
      <point x="723.4628942090214" y="0.0" type="line"/>
      <point x="723.4628942090214" y="392.67289719626166" type="line"/>
      <point x="723.4628942090214" y="444.67289719626166" type="line"/>
      <point x="723.4628942090214" y="1012.0678574863488" type="line"/>
      <point x="711.4628942090214" y="1012.0678574863488" type="line"/>
      <point x="437.68431940922704" y="588.4925373134329" type="line"/>
      <point x="891.6591558912644" y="588.4925373134329" type="line"/>
      <point x="968.6591558912644" y="588.4925373134329" type="line"/>
      <point x="1273.5150428882346" y="588.4925373134329" type="line"/>
      <point x="1273.5150428882346" y="303.69154228855723" type="line"/>
      <point x="75.5985524942182" y="303.69154228855723" type="line"/>
      <point x="75.5985524942182" y="556.4925373134329" type="line"/>
      <point x="679.3633917214593" y="1456.0" type="line"/>
      <point x="1116.5470063585542" y="1456.0" type="line"/>
      <point x="1116.5470063585542" y="0.0" type="line"/>
    </contour>
  </outline>
</glyph>
<glyph name="five" format="2">
  <advance width="1384.9123458370673"/>
  <unicode hex="0035"/>
  <outline>
    <contour>
      <point x="83.05402637306364" y="390.43931029782595" type="qcurve" smooth="yes"/>
      <point x="83.05402637306364" y="451.23383084577114" type="line"/>
      <point x="444.5713310288909" y="451.23383084577114" type="line"/>
      <point x="444.5713310288909" y="394.2018673754515" type="line" smooth="yes"/>
      <point x="444.5713310288909" y="339.93109793498263"/>
      <point x="552.1929489665997" y="266.2935323383084"/>
      <point x="663.0144756947562" y="266.2935323383084" type="qcurve" smooth="yes"/>
      <point x="760.2487052638485" y="266.2935323383084"/>
      <point x="872.1051081807708" y="351.48231445512164"/>
      <point x="872.1051081807708" y="481.4726368159204" type="qcurve" smooth="yes"/>
      <point x="872.1051081807708" y="602.0565664826552"/>
      <point x="786.0767064689355" y="688.7137599672869"/>
      <point x="704.7511890044082" y="689.1840796019901" type="qcurve" smooth="yes"/>
      <point x="653.6381802420493" y="689.6543992366933"/>
      <point x="592.0139438513488" y="647.9567659080095"/>
      <point x="556.9686970346067" y="612.0696517412936" type="qcurve"/>
      <point x="153.29701702726922" y="743.7485934811922" type="line"/>
      <point x="211.58929714505186" y="1456.0" type="line"/>
      <point x="1197.9509665855844" y="1456.0" type="line"/>
      <point x="1197.9509665855844" y="1168.7761194029852" type="line"/>
      <point x="551.6841964801521" y="1168.7761194029852" type="line"/>
      <point x="527.3403931564811" y="903.9651741293533" type="line"/>
      <point x="544.5659667352649" y="922.1109947637309"/>
      <point x="678.3088118490889" y="952.0"/>
      <point x="701.0423761362181" y="952.0" type="qcurve" smooth="yes"/>
      <point x="1010.3024367345198" y="952.0"/>
      <point x="1275.1892203303034" y="708.6392694063927"/>
      <point x="1275.1892203303034" y="465.0" type="qcurve" smooth="yes"/>
      <point x="1275.1892203303034" y="230.29680365296804"/>
      <point x="946.4651133017538" y="-30.0"/>
      <point x="657.2735458541374" y="-30.0" type="qcurve" smooth="yes"/>
      <point x="374.81617198860386" y="-30.0"/>
      <point x="83.05402637306364" y="197.63620254889932"/>
    </contour>
  </outline>
</glyph>
<glyph name="six" format="2">
  <advance width="1384.9123458370673"/>
  <unicode hex="0036"/>
  <outline>
    <contour>
      <point x="103.52054794520548" y="553.3287671232877" type="qcurve" smooth="yes"/>
      <point x="103.52054794520548" y="668.4566210045662" type="line" smooth="yes"/>
      <point x="103.52054794520548" y="1050.8082191780823"/>
      <point x="643.5296376904365" y="1486.5327102803737"/>
      <point x="984.8292152093202" y="1486.5327102803737" type="qcurve" smooth="yes"/>
      <point x="1151.4252976571502" y="1486.5327102803737" type="line"/>
      <point x="1151.4252976571502" y="1210.1595759520155" type="line"/>
      <point x="990.9433704604618" y="1210.1595759520155" type="line" smooth="yes"/>
      <point x="748.6441266972014" y="1210.1595759520155"/>
      <point x="557.8756881321214" y="940.0248756218906"/>
      <point x="557.8756881321214" y="630.6318407960199" type="qcurve" smooth="yes"/>
      <point x="557.8756881321214" y="561.094527363184" type="line" smooth="yes"/>
      <point x="557.8756881321214" y="378.01874190690387"/>
      <point x="625.6593794565771" y="257.48258706467664"/>
      <point x="735.778986898818" y="257.48258706467664" type="qcurve" smooth="yes"/>
      <point x="839.0030719529991" y="257.48258706467664"/>
      <point x="901.3624802628772" y="363.63016819627376"/>
      <point x="901.3624802628772" y="471.4282326684335" type="qcurve" smooth="yes"/>
      <point x="901.3624802628772" y="579.2262971405933"/>
      <point x="838.5327523182958" y="683.0746268656717"/>
      <point x="735.778986898818" y="683.0746268656717" type="qcurve" smooth="yes"/>
      <point x="626.4464032417607" y="683.0746268656717"/>
      <point x="551.8756881321214" y="569.9850746268656"/>
      <point x="551.8756881321214" y="464.0" type="qcurve"/>
      <point x="456.4784278581488" y="464.0" type="line"/>
      <point x="456.4784278581488" y="684.0"/>
      <point x="672.8809371399308" y="956.5327102803739"/>
      <point x="875.7365680877396" y="956.5327102803739" type="qcurve" smooth="yes"/>
      <point x="1062.0781803439593" y="956.5327102803739"/>
      <point x="1304.44659241241" y="698.6422993214697"/>
      <point x="1304.44659241241" y="464.5327102803738" type="qcurve" smooth="yes"/>
      <point x="1304.44659241241" y="231.83408014338752"/>
      <point x="1047.1860197157853" y="-30.0"/>
      <point x="745.0558187171937" y="-30.0" type="qcurve" smooth="yes"/>
      <point x="438.22242137157" y="-30.0"/>
      <point x="103.52054794520548" y="245.31050228310502"/>
    </contour>
  </outline>
</glyph>
<glyph name="seven" format="2">
  <advance width="1352.5123458370674"/>
  <unicode hex="0037"/>
  <outline>
    <contour>
      <point x="255.84753125933514" y="0.0" type="line"/>
      <point x="770.3143515554988" y="1111.747663551402" type="line"/>
      <point x="69.10319634703197" y="1111.747663551402" type="line"/>
      <point x="69.10319634703197" y="1456.0" type="line"/>
      <point x="1273.4265010882089" y="1456.0" type="line"/>
      <point x="1273.4265010882089" y="1161.2897196261683" type="line"/>
      <point x="708.613886399522" y="0.0" type="line"/>
    </contour>
  </outline>
</glyph>
<glyph name="eight" format="2">
  <advance width="1384.9123458370673"/>
  <unicode hex="0038"/>
  <outline>
    <contour>
      <point x="105.41095890410959" y="386.0" type="qcurve" smooth="yes"/>
      <point x="105.41095890410959" y="516.0"/>
      <point x="279.8217471087782" y="700.3425084282849"/>
      <point x="419.79149063286815" y="744.4018691588785" type="qcurve"/>
      <point x="419.79149063286815" y="748.4018691588785" type="line"/>
      <point x="309.075619852345" y="789.9909102547689"/>
      <point x="151.90052490078097" y="967.0"/>
      <point x="151.90052490078097" y="1087.0" type="qcurve" smooth="yes"/>
      <point x="151.90052490078097" y="1276.406392694064"/>
      <point x="431.3275295523407" y="1486.0"/>
      <point x="692.6883028208083" y="1486.0" type="qcurve" smooth="yes"/>
      <point x="954.0490760892757" y="1486.0"/>
      <point x="1223.1351086075192" y="1277.3409721333162"/>
      <point x="1223.1351086075192" y="1087.0" type="qcurve" smooth="yes"/>
      <point x="1223.1351086075192" y="967.0"/>
      <point x="1065.5490547518457" y="789.9909102547689"/>
      <point x="952.8895147868391" y="748.4018691588785" type="qcurve"/>
      <point x="952.8895147868391" y="744.4018691588785" type="line"/>
      <point x="1096.2138863995222" y="698.9315495241754"/>
      <point x="1279.5013869329578" y="516.0"/>
      <point x="1279.5013869329578" y="386.0" type="qcurve" smooth="yes"/>
      <point x="1279.5013869329578" y="178.59360730593608"/>
      <point x="956.4648572525925" y="-30.0"/>
      <point x="692.6883028208083" y="-30.0" type="qcurve" smooth="yes"/>
      <point x="428.911748389024" y="-30.0"/>
      <point x="105.41095890410959" y="178.59360730593608"/>
    </contour>
    <contour>
      <point x="506.4950710536423" y="433.5422885572139" type="qcurve" smooth="yes"/>
      <point x="506.4950710536423" y="347.59892319225787"/>
      <point x="592.4625139569085" y="260.547263681592"/>
      <point x="692.6883028208083" y="260.547263681592" type="qcurve" smooth="yes"/>
      <point x="792.5310071075935" y="260.547263681592"/>
      <point x="878.417274783425" y="349.4802017310707"/>
      <point x="878.417274783425" y="433.5422885572139" type="qcurve" smooth="yes"/>
      <point x="878.417274783425" y="517.6043753833573"/>
      <point x="791.1200482034839" y="606.2388059701493"/>
      <point x="692.6883028208083" y="606.2388059701493" type="qcurve" smooth="yes"/>
      <point x="593.8734728610181" y="606.2388059701493"/>
      <point x="506.4950710536423" y="519.4856539221701"/>
    </contour>
    <contour>
      <point x="532.9745231084369" y="1038.6915422885572" type="qcurve" smooth="yes"/>
      <point x="532.9745231084369" y="953.6907244598923"/>
      <point x="607.4103773795215" y="882.2288557213931"/>
      <point x="689.866385012589" y="882.2288557213931" type="qcurve" smooth="yes"/>
      <point x="771.9393080685422" y="882.2288557213931"/>
      <point x="846.2939871121922" y="953.6907244598923"/>
      <point x="846.2939871121922" y="1038.6915422885572" type="qcurve" smooth="yes"/>
      <point x="846.2939871121922" y="1123.692360117222"/>
      <point x="774.7612258767614" y="1195.8358208955224"/>
      <point x="689.866385012589" y="1195.8358208955224" type="qcurve" smooth="yes"/>
      <point x="604.5884595713023" y="1195.8358208955224"/>
      <point x="532.9745231084369" y="1123.692360117222"/>
    </contour>
  </outline>
</glyph>
<glyph name="nine" format="2">
  <advance width="1384.9123458370673"/>
  <unicode hex="0039"/>
  <outline>
    <contour>
      <point x="80.46575342465754" y="986.6425980454914" type="qcurve" smooth="yes"/>
      <point x="80.46575342465754" y="1219.3533478427858"/>
      <point x="348.38053172875857" y="1486.5327102803737"/>
      <point x="639.8565271198736" y="1486.5327102803737" type="qcurve" smooth="yes"/>
      <point x="946.6899244654974" y="1486.5327102803737"/>
      <point x="1281.3917978918619" y="1211.2222079972687"/>
      <point x="1281.3917978918619" y="903.2039431570862" type="qcurve" smooth="yes"/>
      <point x="1281.3917978918619" y="788.0760892758077" type="line" smooth="yes"/>
      <point x="1281.3917978918619" y="405.64268339521186"/>
      <point x="741.3796782315538" y="-30.09089745231084"/>
      <point x="400.0801007126702" y="-30.09089745231084" type="qcurve" smooth="yes"/>
      <point x="233.4870481799172" y="-30.09089745231084" type="line"/>
      <point x="233.4870481799172" y="247.43149060739066" type="line"/>
      <point x="393.96897537660567" y="247.43149060739066" type="line" smooth="yes"/>
      <point x="636.2682191398659" y="247.43149060739066"/>
      <point x="827.036657704946" y="511.44592744891594"/>
      <point x="827.036657704946" y="821.3038545589808" type="qcurve" smooth="yes"/>
      <point x="827.036657704946" y="896.2043520714186" type="line" smooth="yes"/>
      <point x="827.036657704946" y="1078.8970529505843"/>
      <point x="741.6310758332266" y="1199.050123215697"/>
      <point x="649.1333589382496" y="1199.050123215697" type="qcurve" smooth="yes"/>
      <point x="556.6356420432724" y="1199.050123215697"/>
      <point x="483.5498655741902" y="1090.5888850460283"/>
      <point x="483.5498655741902" y="981.2433326900258" type="qcurve" smooth="yes"/>
      <point x="483.5498655741902" y="871.8977803340232"/>
      <point x="557.1059616779755" y="765.735793570873"/>
      <point x="649.1333589382496" y="765.735793570873" type="qcurve" smooth="yes"/>
      <point x="735.8639525455554" y="765.735793570873"/>
      <point x="832.6505432127544" y="878.0743262308354"/>
      <point x="832.6505432127544" y="992.5024111296035" type="qcurve"/>
      <point x="928.4339179789187" y="992.5024111296035" type="line"/>
      <point x="928.4339179789187" y="772.4902914692955"/>
      <point x="712.0314086971365" y="499.93940169845945"/>
      <point x="509.17577774932784" y="499.93940169845945" type="qcurve" smooth="yes"/>
      <point x="322.83113557803097" y="499.93940169845945"/>
      <point x="80.46575342465754" y="752.5208893440874"/>
    </contour>
  </outline>
</glyph>
<glyph name="colon" format="2">
  <advance width="779.5233644859813"/>
  <unicode hex="003A"/>
  <outline>
    <contour>
      <point x="176.0" y="183.29906542056074" type="qcurve" smooth="yes"/>
      <point x="176.0" y="267.4579439252336"/>
      <point x="286.3457943925234" y="388.0654205607476"/>
      <point x="389.49532710280374" y="388.0654205607476" type="qcurve" smooth="yes"/>
      <point x="493.1775700934579" y="388.0654205607476"/>
      <point x="603.5233644859813" y="267.4579439252336"/>
      <point x="603.5233644859813" y="183.29906542056074" type="qcurve" smooth="yes"/>
      <point x="603.5233644859813" y="98.60747663551402"/>
      <point x="493.1775700934579" y="-22.0"/>
      <point x="389.49532710280374" y="-22.0" type="qcurve" smooth="yes"/>
      <point x="286.3457943925234" y="-22.0"/>
      <point x="176.0" y="98.60747663551402"/>
    </contour>
    <contour>
      <point x="176.0" y="862.7009345794393" type="qcurve" smooth="yes"/>
      <point x="176.0" y="947.392523364486"/>
      <point x="286.3457943925234" y="1068.0"/>
      <point x="389.49532710280374" y="1068.0" type="qcurve" smooth="yes"/>
      <point x="493.1775700934579" y="1068.0"/>
      <point x="603.5233644859813" y="947.392523364486"/>
      <point x="603.5233644859813" y="862.7009345794393" type="qcurve" smooth="yes"/>
      <point x="603.5233644859813" y="778.5420560747664"/>
      <point x="493.1775700934579" y="657.9345794392524"/>
      <point x="389.49532710280374" y="657.9345794392524" type="qcurve" smooth="yes"/>
      <point x="286.3457943925234" y="657.9345794392524"/>
      <point x="176.0" y="778.5420560747664"/>
    </contour>
  </outline>
</glyph>
<glyph name="semicolon" format="2">
  <advance width="717.6355140186915"/>
  <unicode hex="003B"/>
  <outline>
    <contour>
      <point x="39.532065698902755" y="-207.01192666802973" type="line"/>
      <point x="106.85326790704013" y="-150.3777686907926"/>
      <point x="178.53271028037383" y="-19.529680365296805"/>
      <point x="178.0" y="70.0" type="qcurve" smooth="yes"/>
      <point x="178.0" y="321.21495327102804" type="line"/>
      <point x="571.6168224299065" y="321.21495327102804" type="line"/>
      <point x="571.6168224299065" y="70.0" type="line" smooth="yes"/>
      <point x="571.6168224299065" y="-67.47384572464779"/>
      <point x="396.24122569841865" y="-283.9522016087785"/>
      <point x="235.69099706944726" y="-339.2686567164179" type="qcurve"/>
    </contour>
    <contour>
      <point x="155.30841121495328" y="862.7009345794394" type="qcurve" smooth="yes"/>
      <point x="155.30841121495328" y="947.3925233644861"/>
      <point x="265.6542056074766" y="1068.0"/>
      <point x="368.803738317757" y="1068.0" type="qcurve" smooth="yes"/>
      <point x="472.4859813084113" y="1068.0"/>
      <point x="582.8317757009346" y="947.3925233644861"/>
      <point x="582.8317757009346" y="862.7009345794394" type="qcurve" smooth="yes"/>
      <point x="582.8317757009346" y="778.5420560747664"/>
      <point x="472.4859813084113" y="657.9345794392524"/>
      <point x="368.803738317757" y="657.9345794392524" type="qcurve" smooth="yes"/>
      <point x="265.6542056074766" y="657.9345794392524"/>
      <point x="155.30841121495328" y="778.5420560747664"/>
    </contour>
  </outline>
</glyph>
<glyph name="less" format="2">
  <advance width="859.3498911791064"/>
  <unicode hex="003C"/>
  <outline>
    <contour>
      <point x="694.0896172065036" y="114.45794392523365" type="line"/>
      <point x="100.0" y="524.3551401869158" type="line"/>
      <point x="100.0" y="821.7757009345794" type="line"/>
      <point x="694.0896172065036" y="1229.5420560747664" type="line"/>
      <point x="753.3498911791064" y="928.2914266205779" type="line"/>
      <point x="403.1003712712841" y="677.0" type="line"/>
      <point x="753.3498911791064" y="429.7206930397303" type="line"/>
    </contour>
  </outline>
</glyph>
<glyph name="equal" format="2">
  <advance width="795.4246575342465"/>
  <unicode hex="003D"/>
  <outline>
    <contour>
      <point x="57.0" y="324.0" type="line"/>
      <point x="57.0" y="603.2710280373832" type="line"/>
      <point x="738.4246575342465" y="603.2710280373832" type="line"/>
      <point x="738.4246575342465" y="324.0" type="line"/>
    </contour>
    <contour>
      <point x="57.0" y="722.7289719626168" type="line"/>
      <point x="57.0" y="1002.0" type="line"/>
      <point x="738.4246575342465" y="1002.0" type="line"/>
      <point x="738.4246575342465" y="722.7289719626168" type="line"/>
    </contour>
  </outline>
</glyph>
<glyph name="greater" format="2">
  <advance width="859.3498911791064"/>
  <unicode hex="003E"/>
  <outline>
    <contour>
      <point x="165.26027397260273" y="114.45794392523365" type="line"/>
      <point x="106.0" y="429.75099219050054" type="line"/>
      <point x="456.24951990782233" y="677.0302991507702" type="line"/>
      <point x="106.0" y="928.3217257713482" type="line"/>
      <point x="165.26027397260273" y="1229.5420560747664" type="line"/>
      <point x="759.3498911791064" y="821.7757009345794" type="line"/>
      <point x="759.3498911791064" y="524.3551401869158" type="line"/>
    </contour>
  </outline>
</glyph>
<glyph name="question" format="2">
  <advance width="1238.5548158579782"/>
  <unicode hex="003F"/>
  <outline>
    <contour>
      <point x="364.9830154056245" y="178.50467289719626" type="qcurve" smooth="yes"/>
      <point x="364.9830154056245" y="267.9906542056075"/>
      <point x="481.7213331626338" y="395.5233644859813"/>
      <point x="590.7306789570265" y="395.5233644859813" type="qcurve" smooth="yes"/>
      <point x="700.2727350317928" y="395.5233644859813"/>
      <point x="816.4783425084282" y="267.9906542056075"/>
      <point x="816.4783425084282" y="178.50467289719626" type="qcurve" smooth="yes"/>
      <point x="816.4783425084282" y="89.55140186915887"/>
      <point x="700.2727350317928" y="-37.981308411214954"/>
      <point x="590.7306789570265" y="-37.981308411214954" type="qcurve" smooth="yes"/>
      <point x="481.7213331626338" y="-37.981308411214954"/>
      <point x="364.9830154056245" y="89.55140186915887"/>
    </contour>
    <contour>
      <point x="60.0" y="1008.3868042962757" type="line"/>
      <point x="60.0" y="1028.3868042962756" type="line" smooth="yes"/>
      <point x="60.0" y="1241.2723764355792"/>
      <point x="288.94300485792775" y="1481.3271028037384"/>
      <point x="604.5407331540989" y="1481.3271028037384" type="qcurve" smooth="yes"/>
      <point x="918.9892077189268" y="1481.3271028037384"/>
      <point x="1144.5548158579782" y="1279.541033151997"/>
      <point x="1144.5548158579782" y="1105.3271028037384" type="qcurve" smooth="yes"/>
      <point x="1144.5548158579782" y="954.8130841121496"/>
      <point x="1046.082405155123" y="778.7757009345794"/>
      <point x="927.9957325139759" y="720.1028037383178" type="qcurve" smooth="yes"/>
      <point x="807.8799982930057" y="660.4662655229804"/>
      <point x="780.7400247514189" y="564.5794392523364"/>
      <point x="777.0110527888022" y="516.9532710280374" type="qcurve" smooth="yes"/>
      <point x="774.347501386933" y="501.0934579439252" type="line"/>
      <point x="379.52507148039086" y="500.02803738317755" type="line"/>
      <point x="379.52507148039086" y="520.1495327102804" type="line" smooth="yes"/>
      <point x="379.52507148039086" y="592.9439252336449"/>
      <point x="425.7200955916869" y="710.4043869756326"/>
      <point x="500.99244654973756" y="792.588785046729" type="qcurve" smooth="yes"/>
      <point x="571.699995732514" y="869.3271028037383"/>
      <point x="744.9379934280715" y="1012.0666294694751"/>
      <point x="744.9379934280715" y="1079.5044404147488" type="qcurve" smooth="yes"/>
      <point x="744.9379934280715" y="1144.6798251731993"/>
      <point x="673.1184609534583" y="1215.894266982843"/>
      <point x="603.6000938846926" y="1215.894266982843" type="qcurve" smooth="yes"/>
      <point x="533.4027927192867" y="1215.894266982843"/>
      <point x="458.0841121495327" y="1118.0236202166736"/>
      <point x="458.0841121495327" y="1028.3868042962756" type="qcurve" smooth="yes"/>
      <point x="458.0841121495327" y="1008.3868042962757" type="line"/>
    </contour>
  </outline>
</glyph>
<glyph name="at" format="2">
  <advance width="1792.5342465753424"/>
  <unicode hex="0040"/>
  <outline>
    <contour>
      <point x="448.07476635514024" y="396.803738317757" type="qcurve" smooth="yes"/>
      <point x="460.77339649212655" y="680.0"/>
      <point x="767.3491230316221" y="1052.0"/>
      <point x="951.3789954337899" y="1052.0" type="qcurve" smooth="yes"/>
      <point x="1028.6803652968038" y="1052.0"/>
      <point x="1151.4018264840183" y="985.0"/>
      <point x="1192.4657534246576" y="946.0" type="qcurve"/>
      <point x="1345.4407886314173" y="946.0" type="line"/>
      <point x="1225.4407886314173" y="350.0" type="line" smooth="yes"/>
      <point x="1201.4407886314173" y="230.0"/>
      <point x="1215.1710835147014" y="136.0"/>
      <point x="1270.1241411684377" y="136.0" type="qcurve" smooth="yes"/>
      <point x="1357.337899543379" y="136.0"/>
      <point x="1498.5342465753424" y="420.0"/>
      <point x="1498.5342465753424" y="650.0" type="qcurve" smooth="yes"/>
      <point x="1498.5342465753424" y="920.0"/>
      <point x="1192.6118721461187" y="1330.0"/>
      <point x="921.7488584474886" y="1330.0" type="qcurve" smooth="yes"/>
      <point x="650.8858447488585" y="1330.0"/>
      <point x="300.0" y="820.0"/>
      <point x="300.0" y="460.0" type="qcurve" smooth="yes"/>
      <point x="300.0" y="100.0"/>
      <point x="601.2328767123288" y="-290.0"/>
      <point x="857.9634703196348" y="-290.0" type="qcurve" smooth="yes"/>
      <point x="988.0867579908676" y="-290.0"/>
      <point x="1154.8082191780823" y="-236.0"/>
      <point x="1211.4018264840183" y="-200.0" type="qcurve"/>
      <point x="1212.3424657534247" y="-356.0" type="line"/>
      <point x="1149.3972602739727" y="-400.0"/>
      <point x="978.2100456621005" y="-446.0"/>
      <point x="852.3196347031964" y="-446.0" type="qcurve" smooth="yes"/>
      <point x="539.8219178082192" y="-454.4657534246575"/>
      <point x="114.0" y="35.29680365296804"/>
      <point x="114.0" y="459.0593607305936" type="qcurve" smooth="yes"/>
      <point x="114.0" y="882.351598173516"/>
      <point x="589.0045662100457" y="1486.0"/>
      <point x="921.7488584474886" y="1486.0" type="qcurve" smooth="yes"/>
      <point x="1254.4931506849316" y="1486.0"/>
      <point x="1678.5342465753424" y="1000.0"/>
      <point x="1678.5342465753424" y="650.0" type="qcurve" smooth="yes"/>
      <point x="1678.5342465753424" y="360.0"/>
      <point x="1431.2237442922374" y="0.0"/>
      <point x="1251.9178082191781" y="0.0" type="qcurve" smooth="yes"/>
      <point x="1147.675799086758" y="0.0"/>
      <point x="994.3698630136987" y="100.0"/>
      <point x="966.1278538812785" y="180.0" type="qcurve"/>
      <point x="923.6529680365297" y="100.0"/>
      <point x="804.3470319634703" y="0.0"/>
      <point x="713.1984807749755" y="0.0" type="qcurve" smooth="yes"/>
      <point x="583.8958306661546" y="0.0"/>
      <point x="439.6090129304827" y="220.0"/>
    </contour>
    <contour>
      <point x="719.8625869500278" y="442.48824371294216" type="qcurve" smooth="yes"/>
      <point x="711.8671531600735" y="340.8763034144347"/>
      <point x="735.303204882004" y="235.03090424207218"/>
      <point x="783.3262493065336" y="234.56058460736898" type="qcurve" smooth="yes"/>
      <point x="831.1686077358694" y="234.0902649726658"/>
      <point x="933.2725025493453" y="323.48189726059246"/>
      <point x="959.1924432376587" y="437.20663804266337" type="qcurve" smooth="yes"/>
      <point x="1037.9390214463467" y="807.9402985074627" type="line"/>
      <point x="1023.1428365788521" y="822.493281257265"/>
      <point x="971.3810865019416" y="835.8534042118176"/>
      <point x="945.7402381257202" y="835.8534042118176" type="qcurve" smooth="yes"/>
      <point x="870.7714277161116" y="836.3237238465208"/>
      <point x="734.4424956258268" y="615.6022996017225"/>
    </contour>
  </outline>
</glyph>
<glyph name="A" format="2">
  <advance width="1448.746476935512"/>
  <unicode hex="0041"/>
  <anchor x="882.6622959966522" y="0.0" name="bottom"/>
  <anchor x="1629.7464081461849" y="0.0" name="ogonek"/>
  <anchor x="989.2043520714185" y="1456.0" name="top"/>
  <anchor x="452.39126795926904" y="1074.0" name="tonos"/>
  <outline>
    <contour>
      <point x="23.515981735159816" y="0.0" type="line"/>
      <point x="477.09337259420477" y="1462.803738317757" type="line"/>
      <point x="948.4141595186276" y="1462.803738317757" type="line"/>
      <point x="1410.6732812700038" y="0.0" type="line"/>
      <point x="950.1779541672001" y="0.0" type="line"/>
      <point x="712.039858319464" y="938.5265224256391" type="line" smooth="yes"/>
      <point x="703.6152434600776" y="970.9938121452652"/>
      <point x="686.4646865531515" y="1034.0592327060128"/>
      <point x="682.8817052874151" y="1065.4611018648914" type="qcurve"/>
      <point x="676.8314343020527" y="1065.4611018648914" type="line"/>
      <point x="673.78116331669" y="1034.0592327060128"/>
      <point x="656.5058251184226" y="970.4611018648914"/>
      <point x="648.0812102590364" y="938.5265224256391" type="qcurve" smooth="yes"/>
      <point x="403.0300004267486" y="0.0" type="line"/>
    </contour>
    <contour>
      <point x="422.5566445075862" y="260.09452736318406" type="line"/>
      <point x="505.9451812757999" y="558.3034825870647" type="line"/>
      <point x="1063.0015573139297" y="558.3034825870647" type="line"/>
      <point x="1146.5052034667274" y="260.09452736318406" type="line"/>
    </contour>
  </outline>
</glyph>
<glyph name="B" format="2">
  <advance width="1412.6177186019715"/>
  <unicode hex="0042"/>
  <anchor x="821.7383177570093" y="0.0" name="bottom"/>
  <anchor x="821.7383177570093" y="1456.0" name="top"/>
  <outline>
    <contour>
      <point x="138.0" y="0.0" type="line"/>
      <point x="138.0" y="1456.0" type="line"/>
      <point x="800.7631545256689" y="1456.0" type="line" smooth="yes"/>
      <point x="1041.9085477745061" y="1456.0"/>
      <point x="1290.8995860538557" y="1270.0"/>
      <point x="1290.8995860538557" y="1091.1260188622882" type="qcurve" smooth="yes"/>
      <point x="1290.8995860538557" y="946.8037383177569"/>
      <point x="1198.025818290445" y="792.4508598984339"/>
      <point x="1123.1672427772799" y="768.5039047497121" type="qcurve"/>
      <point x="1123.1672427772799" y="764.503904749712" type="line"/>
      <point x="1213.9513079844664" y="742.5630094311442"/>
      <point x="1330.6177186019718" y="570.0302991507704"/>
      <point x="1330.6177186019718" y="413.4155251141553" type="qcurve" smooth="yes"/>
      <point x="1330.6177186019718" y="220.0"/>
      <point x="1072.133614987411" y="0.0"/>
      <point x="829.8801263175862" y="0.0" type="qcurve" smooth="yes"/>
    </contour>
    <contour>
      <point x="555.5981308411215" y="278.67164179104475" type="line"/>
      <point x="731.2663338027569" y="278.67164179104475" type="line" smooth="yes"/>
      <point x="820.8037153879814" y="278.67164179104475"/>
      <point x="904.6270643963642" y="370.0172425543515"/>
      <point x="904.6270643963642" y="452.17910447761193" type="qcurve" smooth="yes"/>
      <point x="904.6270643963642" y="536.8139439787365"/>
      <point x="817.0411583103559" y="623.6865671641792"/>
      <point x="731.2663338027569" y="623.6865671641792" type="qcurve" smooth="yes"/>
      <point x="357.86915887850466" y="623.6865671641792" type="line"/>
      <point x="357.86915887850466" y="881.2039800995026" type="line"/>
      <point x="705.9695301497889" y="881.2039800995026" type="line" smooth="yes"/>
      <point x="796.7964912347747" y="881.2039800995026"/>
      <point x="875.0928178210216" y="956.411913037552"/>
      <point x="875.0928178210216" y="1029.776119402985" type="qcurve" smooth="yes"/>
      <point x="875.0928178210216" y="1101.4676616915424"/>
      <point x="799.1480894082907" y="1175.0298507462687"/>
      <point x="714.9056032091495" y="1174.6467661691545" type="qcurve" smooth="yes"/>
      <point x="555.5981308411215" y="1174.6467661691545" type="line"/>
    </contour>
  </outline>
</glyph>
<glyph name="C" format="2">
  <advance width="1495.806554858533"/>
  <unicode hex="0043"/>
  <anchor x="960.3738317757009" y="0.0" name="bottom"/>
  <anchor x="970.3738317757009" y="1456.0" name="top"/>
  <outline>
    <contour>
      <point x="115.0" y="573.6297529125593" type="qcurve" smooth="yes"/>
      <point x="115.0" y="873.5973200187769" type="line" smooth="yes"/>
      <point x="115.0" y="1157.3794852392753"/>
      <point x="489.96021492843033" y="1486.4703196347032"/>
      <point x="797.2674006742627" y="1486.4703196347032" type="qcurve" smooth="yes"/>
      <point x="1101.9324775431508" y="1486.4703196347032"/>
      <point x="1407.544872615542" y="1223.3928246362605"/>
      <point x="1421.3953399052618" y="991.8913848374311" type="qcurve" smooth="yes"/>
      <point x="1422.4607604660096" y="913.3830845771145" type="line"/>
      <point x="996.0682371015234" y="913.3830845771145" type="line"/>
      <point x="995.0028165407759" y="1001.2977775314951" type="line" smooth="yes"/>
      <point x="985.4140314940469" y="1069.3876393222722"/>
      <point x="887.7843824024162" y="1173.363184079602"/>
      <point x="783.1002005718431" y="1173.363184079602" type="qcurve" smooth="yes"/>
      <point x="672.1429607818035" y="1173.363184079602"/>
      <point x="546.588785046729" y="1054.8708512233354"/>
      <point x="546.588785046729" y="918.804844042494" type="qcurve" smooth="yes"/>
      <point x="546.588785046729" y="530.3035074276551" type="line" smooth="yes"/>
      <point x="546.588785046729" y="409.5277720984121"/>
      <point x="671.5260453589179" y="282.636815920398"/>
      <point x="784.5111594759527" y="282.636815920398" type="qcurve" smooth="yes"/>
      <point x="887.7572577516972" y="282.636815920398"/>
      <point x="993.6982320506033" y="383.54393313167867"/>
      <point x="995.0058464558529" y="451.72671783828264" type="qcurve" smooth="yes"/>
      <point x="996.0682371015234" y="542.6169154228855" type="line"/>
      <point x="1422.4607604660096" y="542.6169154228855" type="line"/>
      <point x="1421.9310801007127" y="459.1222711178457" type="line" smooth="yes"/>
      <point x="1408.7216732876395" y="228.39611314825183"/>
      <point x="1085.3536593055715" y="-30.0"/>
      <point x="797.2674006742627" y="-30.0" type="qcurve" smooth="yes"/>
      <point x="489.48989529372716" y="-30.0"/>
      <point x="115.0" y="303.10773364008276"/>
    </contour>
  </outline>
</glyph>
<glyph name="D" format="2">
  <advance width="1537.4061366449023"/>
  <unicode hex="0044"/>
  <anchor x="789.8130841121495" y="0.0" name="bottom"/>
  <anchor x="428.5420560747664" y="728.0" name="center"/>
  <anchor x="789.8130841121495" y="1456.0" name="top"/>
  <outline>
    <contour>
      <point x="170.0" y="0.0" type="line"/>
      <point x="170.0" y="1456.0" type="line"/>
      <point x="784.4031494046857" y="1456.0" type="line" smooth="yes"/>
      <point x="1119.2394104245127" y="1456.0"/>
      <point x="1444.5111594759526" y="1162.1556995460542"/>
      <point x="1444.5111594759526" y="882.9077369521615" type="qcurve" smooth="yes"/>
      <point x="1444.5111594759526" y="554.5962104724108" type="line" smooth="yes"/>
      <point x="1444.5111594759526" y="286.7895059333979"/>
      <point x="1119.2394104245127" y="0.0"/>
      <point x="784.4031494046857" y="0.0" type="qcurve" smooth="yes"/>
    </contour>
    <contour>
      <point x="590.5327102803737" y="301.65671641791045" type="line"/>
      <point x="735.5281440703282" y="301.65671641791045" type="line" smooth="yes"/>
      <point x="850.8762664720183" y="301.65671641791045"/>
      <point x="1013.4550847095975" y="419.26606692564576"/>
      <point x="1013.4550847095975" y="534.6987116650777" type="qcurve" smooth="yes"/>
      <point x="1013.4550847095975" y="913.6225873576681" type="line" smooth="yes"/>
      <point x="1013.4550847095975" y="1034.2609554964902"/>
      <point x="850.8762664720183" y="1151.278606965174"/>
      <point x="735.5281440703282" y="1151.6616915422885" type="qcurve" smooth="yes"/>
      <point x="590.5327102803737" y="1151.6616915422885" type="line"/>
    </contour>
  </outline>
</glyph>
<glyph name="E" format="2">
  <advance width="1101.8961806000086"/>
  <unicode hex="0045"/>
  <anchor x="718.392523364486" y="0.0" name="bottom"/>
  <anchor x="1261.766355140187" y="0.0" name="ogonek"/>
  <anchor x="736.0560747663552" y="1456.0" name="top"/>
  <anchor x="-107.00000000000001" y="1074.0" name="tonos"/>
  <outline>
    <contour>
      <point x="138.0" y="0.0" type="line"/>
      <point x="138.0" y="1456.0" type="line"/>
      <point x="1038.3180984082278" y="1456.0" type="line"/>
      <point x="1038.3180984082278" y="1174.6467661691545" type="line"/>
      <point x="558.5327102803739" y="1174.6467661691545" type="line"/>
      <point x="558.5327102803739" y="281.3532338308458" type="line"/>
      <point x="1045.4961806000088" y="281.3532338308458" type="line"/>
      <point x="1045.4961806000088" y="0.0" type="line"/>
    </contour>
    <contour>
      <point x="351.33644859813086" y="618.3681592039802" type="line"/>
      <point x="351.33644859813086" y="867.5422885572141" type="line"/>
      <point x="970.774719412794" y="867.5422885572141" type="line"/>
      <point x="970.774719412794" y="618.3681592039802" type="line"/>
    </contour>
  </outline>
</glyph>
<glyph name="F" format="2">
  <advance width="1119.0776255707763"/>
  <unicode hex="0046"/>
  <anchor x="533.0373831775701" y="0.0" name="bottom"/>
  <anchor x="704.5794392523364" y="1457.0" name="top"/>
  <outline>
    <contour>
      <point x="170.0" y="0.0" type="line"/>
      <point x="170.0" y="1456.0" type="line"/>
      <point x="1061.0776255707763" y="1456.0" type="line"/>
      <point x="1061.0776255707763" y="1145.915422885572" type="line"/>
      <point x="590.0" y="1145.915422885572" type="line"/>
      <point x="590.0" y="0.0" type="line"/>
    </contour>
    <contour>
      <point x="382.803738317757" y="525.776119402985" type="line"/>
      <point x="382.803738317757" y="820.9203980099503" type="line"/>
      <point x="995.4703196347032" y="820.9203980099503" type="line"/>
      <point x="995.4703196347032" y="525.776119402985" type="line"/>
    </contour>
  </outline>
</glyph>
<glyph name="G" format="2">
  <advance width="1566.1275551572567"/>
  <unicode hex="0047"/>
  <anchor x="687.6976486152007" y="0.0" name="bottom"/>
  <anchor x="666.3892374002476" y="1456.0" name="top"/>
  <outline>
    <contour>
      <point x="115.0" y="579.8351043400332" type="qcurve" smooth="yes"/>
      <point x="115.0" y="878.7036657704946" type="line" smooth="yes"/>
      <point x="115.0" y="1170.380509435921"/>
      <point x="498.3816183453491" y="1486.0"/>
      <point x="804.7531259335126" y="1485.5296803652968" type="qcurve" smooth="yes"/>
      <point x="1090.7099523506524" y="1486.0"/>
      <point x="1410.244298288356" y="1285.0316252561288"/>
      <point x="1417.9530149788761" y="1068.1189284661064" type="qcurve" smooth="yes"/>
      <point x="1419.0154056245465" y="1008.9303482587064" type="line"/>
      <point x="1007.7595271625485" y="1008.9303482587064" type="line"/>
      <point x="1006.161396321427" y="1088.6240707867653" type="line" smooth="yes"/>
      <point x="1000.8342935176888" y="1149.3506886257487"/>
      <point x="888.8255668272386" y="1198.2636815920398"/>
      <point x="789.1522212264755" y="1198.2636815920398" type="qcurve" smooth="yes"/>
      <point x="680.0713243410397" y="1198.2636815920398"/>
      <point x="547.1214953271028" y="1037.7436508406631"/>
      <point x="547.1214953271028" y="928.0480907458609" type="qcurve" smooth="yes"/>
      <point x="547.1214953271028" y="542.3686719392412" type="line" smooth="yes"/>
      <point x="547.1214953271028" y="417.1864955086302"/>
      <point x="694.381905604483" y="258.88557213930346"/>
      <point x="809.8703537745914" y="258.88557213930346" type="qcurve" smooth="yes"/>
      <point x="897.7426361980903" y="258.88557213930346"/>
      <point x="988.2604580477462" y="288.3067539017243"/>
      <point x="1022.0621345965092" y="329.21890547263683" type="qcurve"/>
      <point x="1022.0621345965092" y="538.9701492537314" type="line"/>
      <point x="805.3909017197968" y="538.9701492537314" type="line"/>
      <point x="805.3909017197968" y="806.9154228855722" type="line"/>
      <point x="1435.5294243161352" y="806.9154228855722" type="line"/>
      <point x="1437.1275551572567" y="164.70319634703196" type="line"/>
      <point x="1368.2972304015705" y="96.58447488584474"/>
      <point x="1062.5862672299747" y="-30.0"/>
      <point x="836.7937950753211" y="-30.0" type="qcurve" smooth="yes"/>
      <point x="501.89573130379347" y="-30.0"/>
      <point x="115.0" y="289.5068289330457"/>
    </contour>
  </outline>
</glyph>
<glyph name="H" format="2">
  <advance width="1619.2967609781078"/>
  <unicode hex="0048"/>
  <anchor x="957.5327102803737" y="0.0" name="bottom"/>
  <anchor x="957.5327102803737" y="1100.0" name="center"/>
  <anchor x="957.5327102803737" y="1456.0" name="top"/>
  <anchor x="1655.8598130841121" y="0.0" name="cy_descender"/>
  <anchor x="-75.0" y="1074.0" name="tonos"/>
  <outline>
    <contour>
      <point x="170.0" y="0.0" type="line"/>
      <point x="170.0" y="1456.0" type="line"/>
      <point x="590.5327102803737" y="1456.0" type="line"/>
      <point x="590.5327102803737" y="0.0" type="line"/>
    </contour>
    <contour>
      <point x="383.3364485981308" y="595.3830845771145" type="line"/>
      <point x="383.3364485981308" y="907.3830845771145" type="line"/>
      <point x="1240.6332095762386" y="907.3830845771145" type="line"/>
      <point x="1240.6332095762386" y="595.3830845771145" type="line"/>
    </contour>
    <contour>
      <point x="1028.764050697734" y="0.0" type="line"/>
      <point x="1028.764050697734" y="1456.0" type="line"/>
      <point x="1449.2967609781078" y="1456.0" type="line"/>
      <point x="1449.2967609781078" y="0.0" type="line"/>
    </contour>
  </outline>
</glyph>
<glyph name="I" format="2">
  <advance width="704.5327102803737"/>
  <unicode hex="0049"/>
  <anchor x="346.67289719626166" y="0.0" name="bottom"/>
  <anchor x="488.214953271028" y="0.0" name="ogonek"/>
  <anchor x="354.1308411214953" y="1456.0" name="top"/>
  <anchor x="-108.00000000000001" y="1074.0" name="tonos"/>
  <anchor x="346.67289719626166" y="750.0" name="yu_dash"/>
  <outline>
    <contour>
      <point x="142.0" y="0.0" type="line"/>
      <point x="142.0" y="1456.0" type="line"/>
      <point x="562.5327102803739" y="1456.0" type="line"/>
      <point x="562.5327102803739" y="0.0" type="line"/>
    </contour>
  </outline>
</glyph>
<glyph name="J" format="2">
  <advance width="1304.0957197115179"/>
  <unicode hex="004A"/>
  <anchor x="525.5630094311441" y="0.0" name="bottom"/>
  <anchor x="963.2732898049758" y="1456.0" name="top"/>
  <outline>
    <contour>
      <point x="26.598130841121495" y="452.3045730252845" type="qcurve" smooth="yes"/>
      <point x="26.598130841121495" y="521.094527363184" type="line"/>
      <point x="408.2429906542056" y="521.094527363184" type="line"/>
      <point x="408.2429906542056" y="433.96210727185985" type="line" smooth="yes"/>
      <point x="408.2429906542056" y="358.1475499216247"/>
      <point x="496.0942139895835" y="277.27363184079604"/>
      <point x="575.5945888277216" y="277.27363184079604" type="qcurve" smooth="yes"/>
      <point x="655.0949636658597" y="277.27363184079604"/>
      <point x="742.9461870012376" y="367.6781844203639"/>
      <point x="742.9461870012376" y="451.9073127513119" type="qcurve" smooth="yes"/>
      <point x="742.9461870012376" y="1456.0" type="line"/>
      <point x="1163.4788972816114" y="1456.0" type="line"/>
      <point x="1163.4788972816114" y="474.01233558236214" type="line" smooth="yes"/>
      <point x="1163.4788972816114" y="221.421446091779"/>
      <point x="855.1740688441035" y="-30.0"/>
      <point x="561.2114112576281" y="-30.0" type="qcurve" smooth="yes"/>
      <point x="299.74408077395634" y="-30.0"/>
      <point x="26.598130841121495" y="210.13431434556827"/>
    </contour>
  </outline>
</glyph>
<glyph name="K" format="2">
  <advance width="1457.1716809627449"/>
  <unicode hex="004B"/>
  <anchor x="925.9906542056074" y="0.0" name="bottom"/>
  <anchor x="925.9906542056074" y="1456.0" name="top"/>
  <outline>
    <contour>
      <point x="170.0" y="0.0" type="line"/>
      <point x="170.0" y="1456.0" type="line"/>
      <point x="590.5327102803737" y="1456.0" type="line"/>
      <point x="590.5327102803737" y="0.0" type="line"/>
    </contour>
    <contour>
      <point x="945.5174753552683" y="0.0" type="line"/>
      <point x="547.6729035656439" y="656.6019104324747" type="line"/>
      <point x="827.1331092584702" y="962.856093364951" type="line"/>
      <point x="1477.1716809627449" y="0.0" type="line"/>
    </contour>
    <contour>
      <point x="464.2952527084205" y="151.1612498256382" type="line"/>
      <point x="464.2952527084205" y="621.3342887406521" type="line"/>
      <point x="992.2187653462299" y="1456.0" type="line"/>
      <point x="1418.8257305203592" y="1456.0" type="line"/>
    </contour>
  </outline>
</glyph>
<glyph name="L" format="2">
  <advance width="1111.4380574403617"/>
  <unicode hex="004C"/>
  <anchor x="757.8504672897196" y="0.0" name="bottom"/>
  <anchor x="1030.467289719626" y="728.0" name="center"/>
  <anchor x="442.5981308411215" y="1456.0" name="top"/>
  <anchor x="972.7383177570093" y="1052.0" name="topright"/>
  <outline>
    <contour>
      <point x="170.0" y="0.0" type="line"/>
      <point x="170.0" y="1456.0" type="line"/>
      <point x="601.1869158878504" y="1456.0" type="line"/>
      <point x="601.1869158878504" y="312.0" type="line"/>
      <point x="1057.4380574403617" y="312.0" type="line"/>
      <point x="1057.4380574403617" y="0.0" type="line"/>
    </contour>
  </outline>
</glyph>
<glyph name="M" format="2">
  <advance width="1973.233986258695"/>
  <unicode hex="004D"/>
  <anchor x="1355.9069140279908" y="0.0" name="bottom"/>
  <anchor x="1462.4489701027574" y="1456.0" name="top"/>
  <outline>
    <contour>
      <point x="170.0" y="0.0" type="line"/>
      <point x="170.0" y="1456.0" type="line"/>
      <point x="815.9345794392523" y="1456.0" type="line"/>
      <point x="953.5621559339394" y="549.5794392523364" type="line" smooth="yes"/>
      <point x="959.260828745786" y="514.8474373746426"/>
      <point x="970.6672641147098" y="429.5420560747664"/>
      <point x="976.5364229932146" y="392.0841121495327" type="qcurve"/>
      <point x="982.9382921520931" y="392.0841121495327" type="line"/>
      <point x="988.8698416762685" y="429.5420560747664"/>
      <point x="1001.1545256689285" y="514.3771177399394"/>
      <point x="1007.856228395852" y="549.5794392523364" type="qcurve" smooth="yes"/>
      <point x="1150.3741731745827" y="1456.0" type="line"/>
      <point x="1803.233986258695" y="1456.0" type="line"/>
      <point x="1803.233986258695" y="0.0" type="line"/>
      <point x="1385.5050142960781" y="0.0" type="line"/>
      <point x="1385.5050142960781" y="900.3084112149533" type="line" smooth="yes"/>
      <point x="1385.5050142960781" y="934.0373831775701"/>
      <point x="1388.5704348568256" y="1015.4299065420561"/>
      <point x="1392.0377245764519" y="1048.6261682242991" type="qcurve"/>
      <point x="1384.0377245764519" y="1048.6261682242991" type="line"/>
      <point x="1379.1031451371996" y="1015.4299065420561"/>
      <point x="1368.7712200742542" y="935.0404130926471"/>
      <point x="1362.00712670166" y="900.3084112149533" type="qcurve" smooth="yes"/>
      <point x="1211.7607220586353" y="0.0" type="line"/>
      <point x="721.3401613109717" y="0.0" type="line"/>
      <point x="577.9277941364742" y="900.3084112149533" type="line" smooth="yes"/>
      <point x="571.6964110442539" y="934.5077028122732"/>
      <point x="560.8317757009346" y="1015.4299065420561"/>
      <point x="555.3644859813085" y="1048.6261682242991" type="qcurve"/>
      <point x="547.3644859813085" y="1048.6261682242991" type="line"/>
      <point x="550.8317757009346" y="1015.4299065420561"/>
      <point x="553.3644859813085" y="934.0373831775701"/>
      <point x="553.3644859813085" y="900.3084112149533" type="qcurve" smooth="yes"/>
      <point x="553.3644859813085" y="0.0" type="line"/>
    </contour>
  </outline>
</glyph>
<glyph name="N" format="2">
  <advance width="1602.7142918106945"/>
  <unicode hex="004E"/>
  <anchor x="953.6831729204445" y="0.0" name="bottom"/>
  <anchor x="953.6831729204445" y="1456.0" name="top"/>
  <anchor x="1455.3093411447435" y="0.0" name="engtail"/>
  <outline>
    <contour>
      <point x="170.0" y="0.0" type="line"/>
      <point x="170.0" y="1456.0" type="line"/>
      <point x="687.4953271028037" y="1456.0" type="line"/>
      <point x="968.8284043869758" y="597.411214953271" type="line" smooth="yes"/>
      <point x="979.7675500362736" y="565.6547177057995"/>
      <point x="989.4086544616566" y="514.3364485981308"/>
      <point x="998.4619553620962" y="482.94392523364485" type="qcurve"/>
      <point x="1006.4619553620962" y="482.94392523364485" type="line"/>
      <point x="1004.9292450817225" y="516.6728971962616"/>
      <point x="1003.9292450817225" y="575.6915887850467"/>
      <point x="1003.9292450817225" y="609.9532710280373" type="qcurve" smooth="yes"/>
      <point x="1003.9292450817225" y="1456.0" type="line"/>
      <point x="1432.7142918106945" y="1456.0" type="line"/>
      <point x="1432.7142918106945" y="0.0" type="line"/>
      <point x="872.6021422779841" y="0.0" type="line"/>
      <point x="589.1382238723168" y="860.7196261682243" type="line" smooth="yes"/>
      <point x="578.7317885033925" y="891.943413135322"/>
      <point x="567.2063756241198" y="947.1154354969487"/>
      <point x="560.6355140186915" y="978.9158878504672" type="qcurve"/>
      <point x="553.1028037383178" y="978.9158878504672" type="line"/>
      <point x="554.6355140186915" y="945.1869158878505"/>
      <point x="556.1682242990654" y="877.1121495327103"/>
      <point x="556.1682242990654" y="843.3831775700935" type="qcurve" smooth="yes"/>
      <point x="556.1682242990654" y="0.0" type="line"/>
    </contour>
  </outline>
</glyph>
<glyph name="O" format="2">
  <advance width="1595.1364742030469"/>
  <unicode hex="004F"/>
  <anchor x="967.588785046729" y="0.0" name="bottom"/>
  <anchor x="967.588785046729" y="728.0" name="center"/>
  <anchor x="1250.822429906542" y="0.0" name="ogonek"/>
  <anchor x="967.588785046729" y="1456.0" name="top"/>
  <anchor x="1245.822429906542" y="1456.0" name="topright"/>
  <anchor x="9.55140186915888" y="1074.0" name="tonos"/>
  <anchor x="545.5233644859813" y="750.0" name="yu_dash"/>
  <outline>
    <contour>
      <point x="115.0" y="577.2963342295054" type="qcurve" smooth="yes"/>
      <point x="115.0" y="877.0431442837024" type="line" smooth="yes"/>
      <point x="115.0" y="1164.2499039815646"/>
      <point x="463.0093457943925" y="1486.0"/>
      <point x="797.3330772841718" y="1486.0" type="qcurve" smooth="yes"/>
      <point x="1131.6568087739513" y="1486.0"/>
      <point x="1480.1364742030469" y="1164.2499039815646"/>
      <point x="1480.1364742030469" y="877.0431442837024" type="qcurve" smooth="yes"/>
      <point x="1480.1364742030469" y="577.2963342295054" type="line" smooth="yes"/>
      <point x="1480.1364742030469" y="290.62228481201726"/>
      <point x="1125.3266760551357" y="-30.0"/>
      <point x="797.3330772841718" y="-30.0" type="qcurve" smooth="yes"/>
      <point x="469.33947851320784" y="-30.0"/>
      <point x="115.0" y="290.62228481201726"/>
    </contour>
    <contour>
      <point x="547.1214953271028" y="516.7737340693792" type="line" smooth="yes"/>
      <point x="547.1214953271028" y="416.4232944864718"/>
      <point x="680.7653309435411" y="301.7910447761194"/>
      <point x="798.336107199249" y="301.7910447761194" type="qcurve" smooth="yes"/>
      <point x="915.9068834549568" y="301.7910447761194"/>
      <point x="1049.080399436692" y="416.4232944864718"/>
      <point x="1049.080399436692" y="516.7737340693792" type="qcurve" smooth="yes"/>
      <point x="1049.080399436692" y="942.5185033735432" type="line" smooth="yes"/>
      <point x="1049.080399436692" y="1041.457984052341"/>
      <point x="914.9662441855503" y="1154.2089552238806"/>
      <point x="798.336107199249" y="1154.2089552238806" type="qcurve" smooth="yes"/>
      <point x="681.7059702129476" y="1154.2089552238806"/>
      <point x="547.1214953271028" y="1041.457984052341"/>
      <point x="547.1214953271028" y="942.5185033735432" type="qcurve" smooth="yes"/>
    </contour>
  </outline>
</glyph>
<glyph name="P" format="2">
  <advance width="1422.711902018521"/>
  <unicode hex="0050"/>
  <anchor x="546.7289719626168" y="0.0" name="bottom"/>
  <anchor x="829.0654205607476" y="1456.0" name="top"/>
  <outline>
    <contour>
      <point x="170.0" y="0.0" type="line"/>
      <point x="170.0" y="1456.0" type="line"/>
      <point x="923.039474245722" y="1456.0" type="line" smooth="yes"/>
      <point x="1124.3629496863398" y="1456.0"/>
      <point x="1372.711902018521" y="1215.0909834389695"/>
      <point x="1372.711902018521" y="984.7363184079602" type="qcurve" smooth="yes"/>
      <point x="1372.711902018521" y="760.894091187896"/>
      <point x="1124.3629496863398" y="524.7960199004975"/>
      <point x="923.039474245722" y="525.179104477612" type="qcurve" smooth="yes"/>
      <point x="386.5327102803738" y="525.179104477612" type="line"/>
      <point x="386.5327102803738" y="790.4427860696518" type="line"/>
      <point x="755.2357359279648" y="790.4427860696518" type="line" smooth="yes"/>
      <point x="861.3064099550896" y="790.4427860696518"/>
      <point x="943.6558272521659" y="880.9928439991822"/>
      <point x="943.6558272521659" y="984.7363184079602" type="qcurve" smooth="yes"/>
      <point x="943.6558272521659" y="1087.7136236625092"/>
      <point x="861.3064099550896" y="1175.4129353233832"/>
      <point x="755.2357359279648" y="1175.4129353233832" type="qcurve" smooth="yes"/>
      <point x="596.9252336448598" y="1175.4129353233832" type="line"/>
      <point x="596.9252336448598" y="0.0" type="line"/>
    </contour>
  </outline>
</glyph>
<glyph name="Q" format="2">
  <advance width="1600.4635770067853"/>
  <unicode hex="0051"/>
  <anchor x="967.588785046729" y="0.0" name="bottom"/>
  <anchor x="967.588785046729" y="1456.0" name="top"/>
  <outline>
    <contour>
      <point x="115.0" y="580.4925959117484" type="qcurve" smooth="yes"/>
      <point x="115.0" y="877.5758545640763" type="line" smooth="yes"/>
      <point x="115.0" y="1164.7826142619383"/>
      <point x="465.6728971962617" y="1486.0"/>
      <point x="797.3330772841718" y="1486.0" type="qcurve" smooth="yes"/>
      <point x="1128.9932573720819" y="1486.0"/>
      <point x="1480.1364742030469" y="1164.7826142619383"/>
      <point x="1480.1364742030469" y="877.5758545640763" type="qcurve" smooth="yes"/>
      <point x="1480.1364742030469" y="580.4925959117484" type="line" smooth="yes"/>
      <point x="1480.1364742030469" y="292.7531259335126"/>
      <point x="1123.1958349336405" y="-30.0"/>
      <point x="797.3330772841718" y="-30.0" type="qcurve" smooth="yes"/>
      <point x="471.4703196347032" y="-30.0"/>
      <point x="115.0" y="292.7531259335126"/>
    </contour>
    <contour>
      <point x="546.588785046729" y="516.7737340693792" type="line" smooth="yes"/>
      <point x="546.588785046729" y="416.4232944864718"/>
      <point x="680.2326206631674" y="301.7910447761194"/>
      <point x="797.803396918875" y="301.7910447761194" type="qcurve" smooth="yes"/>
      <point x="915.3741731745828" y="301.7910447761194"/>
      <point x="1048.547689156318" y="416.4232944864718"/>
      <point x="1048.547689156318" y="516.7737340693792" type="qcurve" smooth="yes"/>
      <point x="1048.547689156318" y="942.5185033735432" type="line" smooth="yes"/>
      <point x="1048.547689156318" y="1041.457984052341"/>
      <point x="914.4335339051763" y="1154.2089552238806"/>
      <point x="797.803396918875" y="1154.2089552238806" type="qcurve" smooth="yes"/>
      <point x="681.1732599325737" y="1154.2089552238806"/>
      <point x="546.588785046729" y="1041.457984052341"/>
      <point x="546.588785046729" y="942.5185033735432" type="qcurve" smooth="yes"/>
    </contour>
    <contour>
      <point x="1173.178082191781" y="-231.70080655485853" type="line"/>
      <point x="840.6709768275508" y="30.0" type="line"/>
      <point x="1070.7199841274999" y="251.82489422048633" type="line"/>
      <point x="1439.019203687108" y="36.80386634233772" type="line"/>
    </contour>
  </outline>
</glyph>
<glyph name="R" format="2">
  <advance width="1427.102217500387"/>
  <unicode hex="0052"/>
  <anchor x="841.1134836634902" y="0.0" name="bottom"/>
  <anchor x="841.1134836634902" y="1456.0" name="top"/>
  <outline>
    <contour>
      <point x="139.7583434765744" y="0.0" type="line"/>
      <point x="139.7583434765744" y="1456.0" type="line"/>
      <point x="845.4156216739882" y="1456.0" type="line" smooth="yes"/>
      <point x="1084.4636659233597" y="1456.0"/>
      <point x="1316.7339334565174" y="1222.2451294927232"/>
      <point x="1316.7339334565174" y="1001.950248756219" type="qcurve" smooth="yes"/>
      <point x="1316.7339334565174" y="779.356860557028"/>
      <point x="1073.8094603158831" y="541.9004975124378"/>
      <point x="850.7427244777266" y="544.1990049751244" type="qcurve" smooth="yes"/>
      <point x="347.35647431769587" y="544.1990049751244" type="line"/>
      <point x="347.35647431769587" y="815.1243781094528" type="line"/>
      <point x="714.2105262956757" y="815.1243781094528" type="line" smooth="yes"/>
      <point x="815.8981157456858" y="815.1243781094528"/>
      <point x="891.9395409331528" y="902.764329039733"/>
      <point x="891.9395409331528" y="1001.950248756219" type="qcurve" smooth="yes"/>
      <point x="891.9395409331528" y="1101.136168472705"/>
      <point x="815.8981157456858" y="1185.0746268656717"/>
      <point x="715.151165565082" y="1185.0746268656717" type="qcurve" smooth="yes"/>
      <point x="558.6929229158267" y="1185.0746268656717" type="line"/>
      <point x="558.6929229158267" y="0.0" type="line"/>
    </contour>
    <contour>
      <point x="951.764488656449" y="0.0" type="line"/>
      <point x="708.6412009852161" y="672.0" type="line"/>
      <point x="1125.978929829154" y="701.0" type="line"/>
      <point x="1393.1022175003868" y="0.0" type="line"/>
    </contour>
  </outline>
</glyph>
<glyph name="S" format="2">
  <advance width="1376.4255110314514"/>
  <unicode hex="0053"/>
  <anchor x="839.0654205607476" y="0.0" name="bottom"/>
  <anchor x="839.0654205607476" y="1456.0" name="top"/>
  <outline>
    <contour>
      <point x="91.59813084112149" y="426.5343038997816" type="qcurve" smooth="yes"/>
      <point x="90.0" y="471.29353233830847" type="line"/>
      <point x="494.01869158878503" y="471.29353233830847" type="line"/>
      <point x="495.6168224299065" y="417.59823084042085" type="line" smooth="yes"/>
      <point x="502.0093457943925" y="338.11871063323764"/>
      <point x="577.5280230520679" y="275.7412935323383"/>
      <point x="715.3986685443606" y="275.7412935323383" type="qcurve" smooth="yes"/>
      <point x="804.3130207367974" y="275.7412935323383"/>
      <point x="875.4021780739115" y="327.0209896618559"/>
      <point x="875.4021780739115" y="396.3037946867888" type="qcurve" smooth="yes"/>
      <point x="875.4021780739115" y="434.1793700808466"/>
      <point x="802.5277663659681" y="505.0562289054026"/>
      <point x="610.629539538258" y="561.0032432893782" type="qcurve" smooth="yes"/>
      <point x="332.08470068044113" y="634.841301111903"/>
      <point x="112.35010455340759" y="883.3197200529169"/>
      <point x="112.35010455340759" y="1071.0479665429095" type="qcurve" smooth="yes"/>
      <point x="112.35010455340759" y="1272.5114581999744"/>
      <point x="418.1537575214441" y="1486.0"/>
      <point x="687.5072760636708" y="1486.0" type="qcurve" smooth="yes"/>
      <point x="961.4578095312709" y="1486.0"/>
      <point x="1260.6556138778647" y="1253.1635313383154"/>
      <point x="1269.178978363846" y="1054.468149586213" type="qcurve" smooth="yes"/>
      <point x="1270.7771092049675" y="996.0696517412936" type="line"/>
      <point x="866.288097981479" y="996.0696517412936" type="line"/>
      <point x="864.6899671403576" y="1041.8567545068154" type="line" smooth="yes"/>
      <point x="858.8301540562454" y="1126.5500006050913"/>
      <point x="778.9547646481458" y="1180.6417910447763"/>
      <point x="667.139504118124" y="1180.6417910447763" type="qcurve" smooth="yes"/>
      <point x="623.7340171501983" y="1180.6417910447763"/>
      <point x="569.4209339934561" y="1142.545677705443"/>
      <point x="569.4209339934561" y="1083.2497759569837" type="qcurve" smooth="yes"/>
      <point x="569.4209339934561" y="1032.547782149297"/>
      <point x="656.5011907559883" y="973.07055810437"/>
      <point x="817.1667733538172" y="918.2225493961507" type="qcurve" smooth="yes"/>
      <point x="1068.8991089871345" y="848.9860243017405"/>
      <point x="1296.4255110314514" y="606.6481884521828"/>
      <point x="1296.4255110314514" y="412.70652498613066" type="qcurve" smooth="yes"/>
      <point x="1296.4255110314514" y="214.06166517304658"/>
      <point x="987.7645627960569" y="-29.529680365296805"/>
      <point x="708.6941919515214" y="-29.529680365296805" type="qcurve" smooth="yes"/>
      <point x="421.9962739114566" y="-29.529680365296805"/>
      <point x="101.18691588785046" y="206.85185708889938"/>
    </contour>
  </outline>
</glyph>
<glyph name="T" format="2">
  <advance width="1111.269235693253"/>
  <unicode hex="0054"/>
  <anchor x="705.196261682243" y="0.0" name="bottom"/>
  <anchor x="705.196261682243" y="728.0" name="center"/>
  <anchor x="705.196261682243" y="1456.0" name="top"/>
  <anchor x="820.2616822429907" y="0.0" name="cy_descender"/>
  <outline>
    <contour>
      <point x="342.43835616438355" y="0.0" type="line"/>
      <point x="342.43835616438355" y="1378.0" type="line"/>
      <point x="768.8308795288694" y="1378.0" type="line"/>
      <point x="768.8308795288694" y="0.0" type="line"/>
    </contour>
    <contour>
      <point x="24.0" y="1144.0" type="line"/>
      <point x="24.0" y="1456.0" type="line"/>
      <point x="1087.269235693253" y="1456.0" type="line"/>
      <point x="1087.269235693253" y="1144.0" type="line"/>
    </contour>
  </outline>
</glyph>
<glyph name="U" format="2">
  <advance width="1409.3221193991635"/>
  <unicode hex="0055"/>
  <anchor x="780.8504672897196" y="0.0" name="bottom"/>
  <anchor x="1031.1214953271028" y="0.0" name="ogonek"/>
  <anchor x="857.0280373831777" y="1456.0" name="top"/>
  <anchor x="1529.5022550797414" y="1456.0" name="topright"/>
  <outline>
    <contour>
      <point x="126.0" y="550.4605528241522" type="qcurve" smooth="yes"/>
      <point x="126.0" y="1456.0" type="line"/>
      <point x="546.0" y="1456.0" type="line"/>
      <point x="546.0" y="516.3421931438697" type="line" smooth="yes"/>
      <point x="546.0" y="407.77209841204933"/>
      <point x="648.3050813019781" y="297.19402985074623"/>
      <point x="745.1400162164468" y="297.19402985074623" type="qcurve" smooth="yes"/>
      <point x="841.9749511309157" y="297.19402985074623"/>
      <point x="944.2176417872231" y="407.77209841204933"/>
      <point x="944.2176417872231" y="516.3421931438697" type="qcurve" smooth="yes"/>
      <point x="944.2176417872231" y="1456.0" type="line"/>
      <point x="1300.1778407921984" y="1456.0" type="line"/>
      <point x="1300.1778407921984" y="469.8706053651854" type="line" smooth="yes"/>
      <point x="1300.1778407921984" y="233.71000776427684"/>
      <point x="1003.0189985930034" y="-30.0"/>
      <point x="718.2288321546791" y="-30.0" type="qcurve" smooth="yes"/>
      <point x="435.51198303706155" y="-30.0"/>
      <point x="126.0" y="251.30748765454513"/>
    </contour>
  </outline>
</glyph>
<glyph name="V" format="2">
  <advance width="1359.4593521956217"/>
  <unicode hex="0056"/>
  <anchor x="748.9531430034567" y="0.0" name="bottom"/>
  <anchor x="860.8223018819613" y="1456.0" name="top"/>
  <outline>
    <contour>
      <point x="0.0" y="1456.0" type="line"/>
      <point x="465.02803738317755" y="1456.0" type="line"/>
      <point x="688.2014680151923" y="561.4969914223531" type="line" smooth="yes"/>
      <point x="694.4952417530832" y="534.3568045064652"/>
      <point x="706.3247556864252" y="487.6184867494559"/>
      <point x="709.9016771220074" y="456.0203559083344" type="qcurve"/>
      <point x="715.0767293987112" y="456.0203559083344" type="line"/>
      <point x="718.6536508342936" y="487.6184867494559"/>
      <point x="731.5455554133059" y="534.3568045064652"/>
      <point x="737.839329151197" y="561.4969914223531" type="qcurve" smooth="yes"/>
      <point x="972.1251653650835" y="1456.0" type="line"/>
      <point x="1359.4593521956217" y="1456.0" type="line"/>
      <point x="916.9714078436392" y="-10.0" type="line"/>
      <point x="448.7844919557889" y="-10.0" type="line"/>
    </contour>
  </outline>
</glyph>
<glyph name="W" format="2">
  <advance width="1845.9169973968337"/>
  <unicode hex="0057"/>
  <anchor x="1624.0732319709862" y="0.0" name="bottom"/>
  <anchor x="1730.6152880457525" y="1456.0" name="top"/>
  <outline>
    <contour>
      <point x="311.58447488584477" y="-10.0" type="line"/>
      <point x="50.0" y="1456.0" type="line"/>
      <point x="509.4205607476635" y="1456.0" type="line"/>
      <point x="627.1995049716212" y="570.3084112149533" type="line" smooth="yes"/>
      <point x="632.377587163402" y="535.2429906542056"/>
      <point x="636.3684974181709" y="495.30841121495325"/>
      <point x="638.4248282336875" y="461.2429906542056" type="qcurve"/>
      <point x="645.007809499424" y="461.2429906542056" type="line"/>
      <point x="647.0641403149405" y="495.30841121495325"/>
      <point x="649.927239363291" y="535.7757009345794"/>
      <point x="655.6350019203686" y="570.3084112149533" type="qcurve" smooth="yes"/>
      <point x="751.5799940255197" y="1455.4672897196263" type="line"/>
      <point x="1092.0753211283234" y="1455.4672897196263" type="line"/>
      <point x="1222.6641061750524" y="571.9065420560747" type="line" smooth="yes"/>
      <point x="1228.37186873213" y="537.3738317757009"/>
      <point x="1231.7676780608545" y="495.30841121495325"/>
      <point x="1234.2943285110741" y="461.2429906542056" type="qcurve"/>
      <point x="1239.939700422481" y="461.2429906542056" type="line"/>
      <point x="1242.4663508727008" y="495.30841121495325"/>
      <point x="1247.3324798361286" y="537.9065420560747"/>
      <point x="1251.569922758503" y="571.9065420560747" type="qcurve" smooth="yes"/>
      <point x="1335.832885247301" y="1456.0" type="line"/>
      <point x="1795.9169973968337" y="1456.0" type="line"/>
      <point x="1554.085947168523" y="-10.0" type="line"/>
      <point x="1058.5812742713267" y="-10.0" type="line"/>
      <point x="950.8702257500106" y="878.6802799470831" type="line" smooth="yes"/>
      <point x="946.2278837536808" y="913.7457005078309"/>
      <point x="935.4547006358554" y="968.8858874237187"/>
      <point x="932.0528314769768" y="1002.9513079844664" type="qcurve"/>
      <point x="924.0528314769768" y="1002.9513079844664" type="line"/>
      <point x="920.6509623180983" y="968.8858874237187"/>
      <point x="912.3541586651303" y="914.216020142534"/>
      <point x="907.6494260231299" y="878.6802799470831" type="qcurve" smooth="yes"/>
      <point x="798.5657832970597" y="-10.0" type="line"/>
    </contour>
  </outline>
</glyph>
<glyph name="X" format="2">
  <advance width="1227.1396321427046"/>
  <unicode hex="0058"/>
  <anchor x="754.8408654461657" y="0.0" name="bottom"/>
  <anchor x="754.8408654461657" y="1456.0" name="top"/>
  <anchor x="1246.3175009601841" y="0.0" name="cy_descender"/>
  <outline>
    <contour>
      <point x="22.0" y="0.0" type="line"/>
      <point x="364.4133486962831" y="821.4485981308412" type="line"/>
      <point x="568.3989672683822" y="821.4485981308412" type="line"/>
      <point x="795.709426876627" y="1456.0" type="line"/>
      <point x="1182.4912303162207" y="1456.0" type="line"/>
      <point x="869.5555413306022" y="662.0093457943925" type="line"/>
      <point x="655.4484274314002" y="662.0093457943925" type="line"/>
      <point x="412.0116502368455" y="0.0" type="line"/>
    </contour>
    <contour>
      <point x="42.392779413647425" y="1456.0" type="line"/>
      <point x="546.9250202705585" y="1456.0" type="line"/>
      <point x="829.1670294029786" y="806.0" type="line"/>
      <point x="834.4638330559467" y="806.0" type="line"/>
      <point x="1205.1396321427048" y="0.0" type="line"/>
      <point x="699.541970725046" y="0.0" type="line"/>
      <point x="399.8874663935476" y="670.0" type="line"/>
      <point x="394.5906627405796" y="670.0" type="line"/>
    </contour>
  </outline>
</glyph>
<glyph name="Y" format="2">
  <advance width="1180.2007425425682"/>
  <unicode hex="0059"/>
  <anchor x="716.8130841121496" y="0.0" name="bottom"/>
  <anchor x="849.4579439252336" y="1456.0" name="top"/>
  <anchor x="-175.0" y="1074.0" name="tonos"/>
  <outline>
    <contour>
      <point x="376.9041095890411" y="0.0" type="line"/>
      <point x="376.9041095890411" y="544.0" type="line"/>
      <point x="15.0" y="1456.0" type="line"/>
      <point x="465.39252336448595" y="1456.0" type="line"/>
      <point x="590.890923057227" y="1000.8785046728972" type="line" smooth="yes"/>
      <point x="597.5181154781717" y="977.803738317757"/>
      <point x="613.7007638799982" y="920.8785046728972"/>
      <point x="622.411556352153" y="893.8785046728972" type="qcurve"/>
      <point x="628.411556352153" y="893.8785046728972" type="line"/>
      <point x="636.5896385439337" y="920.8785046728972"/>
      <point x="653.2426065804634" y="973.258908377075"/>
      <point x="661.938249477233" y="1000.8785046728972" type="qcurve" smooth="yes"/>
      <point x="785.1353219818207" y="1456.0" type="line"/>
      <point x="1165.2007425425682" y="1456.0" type="line"/>
      <point x="803.296632953527" y="544.0" type="line"/>
      <point x="803.296632953527" y="0.0" type="line"/>
    </contour>
  </outline>
</glyph>
<glyph name="Z" format="2">
  <advance width="1260.5440617931977"/>
  <unicode hex="005A"/>
  <anchor x="775.588785046729" y="0.0" name="bottom"/>
  <anchor x="775.588785046729" y="1456.0" name="top"/>
  <outline>
    <contour>
      <point x="65.0" y="0.0" type="line"/>
      <point x="65.0" y="254.92537313432837" type="line"/>
      <point x="597.8386807480966" y="1144.766169154229" type="line"/>
      <point x="77.0" y="1144.766169154229" type="line"/>
      <point x="77.0" y="1456.0" type="line"/>
      <point x="1160.6675628387318" y="1456.0" type="line"/>
      <point x="1160.6675628387318" y="1201.0746268656717" type="line"/>
      <point x="631.7913129271068" y="308.16915422885575" type="line"/>
      <point x="1194.5440617931977" y="308.16915422885575" type="line"/>
      <point x="1194.5440617931977" y="0.0" type="line"/>
    </contour>
  </outline>
</glyph>
<glyph name="bracketleft" format="2">
  <advance width="778.2201852088933"/>
  <unicode hex="005B"/>
  <outline>
    <contour>
      <point x="117.2" y="-310.0" type="line"/>
      <point x="117.2" y="1456.0" type="line"/>
      <point x="712.2201852088934" y="1456.0" type="line"/>
      <point x="712.2201852088934" y="1142.766169154229" type="line"/>
      <point x="515.2841121495327" y="1142.766169154229" type="line"/>
      <point x="515.2841121495327" y="3.2338308457711236" type="line"/>
      <point x="712.2201852088934" y="3.2338308457711236" type="line"/>
      <point x="712.2201852088934" y="-310.0" type="line"/>
    </contour>
  </outline>
</glyph>
<glyph name="backslash" format="2">
  <advance width="503.61384856539223"/>
  <unicode hex="005C"/>
  <outline>
    <contour>
      <point x="-130.64676616915423" y="1456.0" type="line"/>
      <point x="240.72636815920396" y="1456.0" type="line"/>
      <point x="634.2606147345464" y="-125.0" type="line"/>
      <point x="262.8874804061883" y="-125.0" type="line"/>
    </contour>
  </outline>
</glyph>
<glyph name="bracketright" format="2">
  <advance width="778.2201852088933"/>
  <unicode hex="005D"/>
  <outline>
    <contour>
      <point x="661.0201852088935" y="-310.0" type="line"/>
      <point x="66.0" y="-310.0" type="line"/>
      <point x="66.0" y="3.2338308457711236" type="line"/>
      <point x="262.93607305936075" y="3.2338308457711236" type="line"/>
      <point x="262.93607305936075" y="1142.766169154229" type="line"/>
      <point x="66.0" y="1142.766169154229" type="line"/>
      <point x="66.0" y="1456.0" type="line"/>
      <point x="661.0201852088935" y="1456.0" type="line"/>
    </contour>
  </outline>
</glyph>
<glyph name="asciicircum" format="2">
  <advance width="1270.89279629251"/>
  <unicode hex="005E"/>
  <outline>
    <contour>
      <point x="25.0" y="720.0" type="line"/>
      <point x="358.9041095890411" y="1456.0" type="line"/>
      <point x="911.9886867034689" y="1456.0" type="line"/>
      <point x="1245.89279629251" y="720.0" type="line"/>
      <point x="866.5788182375793" y="720.0" type="line"/>
      <point x="635.446398146255" y="1290.0" type="line"/>
      <point x="404.31397805493077" y="720.0" type="line"/>
    </contour>
  </outline>
</glyph>
<glyph name="underscore" format="2">
  <advance width="739.2237442922376"/>
  <unicode hex="005F"/>
  <outline>
    <contour>
      <point x="2.0" y="-569.2338308457711" type="line"/>
      <point x="2.0" y="-244.00000000000003" type="line"/>
      <point x="737.2237442922376" y="-244.00000000000003" type="line"/>
      <point x="737.2237442922376" y="-569.2338308457711" type="line"/>
    </contour>
  </outline>
</glyph>
<glyph name="a" format="2">
  <advance width="1307.5233644859813"/>
  <unicode hex="0061"/>
  <anchor x="669.1308411214953" y="0.0" name="bottom"/>
  <anchor x="1376.5233644859813" y="0.0" name="ogonek"/>
  <anchor x="751.7009345794393" y="1052.0" name="top"/>
  <outline>
    <contour>
      <point x="451.2864336619297" y="-20.0" type="qcurve" smooth="yes"/>
      <point x="277.27597832117095" y="-20.0"/>
      <point x="90.0" y="150.0"/>
      <point x="90.0" y="310.0" type="qcurve" smooth="yes"/>
      <point x="90.0" y="470.0"/>
      <point x="324.03072589937267" y="648.0"/>
      <point x="544.2811846541202" y="648.0" type="qcurve" smooth="yes"/>
      <point x="834.895745316434" y="648.0" type="line"/>
      <point x="834.895745316434" y="453.94029850746267" type="line"/>
      <point x="647.7678914351554" y="453.94029850746267" type="line" smooth="yes"/>
      <point x="562.7952886954295" y="453.94029850746267"/>
      <point x="475.23364485981307" y="381.6517412935323"/>
      <point x="475.23364485981307" y="320.76616915422886" type="qcurve" smooth="yes"/>
      <point x="475.23364485981307" y="259.49751243781094"/>
      <point x="538.315836640635" y="190.0597014925373"/>
      <point x="605.516749882644" y="190.0597014925373" type="qcurve" smooth="yes"/>
      <point x="672.24734348995" y="190.0597014925373"/>
      <point x="780.1697179191738" y="251.0791930757173"/>
      <point x="780.1697179191738" y="327.6929734887208" type="qcurve"/>
      <point x="780.1697179191738" y="681.3869902822337" type="line" smooth="yes"/>
      <point x="780.5558324113653" y="776.2723764355791"/>
      <point x="723.5237014262956" y="851.636815920398"/>
      <point x="649.8075363803184" y="851.636815920398" type="qcurve" smooth="yes"/>
      <point x="580.2692204067358" y="851.636815920398"/>
      <point x="524.0677250032006" y="783.7539017242555"/>
      <point x="524.0677250032006" y="735.139303482587" type="qcurve" smooth="yes"/>
      <point x="524.0677250032006" y="724.8122006788487" type="line"/>
      <point x="151.02099603123798" y="724.8122006788487" type="line"/>
      <point x="151.02099603123798" y="735.139303482587" type="line" smooth="yes"/>
      <point x="151.02099603123798" y="886.5721393034826"/>
      <point x="391.7234076703921" y="1082.0"/>
      <point x="651.0785644177015" y="1082.0" type="qcurve" smooth="yes"/>
      <point x="930.6586711812846" y="1082.0"/>
      <point x="1174.459437545342" y="875.8603710419864"/>
      <point x="1174.459437545342" y="658.2056074766356" type="qcurve" smooth="yes"/>
      <point x="1174.459437545342" y="240.0" type="line" smooth="yes"/>
      <point x="1174.459437545342" y="175.0"/>
      <point x="1189.285921563607" y="60.0"/>
      <point x="1203.5233644859813" y="16.0" type="qcurve"/>
      <point x="1203.5233644859813" y="0.0" type="line"/>
      <point x="816.6446037639226" y="0.0" type="line"/>
      <point x="806.4071608415481" y="25.0"/>
      <point x="789.5213160926897" y="105.0"/>
      <point x="786.3965348013485" y="145.0" type="qcurve"/>
      <point x="745.7971237144197" y="66.8310502283105"/>
      <point x="583.3021806853583" y="-20.0"/>
    </contour>
  </outline>
</glyph>
<glyph name="b" format="2">
  <advance width="1421.185422267742"/>
  <unicode hex="0062"/>
  <anchor x="920.607476635514" y="0.0" name="bottom"/>
  <anchor x="595.6542056074767" y="1535.4672897196263" name="top"/>
  <outline>
    <contour>
      <point x="148.0" y="0.0" type="line"/>
      <point x="148.0" y="1536.0" type="line"/>
      <point x="547.0841121495328" y="1536.0" type="line"/>
      <point x="547.0841121495328" y="137.0" type="line"/>
      <point x="537.0841121495328" y="137.0" type="line"/>
      <point x="529.0841121495328" y="0.0" type="line"/>
    </contour>
    <contour>
      <point x="706.148039090172" y="270.2935323383084" type="qcurve" smooth="yes"/>
      <point x="803.0019203687109" y="270.2935323383084"/>
      <point x="893.148039090172" y="374.9916854085736"/>
      <point x="893.148039090172" y="451.4869488175561" type="qcurve" smooth="yes"/>
      <point x="893.148039090172" y="599.3637974511006" type="line" smooth="yes"/>
      <point x="893.148039090172" y="677.0083145914265"/>
      <point x="803.0019203687109" y="781.7064676616916"/>
      <point x="706.148039090172" y="781.7064676616916" type="qcurve" smooth="yes"/>
      <point x="615.4722400034141" y="781.7064676616916"/>
      <point x="504.0841121495327" y="675.0109725345874"/>
      <point x="504.0841121495327" y="603.0374156614189" type="qcurve" smooth="yes"/>
      <point x="504.0841121495327" y="457.1579090847134" type="line" smooth="yes"/>
      <point x="504.0841121495327" y="374.2281741975056"/>
      <point x="618.5909614646013" y="270.2935323383084"/>
    </contour>
    <contour>
      <point x="842.2278410788205" y="-20.0" type="qcurve" smooth="yes"/>
      <point x="640.1380531728759" y="-20.0"/>
      <point x="400.3271028037383" y="228.3150684931507"/>
      <point x="400.3271028037383" y="450.3926940639269" type="qcurve" smooth="yes"/>
      <point x="400.3271028037383" y="620.7853881278538" type="line" smooth="yes"/>
      <point x="400.3271028037383" y="809.1184488516323"/>
      <point x="624.4889303323353" y="1072.0"/>
      <point x="842.2278410788205" y="1072.0" type="qcurve" smooth="yes"/>
      <point x="1052.0375112021509" y="1072.0"/>
      <point x="1304.2228054453121" y="811.070114795374"/>
      <point x="1304.2228054453121" y="610.3259079076516" type="qcurve" smooth="yes"/>
      <point x="1304.2228054453121" y="439.0105406904793" type="line" smooth="yes"/>
      <point x="1304.2228054453121" y="239.33175436350447"/>
      <point x="1052.0375112021509" y="-20.0"/>
    </contour>
  </outline>
</glyph>
<glyph name="c" format="2">
  <advance width="1273.5595100926043"/>
  <unicode hex="0063"/>
  <anchor x="791.5420560747664" y="0.0" name="bottom"/>
  <anchor x="791.5420560747664" y="1052.0" name="top"/>
  <outline>
    <contour>
      <point x="85.0" y="423.93150684931504" type="qcurve" smooth="yes"/>
      <point x="85.0" y="628.068493150685" type="line" smooth="yes"/>
      <point x="85.0" y="827.972602739726"/>
      <point x="402.71826057269664" y="1082.0"/>
      <point x="680.0427175351001" y="1082.0" type="qcurve" smooth="yes"/>
      <point x="936.0800886108442" y="1082.0"/>
      <point x="1204.5595100926043" y="854.275471955292"/>
      <point x="1204.5595100926043" y="680.8294827233694" type="qcurve" smooth="yes"/>
      <point x="1204.5595100926043" y="639.9316036639234" type="line"/>
      <point x="822.7247044765929" y="639.9316036639234" type="line"/>
      <point x="822.7247044765929" y="673.7746882028215" type="line" smooth="yes"/>
      <point x="822.7247044765929" y="719.8707830709467"/>
      <point x="756.3536828722857" y="788.2587064676617"/>
      <point x="673.0215081295609" y="788.2587064676617" type="qcurve" smooth="yes"/>
      <point x="581.6927410062732" y="788.2587064676617"/>
      <point x="494.6014168053599" y="702.375042595243"/>
      <point x="494.6014168053599" y="640.1943706126899" type="qcurve" smooth="yes"/>
      <point x="494.6014168053599" y="411.80562938731003" type="line" smooth="yes"/>
      <point x="494.6014168053599" y="349.6249574047571"/>
      <point x="581.6927410062732" y="263.35820895522386"/>
      <point x="673.0215081295609" y="263.35820895522386" type="qcurve" smooth="yes"/>
      <point x="756.3536828722857" y="263.35820895522386"/>
      <point x="822.7247044765929" y="329.08258095006977"/>
      <point x="822.7247044765929" y="375.7113860985687" type="qcurve" smooth="yes"/>
      <point x="822.7247044765929" y="411.6853117589622" type="line"/>
      <point x="1204.5595100926043" y="411.6853117589622" type="line"/>
      <point x="1204.5595100926043" y="370.7874326995161" type="line" smooth="yes"/>
      <point x="1204.5595100926043" y="197.34144346759354"/>
      <point x="940.312965323173" y="-30.0"/>
      <point x="680.5130371698033" y="-30.0" type="qcurve" smooth="yes"/>
      <point x="402.71826057269664" y="-30.0"/>
      <point x="85.0" y="224.02739726027397"/>
    </contour>
  </outline>
</glyph>
<glyph name="d" format="2">
  <advance width="1389.2228054453121"/>
  <unicode hex="0064"/>
  <anchor x="683.5514018691589" y="0.0" name="bottom"/>
  <anchor x="1002.8411214953271" y="1313.0" name="center"/>
  <anchor x="683.5514018691589" y="1536.0" name="top"/>
  <anchor x="1557.2242990654204" y="1052.0" name="topright"/>
  <outline>
    <contour>
      <point x="842.1386932957794" y="1536.0" type="line"/>
      <point x="1241.2228054453121" y="1536.0" type="line"/>
      <point x="1241.2228054453121" y="0.0" type="line"/>
      <point x="860.1386932957794" y="0.0" type="line"/>
      <point x="852.1386932957794" y="137.0" type="line"/>
      <point x="842.1386932957794" y="137.0" type="line"/>
    </contour>
    <contour>
      <point x="683.0747663551401" y="781.7064676616916" type="qcurve" smooth="yes"/>
      <point x="586.2208850766013" y="781.7064676616916"/>
      <point x="496.0747663551401" y="677.0083145914265"/>
      <point x="496.0747663551401" y="599.3637974511006" type="qcurve" smooth="yes"/>
      <point x="496.0747663551401" y="451.4869488175561" type="line" smooth="yes"/>
      <point x="496.0747663551401" y="374.9916854085736"/>
      <point x="586.2208850766013" y="270.2935323383084"/>
      <point x="683.0747663551401" y="270.2935323383084" type="qcurve" smooth="yes"/>
      <point x="771.8351425563259" y="270.2935323383084"/>
      <point x="885.1386932957794" y="376.9890274654126"/>
      <point x="885.1386932957794" y="449.3456689156955" type="qcurve" smooth="yes"/>
      <point x="885.1386932957794" y="595.225175492401" type="line" smooth="yes"/>
      <point x="885.1386932957794" y="677.7718258024943"/>
      <point x="772.5472668662832" y="781.7064676616916"/>
    </contour>
    <contour>
      <point x="547.0573550121624" y="1072.0" type="qcurve" smooth="yes"/>
      <point x="764.1165877181752" y="1072.0"/>
      <point x="987.8926727264968" y="817.3881278538813"/>
      <point x="987.8926727264968" y="606.7214611872146" type="qcurve" smooth="yes"/>
      <point x="987.8926727264968" y="431.6301369863014" type="line" smooth="yes"/>
      <point x="987.8926727264968" y="239.67123287671234"/>
      <point x="756.3343148551189" y="-20.0"/>
      <point x="547.0573550121624" y="-20.0" type="qcurve" smooth="yes"/>
      <point x="336.7149746084582" y="-20.0"/>
      <point x="85.0" y="238.1415525114155"/>
      <point x="85.0" y="435.68949771689495" type="qcurve" smooth="yes"/>
      <point x="85.0" y="616.310502283105" type="line" smooth="yes"/>
      <point x="85.0" y="813.8584474885845"/>
      <point x="336.7149746084582" y="1072.0"/>
    </contour>
  </outline>
</glyph>
<glyph name="e" format="2">
  <advance width="1285.1864037895277"/>
  <unicode hex="0065"/>
  <anchor x="807.2616822429907" y="0.0" name="bottom"/>
  <anchor x="1074.5607476635514" y="0.0" name="ogonek"/>
  <anchor x="766.6074766355141" y="1052.0" name="top"/>
  <outline>
    <contour>
      <point x="70.0" y="432.862800324329" type="qcurve" smooth="yes"/>
      <point x="70.0" y="625.8128707378484" type="line" smooth="yes"/>
      <point x="70.0" y="837.7245337771519"/>
      <point x="393.19766995263086" y="1082.0"/>
      <point x="662.7261980967013" y="1082.0" type="qcurve" smooth="yes"/>
      <point x="929.8407374215851" y="1082.0"/>
      <point x="1219.1864037895277" y="839.2109997955429"/>
      <point x="1219.1864037895277" y="624.3503032781299" type="qcurve" smooth="yes"/>
      <point x="1219.1864037895277" y="407.0" type="line"/>
      <point x="400.2803738317757" y="407.0" type="line"/>
      <point x="400.2803738317757" y="610.9303482587065" type="line"/>
      <point x="819.5726112746981" y="610.9303482587065" type="line"/>
      <point x="819.5726112746981" y="678.3248824371295" type="line" smooth="yes"/>
      <point x="819.5726112746981" y="731.6155523751108"/>
      <point x="740.8374514573464" y="801.6666666666667"/>
      <point x="660.2255793112278" y="801.6666666666667" type="qcurve" smooth="yes"/>
      <point x="565.8420176673922" y="801.6666666666667"/>
      <point x="476.2803738317757" y="713.4844953315614"/>
      <point x="476.2803738317757" y="640.8733047093301" type="qcurve" smooth="yes"/>
      <point x="476.2803738317757" y="412.06733456007635" type="line" smooth="yes"/>
      <point x="476.2803738317757" y="334.2826279561099"/>
      <point x="627.4873895787991" y="257.9950248756219"/>
      <point x="763.0967865830239" y="257.9950248756219" type="qcurve" smooth="yes"/>
      <point x="880.8773925787782" y="257.9950248756219"/>
      <point x="1006.90668982574" y="339.58502010495465"/>
      <point x="1050.044098417145" y="399.48258706467664" type="qcurve"/>
      <point x="1208.3356804506466" y="175.0" type="line"/>
      <point x="1148.6604788119319" y="95.76712328767124"/>
      <point x="886.8548628003243" y="-30.0"/>
      <point x="691.9967567106219" y="-30.0" type="qcurve" smooth="yes"/>
      <point x="391.7867110485213" y="-30.0"/>
      <point x="70.0" y="216.0943541159903"/>
    </contour>
  </outline>
</glyph>
<glyph name="f" format="2">
  <advance width="764.4204327230827"/>
  <unicode hex="0066"/>
  <anchor x="392.4324670336705" y="0.0" name="bottom"/>
  <anchor x="445.7034950710536" y="1536.0" name="top"/>
  <outline>
    <contour>
      <point x="181.8904109589041" y="0.0" type="line"/>
      <point x="181.8904109589041" y="1138.2056074766356" type="line" smooth="yes"/>
      <point x="181.8904109589041" y="1342.570093457944"/>
      <point x="420.1703153672172" y="1556.0"/>
      <point x="654.5744889685486" y="1556.0" type="qcurve" smooth="yes"/>
      <point x="718.8490590193317" y="1556.0"/>
      <point x="812.7035804207741" y="1545.8691588785048"/>
      <point x="842.4204327230827" y="1538.9345794392523" type="qcurve"/>
      <point x="834.3017112618955" y="1274.009206304924" type="line"/>
      <point x="814.6533094354115" y="1278.009206304924"/>
      <point x="770.7674646865531" y="1285.0746268656717"/>
      <point x="748.0597021294755" y="1285.0746268656717" type="qcurve" smooth="yes"/>
      <point x="669.3473733623522" y="1285.0746268656717"/>
      <point x="583.1053642299321" y="1185.8407960199006"/>
      <point x="583.1053642299321" y="1085.0746268656717" type="qcurve" smooth="yes"/>
      <point x="583.1053642299321" y="882.4378109452737" type="line"/>
      <point x="583.1053642299321" y="970.0" type="line"/>
      <point x="583.1053642299321" y="0.0" type="line"/>
    </contour>
    <contour>
      <point x="25.0" y="756.7661691542289" type="line"/>
      <point x="25.0" y="1052.0" type="line"/>
      <point x="251.8904109589041" y="1052.0" type="line"/>
      <point x="510.97452310843687" y="1052.0" type="line"/>
      <point x="783.3565057824435" y="1052.0" type="line"/>
      <point x="783.3565057824435" y="756.7661691542289" type="line"/>
    </contour>
  </outline>
</glyph>
<glyph name="g" format="2">
  <advance width="1363.652711987368"/>
  <unicode hex="0067"/>
  <anchor x="752.803738317757" y="-416.0" name="bottom"/>
  <anchor x="795.9532710280373" y="1052.0" name="top"/>
  <outline>
    <contour>
      <point x="581.6173345282294" y="-436.0" type="qcurve" smooth="yes"/>
      <point x="427.05983015405627" y="-436.0"/>
      <point x="193.71313958946786" y="-344.82648401826486"/>
      <point x="115.84619980369564" y="-284.0" type="qcurve"/>
      <point x="239.11157119281327" y="-75.42786069651741" type="line"/>
      <point x="292.62013769330275" y="-127.96019900497512"/>
      <point x="450.8310890815415" y="-199.681592039801"/>
      <point x="541.7032390218923" y="-199.681592039801" type="qcurve" smooth="yes"/>
      <point x="683.9964872857578" y="-199.681592039801"/>
      <point x="842.1386932957794" y="-67.06853582554518"/>
      <point x="842.1386932957794" y="80.11879853071092" type="qcurve" smooth="yes"/>
      <point x="842.1386932957794" y="915.0" type="line"/>
      <point x="848.3761362181539" y="915.0" type="line"/>
      <point x="853.5542184099347" y="1052.0" type="line"/>
      <point x="1241.2228054453121" y="1052.0" type="line"/>
      <point x="1241.2228054453121" y="86.05607476635514" type="line" smooth="yes"/>
      <point x="1241.2228054453121" y="-195.20560747663552"/>
      <point x="871.308027141211" y="-436.0"/>
    </contour>
    <contour>
      <point x="679.9016452750968" y="270.2935323383084" type="qcurve" smooth="yes"/>
      <point x="767.5878831422199" y="270.2935323383084"/>
      <point x="878.960861420716" y="376.9890274654126"/>
      <point x="878.960861420716" y="449.3456689156955" type="qcurve" smooth="yes"/>
      <point x="878.960861420716" y="594.7548558576979" type="line" smooth="yes"/>
      <point x="878.960861420716" y="677.7718258024943"/>
      <point x="768.6861219443684" y="781.7064676616916"/>
      <point x="679.9016452750968" y="781.7064676616916" type="qcurve" smooth="yes"/>
      <point x="584.5922219653238" y="781.7064676616916"/>
      <point x="496.0747663551401" y="677.0083145914265"/>
      <point x="496.0747663551401" y="598.8934778163974" type="qcurve" smooth="yes"/>
      <point x="496.0747663551401" y="451.95726845225926" type="line" smooth="yes"/>
      <point x="496.0747663551401" y="374.9916854085736"/>
      <point x="584.5922219653238" y="270.2935323383084"/>
    </contour>
    <contour>
      <point x="545.0338596353782" y="-20.0" type="qcurve" smooth="yes"/>
      <point x="336.8528526233256" y="-20.0"/>
      <point x="85.0" y="237.67123287671234"/>
      <point x="85.0" y="435.68949771689495" type="qcurve" smooth="yes"/>
      <point x="85.0" y="616.310502283105" type="line" smooth="yes"/>
      <point x="85.0" y="814.3287671232877"/>
      <point x="336.8528526233256" y="1072.0"/>
      <point x="545.0338596353782" y="1072.0" type="qcurve" smooth="yes"/>
      <point x="753.3802470173777" y="1072.0"/>
      <point x="982.2475511318072" y="811.7990867579908"/>
      <point x="982.2475511318072" y="607.1917808219177" type="qcurve" smooth="yes"/>
      <point x="982.2475511318072" y="430.68949771689495" type="line" smooth="yes"/>
      <point x="982.2475511318072" y="239.20091324200914"/>
      <point x="751.8475367370038" y="-20.0"/>
    </contour>
  </outline>
</glyph>
<glyph name="h" format="2">
  <advance width="1372.2778133401614"/>
  <unicode hex="0068"/>
  <anchor x="779.9532710280373" y="0.0" name="bottom"/>
  <anchor x="426.5420560747664" y="1327.0" name="center"/>
  <anchor x="335.626168224299" y="1536.0" name="top"/>
  <anchor x="1226.626168224299" y="0.0" name="engtail"/>
  <outline>
    <contour>
      <point x="547.0841121495328" y="0.0" type="line"/>
      <point x="148.0" y="0.0" type="line"/>
      <point x="148.0" y="1536.0" type="line"/>
      <point x="547.0841121495328" y="1536.0" type="line"/>
    </contour>
    <contour>
      <point x="425.50346398846887" y="767.8224299065421" type="line"/>
      <point x="502.9635907009568" y="935.8691588785047"/>
      <point x="726.2653949558315" y="1072.0"/>
      <point x="867.6203644433064" y="1072.0" type="qcurve" smooth="yes"/>
      <point x="1038.0740835573765" y="1072.0"/>
      <point x="1234.2778133401614" y="893.5195237485597"/>
      <point x="1234.2778133401614" y="722.9412367174497" type="qcurve" smooth="yes"/>
      <point x="1234.2778133401614" y="0.0" type="line"/>
      <point x="835.1937011906286" y="0.0" type="line"/>
      <point x="835.1937011906286" y="534.403734750903" type="line" smooth="yes"/>
      <point x="835.1937011906286" y="660.403734750903"/>
      <point x="761.230230870994" y="760.4676616915423"/>
      <point x="689.8406520718645" y="760.4676616915423" type="qcurve" smooth="yes"/>
      <point x="611.5349293731063" y="760.4676616915423"/>
      <point x="468.2695541623593" y="558.4764023946329"/>
      <point x="425.50346398846887" y="396.83214767285074" type="qcurve"/>
    </contour>
  </outline>
</glyph>
<glyph name="k" format="2">
  <advance width="1229.0604617419879"/>
  <unicode hex="006B"/>
  <anchor x="699.4841121495327" y="0.0" name="bottom"/>
  <anchor x="699.4841121495327" y="1536.0" name="top"/>
  <outline>
    <contour>
      <point x="120.40000000000002" y="0.0" type="line"/>
      <point x="120.40000000000002" y="1536.0" type="line"/>
      <point x="519.4841121495326" y="1536.0" type="line"/>
      <point x="519.4841121495326" y="0.0" type="line"/>
    </contour>
    <contour>
      <point x="808.7763495924551" y="0.0" type="line"/>
      <point x="573.0202790935859" y="488.0654205607477" type="line"/>
      <point x="810.4782230188198" y="735.9252336448599" type="line"/>
      <point x="1239.8604617419878" y="0.0" type="line"/>
    </contour>
    <contour>
      <point x="417.40469614544105" y="121.62616822429911" type="line"/>
      <point x="417.40469614544105" y="521.5913423536524" type="line"/>
      <point x="739.9627807703259" y="1052.0" type="line"/>
      <point x="1123.3508404718182" y="1052.0" type="line"/>
    </contour>
  </outline>
</glyph>
<glyph name="l" format="2">
  <advance width="711.0841121495328"/>
  <unicode hex="006C"/>
  <anchor x="357.67289719626166" y="0.0" name="bottom"/>
  <anchor x="357.67289719626166" y="791.0" name="center"/>
  <anchor x="357.67289719626166" y="1536.0" name="top"/>
  <anchor x="659.8785046728972" y="1052.0" name="topright"/>
  <anchor x="355.0093457943925" y="542.0" name="yu_dash"/>
  <outline>
    <contour>
      <point x="156.0" y="0.0" type="line"/>
      <point x="156.0" y="1536.0" type="line"/>
      <point x="555.0841121495328" y="1536.0" type="line"/>
      <point x="555.0841121495328" y="0.0" type="line"/>
    </contour>
  </outline>
</glyph>
<glyph name="m" format="2">
  <advance width="2039.8152605300215"/>
  <unicode hex="006D"/>
  <anchor x="1095.0841121495328" y="0.0" name="bottom"/>
  <anchor x="1095.0841121495328" y="1052.0" name="top"/>
  <outline>
    <contour>
      <point x="148.0" y="0.0" type="line"/>
      <point x="148.0" y="1052.0" type="line"/>
      <point x="529.0841121495328" y="1052.0" type="line"/>
      <point x="547.0841121495328" y="757.0" type="line"/>
      <point x="547.0841121495328" y="0.0" type="line"/>
    </contour>
    <contour>
      <point x="1228.9777237229546" y="707.6355140186915" type="qcurve" smooth="yes"/>
      <point x="1228.9777237229546" y="0.0" type="line"/>
      <point x="820.837536807067" y="0.0" type="line"/>
      <point x="820.837536807067" y="525.4676616915423" type="line" smooth="yes"/>
      <point x="820.837536807067" y="651.4676616915423"/>
      <point x="749.5224683139163" y="760.4676616915423"/>
      <point x="683.9151623778432" y="760.4676616915423" type="qcurve" smooth="yes"/>
      <point x="623.9562582682543" y="760.4676616915423"/>
      <point x="526.2804591814962" y="642.4676616915423"/>
      <point x="458.0841121495327" y="429.4676616915423" type="qcurve"/>
      <point x="458.0841121495327" y="764.0" type="line"/>
      <point x="536.6421286220287" y="946.7943925233645"/>
      <point x="759.0163444714718" y="1072.0"/>
      <point x="874.2955234071609" y="1072.0" type="qcurve" smooth="yes"/>
      <point x="1032.0127171083514" y="1072.0"/>
      <point x="1228.9777237229546" y="889.0"/>
    </contour>
    <contour>
      <point x="1166.0406105434931" y="823.0" type="line"/>
      <point x="1191.3220085719145" y="919.196261682243"/>
      <point x="1378.1175692399606" y="1072.0"/>
      <point x="1524.2762770451925" y="1072.0" type="qcurve" smooth="yes"/>
      <point x="1707.0937566679468" y="1072.0"/>
      <point x="1901.8152605300215" y="891.0"/>
      <point x="1901.8152605300215" y="679.0" type="qcurve" smooth="yes"/>
      <point x="1901.8152605300215" y="0.0" type="line"/>
      <point x="1502.7311483804888" y="0.0" type="line"/>
      <point x="1502.7311483804888" y="525.4676616915423" type="line" smooth="yes"/>
      <point x="1502.7311483804888" y="651.4676616915423"/>
      <point x="1430.4754406179318" y="760.4676616915423"/>
      <point x="1356.690052490078" y="760.4676616915423" type="qcurve" smooth="yes"/>
      <point x="1281.9046643622241" y="760.4676616915423"/>
      <point x="1191.3419804065068" y="579.4676616915423"/>
      <point x="1166.0406105434931" y="429.4676616915423" type="qcurve"/>
    </contour>
  </outline>
</glyph>
<glyph name="n" format="2">
  <advance width="1319.0778133401614"/>
  <unicode hex="006E"/>
  <anchor x="754.4841121495327" y="0.0" name="bottom"/>
  <anchor x="754.4841121495327" y="1052.0" name="top"/>
  <anchor x="1199.026168224299" y="0.0" name="engtail"/>
  <outline>
    <contour>
      <point x="120.40000000000002" y="0.0" type="line"/>
      <point x="120.40000000000002" y="1052.0" type="line"/>
      <point x="501.48411214953273" y="1052.0" type="line"/>
      <point x="519.4841121495326" y="824.8949771689497" type="line"/>
      <point x="519.4841121495326" y="0.0" type="line"/>
    </contour>
    <contour>
      <point x="426.48411214953273" y="411.0845771144279" type="qcurve"/>
      <point x="426.48411214953273" y="764.8127853881278" type="line"/>
      <point x="492.58418469679515" y="936.4200486493406"/>
      <point x="697.4734434344728" y="1072.0"/>
      <point x="820.6919813937609" y="1072.0" type="qcurve" smooth="yes"/>
      <point x="995.5246105919003" y="1072.0"/>
      <point x="1206.6778133401613" y="915.806938932275"/>
      <point x="1206.6778133401613" y="703.7636666239919" type="qcurve" smooth="yes"/>
      <point x="1206.6778133401613" y="0.0" type="line"/>
      <point x="807.5937011906286" y="0.0" type="line"/>
      <point x="807.5937011906286" y="566.9430246030124" type="line" smooth="yes"/>
      <point x="807.5937011906286" y="672.7192803107748"/>
      <point x="732.6895916015876" y="760.4676616915424"/>
      <point x="663.493244569624" y="760.4676616915424" type="qcurve" smooth="yes"/>
      <point x="601.182742286519" y="760.4676616915424"/>
      <point x="491.32280117782614" y="620.4150085572649"/>
    </contour>
  </outline>
</glyph>
<glyph name="o" format="2">
  <advance width="1365.2271582810565"/>
  <unicode hex="006F"/>
  <anchor x="801.0093457943925" y="0.0" name="bottom"/>
  <anchor x="801.5420560747664" y="526.0" name="center"/>
  <anchor x="1053.392523364486" y="0.0" name="ogonek"/>
  <anchor x="801.5420560747664" y="1052.0" name="top"/>
  <anchor x="1049.2616822429907" y="1052.0" name="topright"/>
  <anchor x="300.5233644859813" y="536.0" name="yu_dash"/>
  <outline>
    <contour>
      <point x="85.0" y="427.66047881193185" type="qcurve" smooth="yes"/>
      <point x="85.0" y="622.7413903469467" type="line" smooth="yes"/>
      <point x="85.0" y="829.5419280501856"/>
      <point x="410.4884137754449" y="1082.0"/>
      <point x="683.1462894209021" y="1082.0" type="qcurve" smooth="yes"/>
      <point x="954.7387445056117" y="1082.0"/>
      <point x="1280.2271582810565" y="829.5419280501856"/>
      <point x="1280.2271582810565" y="622.7413903469467" type="qcurve" smooth="yes"/>
      <point x="1280.2271582810565" y="427.66047881193185" type="line" smooth="yes"/>
      <point x="1280.2271582810565" y="221.92536166944055"/>
      <point x="954.7387445056117" y="-30.0"/>
      <point x="683.1462894209021" y="-30.0" type="qcurve" smooth="yes"/>
      <point x="410.4884137754449" y="-30.0"/>
      <point x="85.0" y="221.92536166944055"/>
    </contour>
    <contour>
      <point x="496.0747663551401" y="637.8427724391739" type="qcurve" smooth="yes"/>
      <point x="496.0747663551401" y="413.77414298371156" type="line" smooth="yes"/>
      <point x="496.0747663551401" y="350.6528317317522"/>
      <point x="585.6409764008022" y="263.35820895522386"/>
      <point x="682.6135791405283" y="263.35820895522386" type="qcurve" smooth="yes"/>
      <point x="779.5861818802543" y="263.35820895522386"/>
      <point x="869.1523919259164" y="350.6528317317522"/>
      <point x="869.1523919259164" y="413.77414298371156" type="qcurve" smooth="yes"/>
      <point x="869.1523919259164" y="637.8427724391739" type="line" smooth="yes"/>
      <point x="869.1523919259164" y="700.9640836911334"/>
      <point x="778.6455426108479" y="788.2587064676617"/>
      <point x="682.6135791405283" y="788.2587064676617" type="qcurve" smooth="yes"/>
      <point x="586.5816156702086" y="788.2587064676617"/>
      <point x="496.0747663551401" y="700.9640836911334"/>
    </contour>
  </outline>
</glyph>
<glyph name="p" format="2">
  <advance width="1346.6228054453122"/>
  <unicode hex="0070"/>
  <anchor x="919.6429906542056" y="0.0" name="bottom"/>
  <anchor x="804.0448598130841" y="1052.0" name="top"/>
  <outline>
    <contour>
      <point x="120.40000000000002" y="-416.0" type="line"/>
      <point x="120.40000000000002" y="1052.0" type="line"/>
      <point x="501.48411214953273" y="1052.0" type="line"/>
      <point x="509.4841121495327" y="915.0" type="line"/>
      <point x="519.4841121495326" y="915.0" type="line"/>
      <point x="519.4841121495326" y="-416.0" type="line"/>
    </contour>
    <contour>
      <point x="678.548039090172" y="270.29353233830847" type="qcurve" smooth="yes"/>
      <point x="775.4019203687108" y="270.29353233830847"/>
      <point x="865.5480390901719" y="374.9916854085736"/>
      <point x="865.5480390901719" y="451.4869488175561" type="qcurve" smooth="yes"/>
      <point x="865.5480390901719" y="599.3637974511007" type="line" smooth="yes"/>
      <point x="865.5480390901719" y="677.0083145914265"/>
      <point x="775.4019203687108" y="781.7064676616915"/>
      <point x="678.548039090172" y="781.7064676616915" type="qcurve" smooth="yes"/>
      <point x="588.3425596381172" y="781.7064676616915"/>
      <point x="476.48411214953273" y="675.0109725345874"/>
      <point x="476.48411214953273" y="603.5077352961222" type="qcurve" smooth="yes"/>
      <point x="476.48411214953273" y="457.15790908471354" type="line" smooth="yes"/>
      <point x="476.48411214953273" y="374.2281741975056"/>
      <point x="591.4612810993044" y="270.29353233830847"/>
    </contour>
    <contour>
      <point x="814.6278410788206" y="-20.0" type="qcurve" smooth="yes"/>
      <point x="612.0053428925021" y="-20.0"/>
      <point x="372.7271028037383" y="265.0"/>
      <point x="372.7271028037383" y="520.0" type="qcurve" smooth="yes"/>
      <point x="372.7271028037383" y="554.0" type="line" smooth="yes"/>
      <point x="372.7271028037383" y="759.6728971962617"/>
      <point x="600.1606793837751" y="1072.0"/>
      <point x="814.6278410788206" y="1072.0" type="qcurve" smooth="yes"/>
      <point x="1024.9078308368541" y="1072.0"/>
      <point x="1276.6228054453122" y="812.1979260017924"/>
      <point x="1276.6228054453122" y="614.0548798702685" type="qcurve" smooth="yes"/>
      <point x="1276.6228054453122" y="441.1413818119746" type="line" smooth="yes"/>
      <point x="1276.6228054453122" y="241.40020483932915"/>
      <point x="1024.9078308368541" y="-20.0"/>
    </contour>
  </outline>
</glyph>
<glyph name="q" format="2">
  <advance width="1389.2228054453121"/>
  <unicode hex="0071"/>
  <anchor x="684.6168224299065" y="0.0" name="bottom"/>
  <anchor x="684.6168224299065" y="1052.0" name="top"/>
  <outline>
    <contour>
      <point x="842.1386932957794" y="-416.0" type="line"/>
      <point x="842.1386932957794" y="915.0" type="line"/>
      <point x="852.1386932957794" y="915.0" type="line"/>
      <point x="860.1386932957794" y="1052.0" type="line"/>
      <point x="1241.2228054453121" y="1052.0" type="line"/>
      <point x="1241.2228054453121" y="-416.0" type="line"/>
    </contour>
    <contour>
      <point x="682.5420560747664" y="270.2935323383084" type="qcurve" smooth="yes"/>
      <point x="771.3024322759521" y="270.2935323383084"/>
      <point x="884.6059830154056" y="414.14427860696514"/>
      <point x="884.6059830154056" y="511.4278606965174" type="qcurve" smooth="yes"/>
      <point x="884.6059830154056" y="529.8507462686567" type="line" smooth="yes"/>
      <point x="884.6059830154056" y="641.5572139303482"/>
      <point x="772.0145565859094" y="781.7064676616916"/>
      <point x="682.5420560747664" y="781.7064676616916" type="qcurve" smooth="yes"/>
      <point x="585.6881747962276" y="781.7064676616916"/>
      <point x="495.5420560747663" y="640.3233830845771"/>
      <point x="495.5420560747663" y="535.8706467661691" type="qcurve" smooth="yes"/>
      <point x="495.5420560747663" y="514.9800995024875" type="line" smooth="yes"/>
      <point x="495.5420560747663" y="411.67661691542287"/>
      <point x="585.6881747962276" y="270.2935323383084"/>
    </contour>
    <contour>
      <point x="546.5246447317885" y="-20.0" type="qcurve" smooth="yes"/>
      <point x="336.7149746084582" y="-20.0"/>
      <point x="85.0" y="280.0"/>
      <point x="85.0" y="510.0" type="qcurve" smooth="yes"/>
      <point x="85.0" y="542.0" type="line" smooth="yes"/>
      <point x="85.0" y="772.0"/>
      <point x="336.7149746084582" y="1072.0"/>
      <point x="546.5246447317885" y="1072.0" type="qcurve" smooth="yes"/>
      <point x="757.3967055007895" y="1072.0"/>
      <point x="987.8926727264968" y="769.0"/>
      <point x="987.8926727264968" y="531.0" type="qcurve" smooth="yes"/>
      <point x="987.8926727264968" y="505.0" type="line" smooth="yes"/>
      <point x="987.8926727264968" y="282.0"/>
      <point x="756.3343148551189" y="-20.0"/>
    </contour>
  </outline>
</glyph>
<glyph name="r" format="2">
  <advance width="803.8813724235052"/>
  <unicode hex="0072"/>
  <anchor x="370.3439252336449" y="0.0" name="bottom"/>
  <anchor x="389.40000000000003" y="1052.0" name="top"/>
  <outline>
    <contour>
      <point x="120.40000000000002" y="0.0" type="line"/>
      <point x="120.40000000000002" y="1052.0" type="line"/>
      <point x="501.48411214953273" y="1052.0" type="line"/>
      <point x="519.4841121495326" y="745.3271028037384" type="line"/>
      <point x="519.4841121495326" y="0.0" type="line"/>
    </contour>
    <contour>
      <point x="351.9046728971963" y="303.26149625703266" type="qcurve"/>
      <point x="351.9046728971963" y="644.4953271028037" type="line"/>
      <point x="483.1785174753553" y="944.8785046728972"/>
      <point x="635.3927879486196" y="1082.0"/>
      <point x="711.9909614646012" y="1082.0" type="qcurve" smooth="yes"/>
      <point x="730.2284043869756" y="1082.0"/>
      <point x="769.2923313276149" y="1072.0"/>
      <point x="777.8813724235054" y="1068.0" type="qcurve"/>
      <point x="777.8813724235054" y="742.766169154229" type="line"/>
      <point x="761.643929501131" y="746.7661691542289"/>
      <point x="726.1096829257884" y="750.7661691542289"/>
      <point x="704.8128792728204" y="750.7661691542289" type="qcurve" smooth="yes"/>
      <point x="623.2147057568387" y="750.7661691542289"/>
      <point x="510.0135791405283" y="633.1586925187148"/>
    </contour>
  </outline>
</glyph>
<glyph name="s" format="2">
  <advance width="1208.14949003542"/>
  <unicode hex="0073"/>
  <anchor x="709.5607476635514" y="0.0" name="bottom"/>
  <anchor x="698.9065420560747" y="1052.0" name="top"/>
  <outline>
    <contour>
      <point x="80.0" y="354.82089552238807" type="line"/>
      <point x="441.7943925233645" y="354.82089552238807" type="line"/>
      <point x="441.7943925233645" y="321.6017174401963" type="line" smooth="yes"/>
      <point x="441.7943925233645" y="270.2103068067676"/>
      <point x="533.6065976607807" y="227.34825870646767"/>
      <point x="621.8118038663423" y="227.34825870646767" type="qcurve" smooth="yes"/>
      <point x="658.2772509237196" y="227.34825870646767"/>
      <point x="710.9405348115395" y="252.19854319492026"/>
      <point x="710.9405348115395" y="290.20901955464007" type="qcurve" smooth="yes"/>
      <point x="710.9405348115395" y="327.6633189194216"/>
      <point x="625.7701188080847" y="364.89928032351366"/>
      <point x="548.2935176887295" y="388.57764690820636" type="qcurve" smooth="yes"/>
      <point x="311.9609709740887" y="430.58892007763"/>
      <point x="122.76661118934835" y="598.3457491699103"/>
      <point x="122.76661118934835" y="744.1019929159731" type="qcurve" smooth="yes"/>
      <point x="122.76661118934835" y="911.5940824618426"/>
      <point x="365.27460380850835" y="1082.0"/>
      <point x="637.4490675543037" y="1082.0" type="qcurve" smooth="yes"/>
      <point x="877.2417486246911" y="1082.0"/>
      <point x="1122.7549182776424" y="871.2813145895155"/>
      <point x="1123.6955575470488" y="742.5306344987392" type="qcurve" smooth="yes"/>
      <point x="1123.6955575470488" y="707.9004975124378" type="line"/>
      <point x="727.2095762386379" y="707.9004975124378" type="line"/>
      <point x="727.2095762386379" y="741.357118517004" type="line" smooth="yes"/>
      <point x="727.2095762386379" y="792.7346171459945"/>
      <point x="675.5922092265596" y="829.6318407960199"/>
      <point x="619.2745273759228" y="829.6318407960199" type="qcurve" smooth="yes"/>
      <point x="583.3261206450146" y="829.6318407960199"/>
      <point x="510.86384299218287" y="808.8654124079386"/>
      <point x="510.86384299218287" y="775.7748996663081" type="qcurve" smooth="yes"/>
      <point x="510.86384299218287" y="732.5975951760848"/>
      <point x="621.6291803051062" y="689.1411327691334"/>
      <point x="724.3654248282337" y="664.8340801433876" type="qcurve" smooth="yes"/>
      <point x="956.9100108215803" y="628.2746910690435"/>
      <point x="1128.14949003542" y="465.2693210429736"/>
      <point x="1128.14949003542" y="331.29228011778264" type="qcurve" smooth="yes"/>
      <point x="1128.14949003542" y="165.18947637946485"/>
      <point x="865.1567020868007" y="-30.0"/>
      <point x="596.2417104083984" y="-30.0" type="qcurve" smooth="yes"/>
      <point x="365.4995538247821" y="-30.0"/>
      <point x="80.0" y="149.00953560197985"/>
      <point x="80.0" y="318.77979963197714" type="qcurve" smooth="yes"/>
    </contour>
  </outline>
</glyph>
<glyph name="t" format="2">
  <advance width="815.58182904451"/>
  <unicode hex="0074"/>
  <anchor x="520.5233644859813" y="0.0" name="bottom"/>
  <anchor x="425.68224299065423" y="619.0" name="center"/>
  <anchor x="425.68224299065423" y="1312.0" name="top"/>
  <anchor x="913.0841121495328" y="1052.0" name="topright"/>
  <outline>
    <contour>
      <point x="0.0" y="756.7661691542289" type="line"/>
      <point x="0.0" y="1052.0" type="line"/>
      <point x="765.58182904451" y="1052.0" type="line"/>
      <point x="765.58182904451" y="756.7661691542289" type="line"/>
    </contour>
    <contour>
      <point x="163.54337899543378" y="366.5420560747664" type="qcurve" smooth="yes"/>
      <point x="163.54337899543378" y="966.0" type="line"/>
      <point x="163.54337899543378" y="996.0" type="line"/>
      <point x="163.54337899543378" y="1312.0" type="line"/>
      <point x="562.6274911449666" y="1312.0" type="line"/>
      <point x="562.6274911449666" y="386.4179104477612" type="line" smooth="yes"/>
      <point x="562.6274911449666" y="316.4179104477612"/>
      <point x="612.0430162591218" y="256.4179104477612"/>
      <point x="665.4585413732771" y="256.4179104477612" type="qcurve" smooth="yes"/>
      <point x="690.1663039303547" y="256.4179104477612"/>
      <point x="738.0521486792131" y="268.4179104477612"/>
      <point x="762.7599112362907" y="278.4179104477612" type="qcurve"/>
      <point x="762.7599112362907" y="0.0" type="line"/>
      <point x="738.1708701404003" y="-12.0"/>
      <point x="601.2165749157172" y="-30.0"/>
      <point x="506.5648871249947" y="-30.0" type="qcurve" smooth="yes"/>
      <point x="345.34865360815945" y="-30.0"/>
      <point x="163.54337899543378" y="168.59813084112147"/>
    </contour>
  </outline>
</glyph>
<glyph name="u" format="2">
  <advance width="1372.2778133401614"/>
  <unicode hex="0075"/>
  <anchor x="776.7570093457944" y="0.0" name="bottom"/>
  <anchor x="1411.4953271028037" y="0.0" name="ogonek"/>
  <anchor x="776.7570093457944" y="1052.0" name="top"/>
  <anchor x="1240.2056074766356" y="1052.0" name="topright"/>
  <anchor x="1320.3738317757009" y="0.0" name="cy_descender"/>
  <outline>
    <contour>
      <point x="495.06588998421023" y="-20.0" type="qcurve" smooth="yes"/>
      <point x="326.59219903554816" y="-20.0"/>
      <point x="138.0" y="126.66666666666667"/>
      <point x="138.0" y="307.1552511415525" type="qcurve" smooth="yes"/>
      <point x="138.0" y="1052.0" type="line"/>
      <point x="537.0841121495328" y="1052.0" type="line"/>
      <point x="537.0841121495328" y="484.20357118517006" type="line" smooth="yes"/>
      <point x="537.0841121495328" y="379.83827438151707"/>
      <point x="610.5772628344642" y="291.5323383084577"/>
      <point x="679.7736098664277" y="291.5323383084577" type="qcurve" smooth="yes"/>
      <point x="738.3712438957434" y="291.5323383084577"/>
      <point x="824.6418349935127" y="386.74062092558586"/>
      <point x="917.2779063331402" y="568.454384714502" type="qcurve"/>
      <point x="920.9410857630934" y="242.23873335919305" type="line"/>
      <point x="794.6531075259982" y="68.71376378891611"/>
      <point x="590.5037085727424" y="-20.0"/>
    </contour>
    <contour>
      <point x="843.1937011906286" y="0.0" type="line"/>
      <point x="825.1937011906286" y="251.70626065677246" type="line"/>
      <point x="825.1937011906286" y="1052.0" type="line"/>
      <point x="1224.2778133401614" y="1052.0" type="line"/>
      <point x="1224.2778133401614" y="0.0" type="line"/>
    </contour>
  </outline>
</glyph>
<glyph name="v" format="2">
  <advance width="1162.6289847650748"/>
  <unicode hex="0076"/>
  <anchor x="700.0654205607476" y="0.0" name="bottom"/>
  <anchor x="700.0654205607476" y="1052.0" name="top"/>
  <outline>
    <contour>
      <point x="0.0" y="1052.0" type="line"/>
      <point x="409.0654205607476" y="1052.0" type="line"/>
      <point x="567.1202150812956" y="364.1095890410959" type="line" smooth="yes"/>
      <point x="575.9466990995604" y="324.1095890410959"/>
      <point x="587.8919045790125" y="254.1095890410959"/>
      <point x="590.4809456749028" y="234.1095890410959" type="qcurve"/>
      <point x="594.1293475013869" y="234.1095890410959" type="line"/>
      <point x="596.7183885972773" y="254.1095890410959"/>
      <point x="608.6635940767294" y="324.1095890410959"/>
      <point x="617.4900780949941" y="364.1095890410959" type="qcurve" smooth="yes"/>
      <point x="773.5448726155421" y="1052.0" type="line"/>
      <point x="1162.6289847650748" y="1052.0" type="line"/>
      <point x="873.154098920326" y="0.0" type="line"/>
      <point x="289.4748858447489" y="0.0" type="line"/>
    </contour>
  </outline>
</glyph>
<glyph name="w" format="2">
  <advance width="2088.5532368881495"/>
  <unicode hex="0077"/>
  <anchor x="1043.2803738317757" y="0.0" name="bottom"/>
  <anchor x="1043.2803738317757" y="1052.0" name="top"/>
  <outline>
    <contour>
      <point x="22.0" y="1052.0" type="line"/>
      <point x="425.3303887679768" y="1052.0" type="line"/>
      <point x="538.9057312337302" y="383.5159817351598" type="line" smooth="yes"/>
      <point x="545.2025348866982" y="343.5159817351598"/>
      <point x="554.9102974437759" y="270.0"/>
      <point x="561.029018904963" y="230.0" type="qcurve"/>
      <point x="565.6180600008535" y="230.0" type="line"/>
      <point x="571.7367814620408" y="270.0"/>
      <point x="585.6774207314471" y="343.5159817351598"/>
      <point x="594.9148636538215" y="383.5159817351598" type="qcurve" smooth="yes"/>
      <point x="751.0153202748262" y="1052.0" type="line"/>
      <point x="1356.3732343276577" y="1052.0" type="line"/>
      <point x="1518.0627320445526" y="383.5159817351598" type="line" smooth="yes"/>
      <point x="1527.8298553322238" y="343.5159817351598"/>
      <point x="1540.8298553322238" y="270.0"/>
      <point x="1547.8892160628175" y="230.0" type="qcurve"/>
      <point x="1552.478257158708" y="230.0" type="line"/>
      <point x="1557.6563393504887" y="270.0"/>
      <point x="1569.9713224939187" y="342.983271454786"/>
      <point x="1573.071864464644" y="383.5159817351598" type="qcurve" smooth="yes"/>
      <point x="1683.9394443733195" y="1052.0" type="line"/>
      <point x="2066.5532368881495" y="1052.0" type="line"/>
      <point x="1832.324926385866" y="0.0" type="line"/>
      <point x="1235.6154141595187" y="0.0" type="line"/>
      <point x="1077.163359364998" y="661.1872146118722" type="line" smooth="yes"/>
      <point x="1067.9259164426235" y="701.1872146118722"/>
      <point x="1049.1587931549525" y="800.0"/>
      <point x="1041.5103913284684" y="840.0" type="qcurve"/>
      <point x="1036.921350232578" y="840.0" type="line"/>
      <point x="1028.8026287713908" y="800.0"/>
      <point x="1013.169376520292" y="700.1217940511245"/>
      <point x="1001.2683821960484" y="661.1872146118722" type="qcurve" smooth="yes"/>
      <point x="842.3460077668245" y="0.0" type="line"/>
      <point x="255.75799086757993" y="0.0" type="line"/>
    </contour>
  </outline>
</glyph>
<glyph name="x" format="2">
  <advance width="1050.1733026074342"/>
  <unicode hex="0078"/>
  <anchor x="487.0000000000001" y="0.0" name="bottom"/>
  <anchor x="732.0467289719627" y="1052.0" name="top"/>
  <anchor x="1014.9719626168223" y="0.0" name="cy_descender"/>
  <outline>
    <contour>
      <point x="18.0" y="0.0" type="line"/>
      <point x="313.11872146118725" y="582.0000000000001" type="line"/>
      <point x="454.0040541117228" y="582.0000000000001" type="line"/>
      <point x="671.9903554815858" y="1052.0" type="line"/>
      <point x="1021.1093756667947" y="1052.0" type="line"/>
      <point x="741.7577774932788" y="484.0" type="line"/>
      <point x="600.4021252080399" y="484.0" type="line"/>
      <point x="367.1190201852089" y="0.0" type="line"/>
    </contour>
    <contour>
      <point x="38.0" y="1052.0" type="line"/>
      <point x="529.4107455298084" y="1052.0" type="line"/>
      <point x="741.2828916485298" y="582.0000000000001" type="line"/>
      <point x="746.931293475014" y="582.0000000000001" type="line"/>
      <point x="1032.173302607434" y="0.0" type="line"/>
      <point x="543.1141552511417" y="0.0" type="line"/>
      <point x="316.4155251141553" y="484.0" type="line"/>
      <point x="310.2968036529681" y="484.0" type="line"/>
    </contour>
  </outline>
</glyph>
<glyph name="y" format="2">
  <advance width="1185.3134895233218"/>
  <unicode hex="0079"/>
  <anchor x="1004.4018691588785" y="0.0" name="bottom"/>
  <anchor x="727.6542056074768" y="1052.0" name="top"/>
  <outline>
    <contour>
      <point x="81.96261682242991" y="-406.9439252336449" type="qcurve"/>
      <point x="81.96261682242991" y="-123.75700934579442" type="line"/>
      <point x="106.35970639696157" y="-132.82242990654208"/>
      <point x="201.68407800964454" y="-150.81308411214957"/>
      <point x="291.53002176417874" y="-150.81308411214957" type="qcurve" smooth="yes"/>
      <point x="387.7768531558059" y="-150.81308411214957"/>
      <point x="520.5240899586054" y="-88.96261682242994"/>
      <point x="534.4867494558955" y="4.0" type="qcurve"/>
      <point x="294.76712328767127" y="3.9969700849229723" type="line"/>
      <point x="10.0" y="1052.0" type="line"/>
      <point x="492.0467289719626" y="1052.0" type="line"/>
      <point x="585.1260188622882" y="533.6635514018692" type="line" smooth="yes"/>
      <point x="593.9525028805532" y="493.6635514018692"/>
      <point x="607.4867494558955" y="423.6635514018691"/>
      <point x="612.6648316476764" y="393.66355140186914" type="qcurve"/>
      <point x="616.3132334741604" y="393.66355140186914" type="line"/>
      <point x="622.020996031238" y="423.6635514018691"/>
      <point x="636.0849229718773" y="493.6635514018692"/>
      <point x="644.3817266248453" y="533.6635514018692" type="qcurve" smooth="yes"/>
      <point x="730.8368540093031" y="1052.0" type="line"/>
      <point x="1177.9863867195834" y="1052.0" type="line"/>
      <point x="880.8474373746426" y="-92.05607476635515" type="line" smooth="yes"/>
      <point x="834.9603123799769" y="-256.5607476635514"/>
      <point x="533.3848418896428" y="-436.00000000000006"/>
      <point x="305.6381171851662" y="-436.00000000000006" type="qcurve" smooth="yes"/>
      <point x="218.04450987923016" y="-436.00000000000006"/>
      <point x="103.37814193658517" y="-416.9439252336449"/>
    </contour>
  </outline>
</glyph>
<glyph name="z" format="2">
  <advance width="1028.767080612811"/>
  <unicode hex="007A"/>
  <anchor x="422.4859813084112" y="0.0" name="bottom"/>
  <anchor x="422.4859813084112" y="1052.0" name="top"/>
  <outline>
    <contour>
      <point x="70.0" y="0.0" type="line"/>
      <point x="70.0" y="250.1867763983819" type="line"/>
      <point x="436.61801732599326" y="788.5223880597015" type="line"/>
      <point x="78.0" y="788.5223880597015" type="line"/>
      <point x="78.0" y="1052.0" type="line"/>
      <point x="932.4685731501245" y="1052.0" type="line"/>
      <point x="932.4685731501245" y="807.5223880597015" type="line"/>
      <point x="545.5548381508155" y="267.69154228855723" type="line"/>
      <point x="964.767080612811" y="267.69154228855723" type="line"/>
      <point x="964.767080612811" y="0.0" type="line"/>
    </contour>
  </outline>
</glyph>
<glyph name="braceleft" format="2">
  <advance width="780.7042034737336"/>
  <unicode hex="007B"/>
  <outline>
    <contour>
      <point x="754.7042034737337" y="-312.0" type="line"/>
      <point x="478.1301839286476" y="-312.0"/>
      <point x="145.5271881534588" y="-56.648572525924976"/>
      <point x="188.60297870524474" y="180.53271028037383" type="qcurve" smooth="yes"/>
      <point x="205.59896726838218" y="304.16822429906546" type="line" smooth="yes"/>
      <point x="218.1877924422186" y="382.4665922722835"/>
      <point x="142.431241054999" y="450.53731343283584"/>
      <point x="53.2" y="450.53731343283584" type="qcurve"/>
      <point x="53.2" y="697.4626865671642" type="line"/>
      <point x="142.431241054999" y="697.4626865671642"/>
      <point x="220.85134384408775" y="750.6175198772493"/>
      <point x="206.66438782912985" y="837.9719626168225" type="qcurve" smooth="yes"/>
      <point x="189.13568898561857" y="963.2056074766356" type="line" smooth="yes"/>
      <point x="145.87272649682072" y="1190.0062732044553"/>
      <point x="478.1301839286476" y="1460.0"/>
      <point x="754.7042034737337" y="1460.0" type="qcurve"/>
      <point x="754.7042034737337" y="1214.398009950249" type="line"/>
      <point x="641.8567966721253" y="1214.398009950249"/>
      <point x="553.4730987235122" y="1107.099843249506"/>
      <point x="567.2521486792131" y="1025.0" type="qcurve" smooth="yes"/>
      <point x="597.1915503776726" y="859.2803738317758" type="line" smooth="yes"/>
      <point x="620.8869372252806" y="742.9098280203133"/>
      <point x="472.94459096146454" y="600.0"/>
      <point x="346.1301839286476" y="574.0" type="qcurve"/>
      <point x="472.94459096146454" y="548.0"/>
      <point x="620.3542269449067" y="402.9593308581915"/>
      <point x="597.1915503776726" y="288.71962616822435" type="qcurve" smooth="yes"/>
      <point x="567.2521486792131" y="123.0" type="line" smooth="yes"/>
      <point x="553.4730987235122" y="40.900156750494105"/>
      <point x="641.8567966721253" y="-66.39800995024876"/>
      <point x="754.7042034737337" y="-66.39800995024876" type="qcurve"/>
    </contour>
  </outline>
</glyph>
<glyph name="bar" format="2">
  <advance width="684.3880597014927"/>
  <unicode hex="007C"/>
  <outline>
    <contour>
      <point x="170.0" y="-416.0" type="line"/>
      <point x="170.0" y="1536.0" type="line"/>
      <point x="514.3880597014926" y="1536.0" type="line"/>
      <point x="514.3880597014926" y="-416.0" type="line"/>
    </contour>
  </outline>
</glyph>
<glyph name="braceright" format="2">
  <advance width="795.5042034737337"/>
  <unicode hex="007D"/>
  <outline>
    <contour>
      <point x="30.0" y="-312.0" type="qcurve"/>
      <point x="30.0" y="-66.39800995024876" type="line"/>
      <point x="142.84740680160843" y="-66.39800995024876"/>
      <point x="231.2311047502215" y="40.900156750494105"/>
      <point x="217.45205479452056" y="123.0" type="qcurve" smooth="yes"/>
      <point x="187.51265309606111" y="287.6542056074766" type="line" smooth="yes"/>
      <point x="163.28455596807922" y="405.0901719796868"/>
      <point x="332.5353134468484" y="550.6635514018692"/>
      <point x="438.574019545086" y="574.0" type="qcurve"/>
      <point x="328.2736312038578" y="592.5420560747664"/>
      <point x="162.75184568770538" y="735.9845943754534"/>
      <point x="186.97994281568728" y="855.5514018691589" type="qcurve" smooth="yes"/>
      <point x="217.45205479452056" y="1025.0" type="line" smooth="yes"/>
      <point x="231.2311047502215" y="1107.0998432495057"/>
      <point x="142.84740680160843" y="1214.3980099502487"/>
      <point x="30.0" y="1214.3980099502487" type="qcurve"/>
      <point x="30.0" y="1460.0" type="line"/>
      <point x="331.0786924422822" y="1460.0"/>
      <point x="639.8968975376606" y="1196.9315068493152"/>
      <point x="600.3629070114795" y="983.981308411215" type="qcurve" smooth="yes"/>
      <point x="576.974395083856" y="832.6448598130842" type="line" smooth="yes"/>
      <point x="561.7220185081507" y="742.6268656716418"/>
      <point x="626.6747385846342" y="697.4626865671642"/>
      <point x="731.5042034737337" y="697.4626865671642" type="qcurve"/>
      <point x="731.5042034737337" y="450.53731343283584" type="line"/>
      <point x="626.2916540075198" y="450.53731343283584"/>
      <point x="561.7220185081507" y="405.3731343283582"/>
      <point x="576.4416848034822" y="315.3551401869159" type="qcurve" smooth="yes"/>
      <point x="600.8956172918533" y="161.88785046728972" type="line" smooth="yes"/>
      <point x="641.3078564417702" y="-63.04109589041096"/>
      <point x="341.7328980497589" y="-312.0"/>
    </contour>
  </outline>
</glyph>
<glyph name="asciitilde" format="2">
  <advance width="816.9689497716895"/>
  <unicode hex="007E"/>
  <outline>
    <contour>
      <point x="38.0" y="482.1990049751244" type="qcurve"/>
      <point x="38.0" y="783.8009950248756" type="line"/>
      <point x="75.12328767123287" y="834.8009950248756"/>
      <point x="179.8447488584475" y="891.8009950248756"/>
      <point x="231.675799086758" y="892.8009950248756" type="qcurve" smooth="yes"/>
      <point x="294.2146118721462" y="893.8009950248756"/>
      <point x="379.6301369863014" y="854.0932324677981"/>
      <point x="426.6392694063927" y="819.8009950248756" type="qcurve" smooth="yes"/>
      <point x="468.7077625570777" y="789.8009950248756"/>
      <point x="531.1324200913242" y="750.8009950248756"/>
      <point x="590.0821917808221" y="750.8009950248756" type="qcurve" smooth="yes"/>
      <point x="641.4429223744294" y="750.8009950248756"/>
      <point x="740.5753424657535" y="818.8009950248756"/>
      <point x="778.1689497716895" y="878.8009950248756" type="qcurve"/>
      <point x="778.1689497716895" y="576.1990049751244" type="line"/>
      <point x="740.5753424657535" y="525.1990049751244"/>
      <point x="642.4429223744293" y="467.1990049751244"/>
      <point x="590.6118721461187" y="467.1990049751244" type="qcurve" smooth="yes"/>
      <point x="532.1324200913242" y="467.1990049751244"/>
      <point x="455.12785388127855" y="501.4958086280924"/>
      <point x="408.3561643835617" y="536.1990049751244" type="qcurve" smooth="yes"/>
      <point x="360.87671232876716" y="569.5506031486404"/>
      <point x="294.2146118721462" y="609.1990049751244"/>
      <point x="231.675799086758" y="609.1990049751244" type="qcurve" smooth="yes"/>
      <point x="179.8447488584475" y="609.1990049751244"/>
      <point x="75.12328767123287" y="542.1990049751245"/>
    </contour>
  </outline>
</glyph>
<glyph name="exclamdown" format="2">
  <advance width="823.4953271028037"/>
  <unicode hex="00A1"/>
  <outline>
    <contour>
      <point x="637.4953271028037" y="958.7102803738318" type="qcurve" smooth="yes"/>
      <point x="637.4953271028037" y="869.2242990654206"/>
      <point x="520.7570093457944" y="741.6915887850467"/>
      <point x="411.74766355140184" y="741.6915887850467" type="qcurve" smooth="yes"/>
      <point x="302.2056074766355" y="741.6915887850467"/>
      <point x="186.0" y="869.2242990654206"/>
      <point x="186.0" y="958.7102803738318" type="qcurve" smooth="yes"/>
      <point x="186.0" y="1047.6635514018692"/>
      <point x="302.2056074766355" y="1175.196261682243"/>
      <point x="411.74766355140184" y="1175.196261682243" type="qcurve" smooth="yes"/>
      <point x="520.7570093457944" y="1175.196261682243"/>
      <point x="637.4953271028037" y="1047.6635514018692"/>
    </contour>
    <contour>
      <point x="493.74766355140184" y="643.5794392523364" type="line"/>
      <point x="615.2897196261682" y="-318.78504672897196" type="line"/>
      <point x="208.20560747663552" y="-318.78504672897196" type="line"/>
      <point x="329.74766355140184" y="643.5794392523364" type="line"/>
    </contour>
  </outline>
</glyph>
<glyph name="cent" format="2">
  <advance width="1450.1682242990655"/>
  <unicode hex="00A2"/>
  <outline>
    <contour>
      <point x="760.0841121495328" y="282.0" type="qcurve" smooth="yes"/>
      <point x="875.0841121495328" y="282.0"/>
      <point x="1007.0841121495328" y="391.0"/>
      <point x="1015.0841121495328" y="492.0" type="qcurve"/>
      <point x="1404.1682242990655" y="492.0" type="line"/>
      <point x="1394.1682242990655" y="318.0"/>
      <point x="1043.8504672897195" y="130.0"/>
      <point x="760.0841121495328" y="130.0" type="qcurve" smooth="yes"/>
      <point x="460.4299065420561" y="130.0"/>
      <point x="65.0" y="410.0"/>
      <point x="65.0" y="670.0" type="qcurve" smooth="yes"/>
      <point x="65.0" y="712.0" type="line" smooth="yes"/>
      <point x="65.0" y="972.0"/>
      <point x="464.1588785046729" y="1252.0"/>
      <point x="760.0841121495328" y="1252.0" type="qcurve" smooth="yes"/>
      <point x="1041.056074766355" y="1252.0"/>
      <point x="1396.1682242990655" y="1049.0"/>
      <point x="1404.1682242990655" y="860.0" type="qcurve"/>
      <point x="1015.0841121495328" y="860.0" type="line"/>
      <point x="1007.0841121495328" y="976.0"/>
      <point x="875.0841121495328" y="1100.0"/>
      <point x="760.0841121495328" y="1100.0" type="qcurve" smooth="yes"/>
      <point x="617.0841121495328" y="1100.0"/>
      <point x="464.0841121495327" y="899.0"/>
      <point x="464.0841121495327" y="712.0" type="qcurve" smooth="yes"/>
      <point x="464.0841121495327" y="670.0" type="line" smooth="yes"/>
      <point x="464.0841121495327" y="483.0"/>
      <point x="617.0841121495328" y="282.0"/>
    </contour>
    <contour>
      <point x="682.0841121495328" y="0.0" type="line"/>
      <point x="682.0841121495328" y="197.0" type="line"/>
      <point x="687.0841121495328" y="211.0" type="line"/>
      <point x="687.0841121495328" y="708.0" type="line"/>
      <point x="827.0841121495328" y="708.0" type="line"/>
      <point x="827.0841121495328" y="210.0" type="line"/>
      <point x="832.0841121495328" y="200.0" type="line"/>
      <point x="832.0841121495328" y="0.0" type="line"/>
    </contour>
    <contour>
      <point x="687.0841121495328" y="708.0" type="line"/>
      <point x="687.0841121495328" y="1182.0" type="line"/>
      <point x="682.0841121495328" y="1192.0" type="line"/>
      <point x="682.0841121495328" y="1402.0" type="line"/>
      <point x="832.0841121495328" y="1402.0" type="line"/>
      <point x="832.0841121495328" y="1192.0" type="line"/>
      <point x="827.0841121495328" y="1179.0" type="line"/>
      <point x="827.0841121495328" y="708.0" type="line"/>
    </contour>
  </outline>
</glyph>
<glyph name="sterling" format="2">
  <advance width="1450.1682242990655"/>
  <unicode hex="00A3"/>
  <outline>
    <contour>
      <point x="1454.1682242990655" y="0.0" type="line"/>
      <point x="36.0" y="0.0" type="line"/>
      <point x="36.0" y="160.0" type="line"/>
      <point x="92.0" y="160.0" type="line" smooth="yes"/>
      <point x="184.0" y="160.0"/>
      <point x="264.0" y="324.0"/>
      <point x="250.0" y="467.0" type="qcurve" smooth="yes"/>
      <point x="195.0" y="1039.0" type="line" smooth="yes"/>
      <point x="177.0" y="1228.0"/>
      <point x="486.5420560747664" y="1476.0"/>
      <point x="794.0841121495328" y="1476.0" type="qcurve" smooth="yes"/>
      <point x="1090.626168224299" y="1476.0"/>
      <point x="1410.1682242990655" y="1270.0"/>
      <point x="1410.1682242990655" y="1103.0" type="qcurve" smooth="yes"/>
      <point x="1410.1682242990655" y="1087.0" type="line"/>
      <point x="1005.0841121495328" y="1087.0" type="line"/>
      <point x="1005.0841121495328" y="1103.0" type="line" smooth="yes"/>
      <point x="1005.0841121495328" y="1218.0"/>
      <point x="888.0841121495328" y="1309.0"/>
      <point x="796.0841121495328" y="1309.0" type="qcurve" smooth="yes"/>
      <point x="699.0841121495328" y="1309.0"/>
      <point x="582.0841121495328" y="1185.0"/>
      <point x="596.0841121495328" y="1039.0" type="qcurve" smooth="yes"/>
      <point x="638.0280373831775" y="599.626168224299" type="line" smooth="yes"/>
      <point x="654.7570093457944" y="425.803738317757"/>
      <point x="560.3364485981308" y="211.79439252336448"/>
      <point x="401.9065420560747" y="166.0" type="qcurve"/>
      <point x="1454.1682242990655" y="166.0" type="line"/>
    </contour>
    <contour>
      <point x="1250.1682242990655" y="625.0" type="line"/>
      <point x="52.0" y="625.0" type="line"/>
      <point x="52.0" y="780.0" type="line"/>
      <point x="1250.1682242990655" y="780.0" type="line"/>
    </contour>
  </outline>
</glyph>
<glyph name="currency" format="2">
  <advance width="1264.5420560747664"/>
  <unicode hex="00A4"/>
  <guideline y="901.0" identifier="bRYxxRaQQf"/>
  <guideline y="555.0" identifier="917FhrihjR"/>
  <outline>
    <contour>
      <point x="314.2710280373832" y="712.0" type="qcurve"/>
      <point x="314.2710280373832" y="567.0"/>
      <point x="498.2710280373832" y="373.0"/>
      <point x="629.2710280373832" y="373.0" type="qcurve" smooth="yes"/>
      <point x="759.2710280373832" y="373.0"/>
      <point x="942.2710280373832" y="567.0"/>
      <point x="942.2710280373832" y="712.0" type="qcurve" smooth="yes"/>
      <point x="942.2710280373832" y="855.0"/>
      <point x="759.2710280373832" y="1049.0"/>
      <point x="629.2710280373832" y="1049.0" type="qcurve" smooth="yes"/>
      <point x="498.2710280373832" y="1049.0"/>
      <point x="314.2710280373832" y="855.0"/>
    </contour>
    <contour>
      <point x="68.94392523364486" y="718.0" type="qcurve"/>
      <point x="68.94392523364486" y="960.1682242990654"/>
      <point x="402.23364485981307" y="1288.392523364486"/>
      <point x="628.2710280373832" y="1288.392523364486" type="qcurve" smooth="yes"/>
      <point x="854.3084112149533" y="1288.392523364486"/>
      <point x="1187.5981308411215" y="960.1682242990654"/>
      <point x="1187.5981308411215" y="718.0" type="qcurve" smooth="yes"/>
      <point x="1187.5981308411215" y="477.3644859813084"/>
      <point x="854.3084112149533" y="145.60747663551402"/>
      <point x="628.2710280373832" y="145.60747663551402" type="qcurve" smooth="yes"/>
      <point x="402.23364485981307" y="145.60747663551402"/>
      <point x="68.94392523364486" y="477.3644859813084"/>
    </contour>
    <contour>
      <point x="1225.5420560747664" y="1229.271028037383" type="line"/>
      <point x="986.2523364485982" y="985.981308411215" type="line"/>
      <point x="864.2523364485982" y="1112.981308411215" type="line"/>
      <point x="1103.5420560747664" y="1356.271028037383" type="line"/>
    </contour>
    <contour>
      <point x="372.2897196261682" y="338.01869158878503" type="line"/>
      <point x="133.0" y="94.72897196261682" type="line"/>
      <point x="12.0" y="220.7289719626168" type="line"/>
      <point x="251.28971962616822" y="463.01869158878503" type="line"/>
    </contour>
    <contour>
      <point x="1129.5420560747664" y="101.72897196261682" type="line"/>
      <point x="890.2523364485982" y="345.01869158878503" type="line"/>
      <point x="1013.2523364485982" y="471.01869158878503" type="line"/>
      <point x="1252.5420560747664" y="228.7289719626168" type="line"/>
    </contour>
    <contour>
      <point x="268.2897196261682" y="999.981308411215" type="line"/>
      <point x="29.0" y="1243.271028037383" type="line"/>
      <point x="150.0" y="1369.271028037383" type="line"/>
      <point x="389.2897196261682" y="1125.981308411215" type="line"/>
    </contour>
  </outline>
</glyph>
<glyph name="yen" format="2">
  <advance width="1255.0841121495325"/>
  <unicode hex="00A5"/>
  <outline>
    <contour>
      <point x="52.0" y="303.0" type="line"/>
      <point x="52.0" y="462.0" type="line"/>
      <point x="1211.0841121495328" y="462.0" type="line"/>
      <point x="1211.0841121495328" y="303.0" type="line"/>
    </contour>
    <contour>
      <point x="52.0" y="628.0" type="line"/>
      <point x="52.0" y="788.0" type="line"/>
      <point x="631.0841121495328" y="788.0" type="line"/>
      <point x="684.0841121495326" y="669.0000000000001" type="line"/>
      <point x="793.0841121495326" y="669.0000000000001" type="line"/>
      <point x="841.0841121495328" y="788.0" type="line"/>
      <point x="1211.0841121495328" y="788.0" type="line"/>
      <point x="1211.0841121495328" y="628.0" type="line"/>
    </contour>
    <contour>
      <point x="429.0" y="0.0" type="line"/>
      <point x="429.0" y="548.0" type="line"/>
      <point x="-26.0" y="1456.0" type="line"/>
      <point x="396.0841121495327" y="1456.0" type="line"/>
      <point x="672.0841121495328" y="849.0000000000002" type="line" smooth="yes"/>
      <point x="686.0841121495328" y="819.0"/>
      <point x="719.0841121495328" y="716.0"/>
      <point x="726.0841121495328" y="679.0" type="qcurve"/>
      <point x="746.0841121495328" y="679.0" type="line"/>
      <point x="755.0841121495328" y="735.0"/>
      <point x="786.0841121495326" y="819.0"/>
      <point x="800.0841121495326" y="849.0000000000002" type="qcurve" smooth="yes"/>
      <point x="1080.0841121495328" y="1456.0" type="line"/>
      <point x="1281.0841121495325" y="1456.0" type="line"/>
      <point x="826.0841121495328" y="548.0" type="line"/>
      <point x="826.0841121495328" y="0.0" type="line"/>
    </contour>
  </outline>
</glyph>
<glyph name="section" format="2">
  <advance width="1212.0"/>
  <unicode hex="00A7"/>
  <guideline y="1658.0000000000002" identifier="QzZ5gIiCyn"/>
  <guideline y="578.0" identifier="9Hxjf2sdFw"/>
  <outline>
    <contour>
      <point x="669.2" y="133.0" type="qcurve"/>
      <point x="669.2" y="252.00000000000003" type="line"/>
      <point x="779.2" y="252.00000000000003"/>
      <point x="932.2" y="376.0"/>
      <point x="932.2" y="463.0" type="qcurve"/>
      <point x="932.2" y="556.0"/>
      <point x="765.2" y="672.0"/>
      <point x="584.2" y="734.0" type="qcurve" smooth="yes"/>
      <point x="391.20000000000005" y="794.0"/>
      <point x="174.20000000000002" y="949.0000000000002"/>
      <point x="174.20000000000002" y="1129.0" type="qcurve" smooth="yes"/>
      <point x="174.20000000000002" y="1305.0"/>
      <point x="399.20000000000005" y="1490.0"/>
      <point x="601.2" y="1491.0" type="qcurve" smooth="yes"/>
      <point x="794.2" y="1492.0"/>
      <point x="1018.2" y="1294.0"/>
      <point x="1017.2" y="1100.0" type="qcurve"/>
      <point x="852.2" y="1100.0" type="line"/>
      <point x="853.2" y="1200.0"/>
      <point x="722.2" y="1337.0"/>
      <point x="601.2" y="1337.0" type="qcurve" smooth="yes"/>
      <point x="461.20000000000005" y="1337.0"/>
      <point x="339.20000000000005" y="1239.0"/>
      <point x="339.20000000000005" y="1140.0" type="qcurve" smooth="yes"/>
      <point x="339.20000000000005" y="1049.0"/>
      <point x="462.20000000000005" y="961.0000000000001"/>
      <point x="662.2" y="897.0000000000001" type="qcurve" smooth="yes"/>
      <point x="846.2" y="839.0"/>
      <point x="1113.2" y="652.0"/>
      <point x="1113.2" y="478.0" type="qcurve" smooth="yes"/>
      <point x="1113.2" y="315.0"/>
      <point x="848.2" y="133.0"/>
    </contour>
    <contour>
      <point x="515.2" y="894.0" type="qcurve"/>
      <point x="514.2" y="756.0" type="line"/>
      <point x="403.2" y="756.0"/>
      <point x="279.20000000000005" y="649.0"/>
      <point x="279.20000000000005" y="567.0" type="qcurve" smooth="yes"/>
      <point x="279.20000000000005" y="487.0"/>
      <point x="425.20000000000005" y="387.0"/>
      <point x="614.2" y="317.0" type="qcurve" smooth="yes"/>
      <point x="790.2" y="252.00000000000003"/>
      <point x="1026.2" y="66.0"/>
      <point x="1026.2" y="-113.0" type="qcurve" smooth="yes"/>
      <point x="1026.2" y="-298.0"/>
      <point x="772.2" y="-509.0000000000001"/>
      <point x="577.2" y="-509.0000000000001" type="qcurve" smooth="yes"/>
      <point x="382.2" y="-509.0000000000001"/>
      <point x="109.2" y="-303.0"/>
      <point x="109.2" y="-72.0" type="qcurve"/>
      <point x="273.20000000000005" y="-70.0" type="line"/>
      <point x="273.20000000000005" y="-230.0"/>
      <point x="471.20000000000005" y="-355.0"/>
      <point x="577.2" y="-355.0" type="qcurve" smooth="yes"/>
      <point x="694.2" y="-355.0"/>
      <point x="862.2" y="-244.00000000000003"/>
      <point x="862.2" y="-136.0" type="qcurve" smooth="yes"/>
      <point x="862.2" y="-35.0"/>
      <point x="720.2" y="94.0"/>
      <point x="518.2" y="161.0" type="qcurve" smooth="yes"/>
      <point x="333.2" y="222.0"/>
      <point x="97.2" y="420.0"/>
      <point x="97.2" y="577.0000000000001" type="qcurve" smooth="yes"/>
      <point x="97.2" y="727.0"/>
      <point x="353.20000000000005" y="894.0"/>
    </contour>
  </outline>
</glyph>
<glyph name="copyright" format="2">
  <advance width="1654.0"/>
  <unicode hex="00A9"/>
  <guideline y="901.0" identifier="0Pjz0qKr8z"/>
  <guideline y="555.0" identifier="sJo8BlDiJ7"/>
  <outline>
    <contour>
      <point x="1014.018691588785" y="546.0" type="qcurve"/>
      <point x="1259.943925233645" y="546.0" type="line"/>
      <point x="1259.943925233645" y="375.0"/>
      <point x="1007.8971962616822" y="205.0"/>
      <point x="813.0" y="205.0" type="qcurve" smooth="yes"/>
      <point x="620.1588785046729" y="205.0"/>
      <point x="360.4018691588785" y="452.98130841121497"/>
      <point x="360.4018691588785" y="664.0" type="qcurve" smooth="yes"/>
      <point x="360.4018691588785" y="703.0" type="line" smooth="yes"/>
      <point x="360.4018691588785" y="915.018691588785"/>
      <point x="621.1588785046729" y="1170.0"/>
      <point x="830.0" y="1170.0" type="qcurve" smooth="yes"/>
      <point x="1044.1682242990655" y="1170.0"/>
      <point x="1260.943925233645" y="983.0"/>
      <point x="1260.943925233645" y="829.0" type="qcurve"/>
      <point x="1015.018691588785" y="829.0" type="line"/>
      <point x="1015.018691588785" y="917.0"/>
      <point x="928.0" y="1006.0"/>
      <point x="829.0" y="1006.0" type="qcurve" smooth="yes"/>
      <point x="722.0" y="1006.0"/>
      <point x="627.981308411215" y="868.0"/>
      <point x="627.981308411215" y="747.0" type="qcurve" smooth="yes"/>
      <point x="627.981308411215" y="621.0" type="line" smooth="yes"/>
      <point x="627.981308411215" y="499.0"/>
      <point x="731.0" y="362.0"/>
      <point x="838.0" y="362.0" type="qcurve" smooth="yes"/>
      <point x="937.0" y="362.0"/>
      <point x="1014.018691588785" y="457.0"/>
    </contour>
    <contour>
      <point x="186.0" y="687.0" type="qcurve" smooth="yes"/>
      <point x="186.0" y="400.0"/>
      <point x="563.0" y="4.0"/>
      <point x="828.0" y="4.0" type="qcurve" smooth="yes"/>
      <point x="1092.0" y="4.0"/>
      <point x="1469.0" y="400.0"/>
      <point x="1469.0" y="687.0" type="qcurve" smooth="yes"/>
      <point x="1469.0" y="975.0"/>
      <point x="1092.0" y="1367.0"/>
      <point x="828.0" y="1367.0" type="qcurve" smooth="yes"/>
      <point x="563.0" y="1367.0"/>
      <point x="186.0" y="975.0"/>
    </contour>
    <contour>
      <point x="38.0" y="687.0" type="qcurve" smooth="yes"/>
      <point x="38.0" y="1039.0"/>
      <point x="501.0" y="1519.0"/>
      <point x="827.0" y="1519.0" type="qcurve" smooth="yes"/>
      <point x="1152.0" y="1519.0"/>
      <point x="1616.0" y="1039.0"/>
      <point x="1616.0" y="687.0" type="qcurve" smooth="yes"/>
      <point x="1616.0" y="337.0"/>
      <point x="1152.0" y="-147.0"/>
      <point x="827.0" y="-147.0" type="qcurve" smooth="yes"/>
      <point x="501.0" y="-147.0"/>
      <point x="38.0" y="337.0"/>
    </contour>
  </outline>
</glyph>
<glyph name="ordfeminine" format="2">
  <advance width="1185.026168224299"/>
  <unicode hex="00AA"/>
  <guideline y="1681.0" identifier="3CJlALCfkl"/>
  <guideline y="909.0" identifier="Zdl6NZVQAy"/>
  <outline>
    <contour>
      <point x="739.6130841121495" y="862.0" type="line"/>
      <point x="739.6130841121495" y="821.0000000000001"/>
      <point x="759.6130841121496" y="736.0"/>
      <point x="782.6130841121495" y="706.0" type="qcurve"/>
      <point x="1077.426168224299" y="706.0" type="line"/>
      <point x="1063.426168224299" y="749.0"/>
      <point x="1051.426168224299" y="838.0"/>
      <point x="1051.426168224299" y="887.0" type="qcurve" smooth="yes"/>
      <point x="1051.426168224299" y="1162.1121495327104" type="line" smooth="yes"/>
      <point x="1051.426168224299" y="1324.6822429906545"/>
      <point x="851.407476635514" y="1477.0"/>
      <point x="598.6785046728972" y="1477.0" type="qcurve" smooth="yes"/>
      <point x="365.13644859813087" y="1477.0"/>
      <point x="143.5943925233645" y="1356.0"/>
      <point x="139.86542056074768" y="1261.0000000000002" type="qcurve" smooth="yes"/>
      <point x="138.8" y="1234.0000000000002" type="line"/>
      <point x="453.6130841121495" y="1234.0000000000002" type="line"/>
      <point x="453.6130841121495" y="1247.0" type="line" smooth="yes"/>
      <point x="453.6130841121495" y="1292.0"/>
      <point x="528.6130841121495" y="1346.0"/>
      <point x="599.6130841121495" y="1346.0" type="qcurve" smooth="yes"/>
      <point x="666.6130841121496" y="1346.0"/>
      <point x="739.6130841121495" y="1276.0"/>
      <point x="739.6130841121495" y="1202.0" type="qcurve" smooth="yes"/>
    </contour>
    <contour>
      <point x="816.6130841121494" y="1149.0000000000002" type="line"/>
      <point x="610.6130841121496" y="1149.0000000000002" type="line" smooth="yes"/>
      <point x="335.0710280373832" y="1149.0000000000002"/>
      <point x="114.80000000000001" y="1028.0000000000002"/>
      <point x="114.80000000000001" y="918.0" type="qcurve" smooth="yes"/>
      <point x="114.80000000000001" y="816.0"/>
      <point x="295.07102803738314" y="692.0"/>
      <point x="451.8934579439252" y="692.0" type="qcurve" smooth="yes"/>
      <point x="594.977570093458" y="692.0"/>
      <point x="754.6130841121495" y="794.0"/>
      <point x="816.6130841121494" y="852.0" type="qcurve"/>
      <point x="816.6130841121494" y="975.0" type="line"/>
      <point x="756.6130841121495" y="911.0"/>
      <point x="623.6130841121495" y="822.0000000000001"/>
      <point x="559.6130841121495" y="822.0000000000001" type="qcurve" smooth="yes"/>
      <point x="495.6130841121496" y="822.0000000000001"/>
      <point x="431.6130841121495" y="879.0000000000001"/>
      <point x="431.6130841121495" y="922.0000000000001" type="qcurve" smooth="yes"/>
      <point x="431.6130841121495" y="969.0000000000001"/>
      <point x="521.6130841121495" y="1042.0"/>
      <point x="611.6130841121496" y="1042.0" type="qcurve" smooth="yes"/>
      <point x="816.6130841121494" y="1042.0" type="line"/>
    </contour>
  </outline>
</glyph>
<glyph name="guillemotleft" format="2">
  <advance width="1518.1682242990655"/>
  <unicode hex="00AB"/>
  <guideline y="901.0" identifier="ZftBQarVKw"/>
  <guideline y="555.0" identifier="MVJpdoVRVd"/>
  <outline>
    <contour>
      <point x="108.0" y="522.0" type="line"/>
      <point x="108.0" y="581.0" type="line"/>
      <point x="403.0" y="949.0" type="line"/>
      <point x="778.0841121495328" y="949.0" type="line"/>
      <point x="520.0841121495328" y="551.0" type="line"/>
      <point x="778.0841121495328" y="153.0" type="line"/>
      <point x="403.0" y="153.0" type="line"/>
    </contour>
    <contour>
      <point x="761.0841121495328" y="522.0" type="line"/>
      <point x="761.0841121495328" y="581.0" type="line"/>
      <point x="1056.0841121495328" y="949.0" type="line"/>
      <point x="1431.1682242990655" y="949.0" type="line"/>
      <point x="1173.1682242990655" y="551.0" type="line"/>
      <point x="1431.1682242990655" y="153.0" type="line"/>
      <point x="1056.0841121495328" y="153.0" type="line"/>
    </contour>
  </outline>
</glyph>
<glyph name="logicalnot" format="2">
  <advance width="1130.5420560747664"/>
  <unicode hex="00AC"/>
  <outline>
    <contour>
      <point x="1034.5420560747664" y="801.0" type="line"/>
      <point x="1034.5420560747664" y="269.4579439252336" type="line"/>
      <point x="643.4579439252336" y="269.4579439252336" type="line"/>
      <point x="643.4579439252336" y="637.0" type="line"/>
      <point x="58.0" y="637.0" type="line"/>
      <point x="58.0" y="801.0" type="line"/>
    </contour>
  </outline>
</glyph>
<glyph name="registered" format="2">
  <advance width="1642.8000000000002"/>
  <unicode hex="00AE"/>
  <outline>
    <contour>
      <point x="32.400000000000006" y="687.0" type="qcurve" smooth="yes"/>
      <point x="32.400000000000006" y="1039.0"/>
      <point x="495.4000000000001" y="1519.0"/>
      <point x="821.4000000000001" y="1519.0" type="qcurve" smooth="yes"/>
      <point x="1146.4" y="1519.0"/>
      <point x="1610.4" y="1039.0"/>
      <point x="1610.4" y="687.0" type="qcurve" smooth="yes"/>
      <point x="1610.4" y="337.0"/>
      <point x="1146.4" y="-147.0"/>
      <point x="821.4000000000001" y="-147.0" type="qcurve" smooth="yes"/>
      <point x="495.4000000000001" y="-147.0"/>
      <point x="32.400000000000006" y="337.0"/>
    </contour>
    <contour>
      <point x="180.40000000000003" y="687.0" type="qcurve" smooth="yes"/>
      <point x="180.40000000000003" y="400.0"/>
      <point x="557.4" y="4.0"/>
      <point x="822.4" y="4.0" type="qcurve" smooth="yes"/>
      <point x="1086.4" y="4.0"/>
      <point x="1463.4" y="400.0"/>
      <point x="1463.4" y="687.0" type="qcurve" smooth="yes"/>
      <point x="1463.4" y="975.0"/>
      <point x="1086.4" y="1367.0"/>
      <point x="822.4" y="1367.0" type="qcurve" smooth="yes"/>
      <point x="557.4" y="1367.0"/>
      <point x="180.40000000000003" y="975.0"/>
    </contour>
    <contour>
      <point x="461.43738317757004" y="225.0" type="line"/>
      <point x="461.43738317757004" y="1158.0" type="line"/>
      <point x="852.6897196261683" y="1158.0" type="line" smooth="yes"/>
      <point x="1042.8018691588786" y="1158.0"/>
      <point x="1244.6710280373832" y="1018.0000000000002"/>
      <point x="1244.6710280373832" y="877.0" type="qcurve" smooth="yes"/>
      <point x="1244.6710280373832" y="754.4112149532712"/>
      <point x="1066.2130841121498" y="597.0"/>
      <point x="903.3719626168224" y="597.0" type="qcurve" smooth="yes"/>
      <point x="588.4" y="597.0" type="line"/>
      <point x="588.4" y="738.0" type="line"/>
      <point x="830.7457943925234" y="738.0" type="line" smooth="yes"/>
      <point x="903.7457943925233" y="738.0"/>
      <point x="999.7457943925235" y="795.0"/>
      <point x="999.7457943925235" y="859.0" type="qcurve" smooth="yes"/>
      <point x="999.7457943925235" y="940.0"/>
      <point x="923.7457943925234" y="1006.532710280374"/>
      <point x="805.7457943925235" y="1007.0" type="qcurve" smooth="yes"/>
      <point x="711.6710280373832" y="1007.0" type="line"/>
      <point x="711.6710280373832" y="225.0" type="line"/>
    </contour>
    <contour>
      <point x="1025.7457943925235" y="225.0" type="line"/>
      <point x="803.5495327102803" y="672.0" type="line"/>
      <point x="949.0074766355141" y="672.0" type="line"/>
      <point x="1007.0074766355142" y="638.0"/>
      <point x="1091.1943925233645" y="562.7289719626168"/>
      <point x="1110.3252336448597" y="530.0" type="qcurve" smooth="yes"/>
      <point x="1279.32523364486" y="243.0" type="line"/>
      <point x="1279.32523364486" y="225.0" type="line"/>
    </contour>
  </outline>
</glyph>
<glyph name="degree" format="2">
  <advance width="898.7102803738318"/>
  <unicode hex="00B0"/>
  <outline>
    <contour>
      <point x="130.0" y="1153.0747663551401" type="qcurve"/>
      <point x="130.0" y="1284.6448598130842"/>
      <point x="320.42056074766356" y="1475.4018691588785"/>
      <point x="452.1214953271028" y="1475.4018691588785" type="qcurve" smooth="yes"/>
      <point x="582.2897196261682" y="1475.4018691588785"/>
      <point x="769.7102803738318" y="1284.6448598130842"/>
      <point x="769.7102803738318" y="1153.0747663551401" type="qcurve" smooth="yes"/>
      <point x="769.7102803738318" y="1020.5046728971963"/>
      <point x="582.2897196261682" y="834.8130841121496"/>
      <point x="452.1214953271028" y="834.8130841121496" type="qcurve" smooth="yes"/>
      <point x="320.95327102803736" y="834.8130841121496"/>
      <point x="130.0" y="1020.5046728971963"/>
    </contour>
    <contour>
      <point x="321.1214953271028" y="1153.607476635514" type="qcurve"/>
      <point x="321.1214953271028" y="1098.607476635514"/>
      <point x="398.1214953271028" y="1024.607476635514"/>
      <point x="452.1214953271028" y="1024.607476635514" type="qcurve" smooth="yes"/>
      <point x="506.1214953271028" y="1024.607476635514"/>
      <point x="578.588785046729" y="1098.607476635514"/>
      <point x="578.588785046729" y="1153.607476635514" type="qcurve" smooth="yes"/>
      <point x="578.588785046729" y="1209.607476635514"/>
      <point x="506.1214953271028" y="1285.607476635514"/>
      <point x="452.1214953271028" y="1285.607476635514" type="qcurve" smooth="yes"/>
      <point x="398.1214953271028" y="1285.607476635514"/>
      <point x="321.1214953271028" y="1209.607476635514"/>
    </contour>
  </outline>
</glyph>
<glyph name="plusminus" format="2">
  <advance width="1024.0"/>
  <unicode hex="00B1"/>
  <outline>
    <contour>
      <point x="57.0" y="504.4579439252336" type="line"/>
      <point x="57.0" y="881.5420560747664" type="line"/>
      <point x="967.0" y="881.5420560747664" type="line"/>
      <point x="967.0" y="504.4579439252336" type="line"/>
    </contour>
    <contour>
      <point x="422.0" y="248.0" type="line"/>
      <point x="422.0" y="1213.271028037383" type="line"/>
      <point x="602.0" y="1213.271028037383" type="line"/>
      <point x="602.0" y="248.0" type="line"/>
    </contour>
    <contour>
      <point x="57.0" y="1.0" type="line"/>
      <point x="57.0" y="165.0" type="line"/>
      <point x="967.0" y="165.0" type="line"/>
      <point x="967.0" y="1.0" type="line"/>
    </contour>
  </outline>
</glyph>
<glyph name="twosuperior" format="2">
  <advance width="1066.3644859813085"/>
  <unicode hex="00B2"/>
  <outline>
    <contour>
      <point x="75.41121495327103" y="697.0" type="line"/>
      <point x="75.41121495327103" y="805.0" type="line"/>
      <point x="411.3551401869159" y="1066.9345794392523" type="line" smooth="yes"/>
      <point x="482.6168224299065" y="1123.607476635514"/>
      <point x="591.1308411214953" y="1233.0467289719627"/>
      <point x="591.1308411214953" y="1266.0467289719627" type="qcurve" smooth="yes"/>
      <point x="591.1308411214953" y="1308.1869158878505"/>
      <point x="544.4579439252336" y="1347.0"/>
      <point x="485.4579439252336" y="1347.0" type="qcurve" smooth="yes"/>
      <point x="420.4579439252336" y="1347.0"/>
      <point x="349.803738317757" y="1277.6728971962616"/>
      <point x="349.803738317757" y="1202.6728971962616" type="qcurve" smooth="yes"/>
      <point x="349.803738317757" y="1195.3364485981308" type="line"/>
      <point x="78.06542056074767" y="1195.3364485981308" type="line"/>
      <point x="78.06542056074767" y="1202.6728971962616" type="line" smooth="yes"/>
      <point x="78.06542056074767" y="1333.6728971962616"/>
      <point x="311.8971962616822" y="1487.0"/>
      <point x="562.0373831775701" y="1487.0" type="qcurve" smooth="yes"/>
      <point x="786.0654205607476" y="1487.0"/>
      <point x="978.018691588785" y="1359.0"/>
      <point x="978.018691588785" y="1251.0" type="qcurve" smooth="yes"/>
      <point x="978.018691588785" y="1171.0"/>
      <point x="815.4299065420561" y="1036.2803738317757"/>
      <point x="719.4392523364486" y="971.0" type="qcurve" smooth="yes"/>
      <point x="526.4953271028037" y="845.0" type="line"/>
      <point x="998.3644859813085" y="845.0" type="line"/>
      <point x="998.3644859813085" y="697.0" type="line"/>
    </contour>
  </outline>
</glyph>
<glyph name="threesuperior" format="2">
  <advance width="1177.1682242990655"/>
  <unicode hex="00B3"/>
  <outline>
    <contour>
      <point x="63.0" y="920.0" type="qcurve" smooth="yes"/>
      <point x="63.0" y="925.1308411214953" type="line"/>
      <point x="433.0841121495327" y="925.1308411214953" type="line"/>
      <point x="433.0841121495327" y="920.0" type="line" smooth="yes"/>
      <point x="433.0841121495327" y="875.0"/>
      <point x="513.0841121495328" y="824.0"/>
      <point x="579.0841121495328" y="824.0" type="qcurve" smooth="yes"/>
      <point x="648.0841121495328" y="824.0"/>
      <point x="712.0841121495328" y="876.0"/>
      <point x="712.0841121495328" y="925.0" type="qcurve" smooth="yes"/>
      <point x="712.0841121495328" y="978.0"/>
      <point x="636.0841121495328" y="1028.5327102803737"/>
      <point x="563.0841121495328" y="1029.0" type="qcurve" smooth="yes"/>
      <point x="479.0841121495327" y="1029.0" type="line"/>
      <point x="479.0841121495327" y="1151.0" type="line"/>
      <point x="563.0841121495328" y="1151.0" type="line" smooth="yes"/>
      <point x="635.0841121495328" y="1151.0"/>
      <point x="699.0841121495328" y="1207.0"/>
      <point x="699.0841121495328" y="1255.0" type="qcurve" smooth="yes"/>
      <point x="699.0841121495328" y="1299.0"/>
      <point x="645.0841121495328" y="1349.0"/>
      <point x="576.0841121495328" y="1349.0" type="qcurve" smooth="yes"/>
      <point x="519.0841121495328" y="1349.0"/>
      <point x="444.0841121495327" y="1299.0"/>
      <point x="444.0841121495327" y="1256.0" type="qcurve" smooth="yes"/>
      <point x="444.0841121495327" y="1252.0" type="line"/>
      <point x="74.0" y="1252.0" type="line"/>
      <point x="74.0" y="1256.0" type="line" smooth="yes"/>
      <point x="74.0" y="1357.0"/>
      <point x="285.21495327102804" y="1487.0"/>
      <point x="573.0841121495328" y="1487.0" type="qcurve" smooth="yes"/>
      <point x="844.7850467289719" y="1487.0"/>
      <point x="1082.1682242990655" y="1372.0"/>
      <point x="1082.1682242990655" y="1263.0" type="qcurve" smooth="yes"/>
      <point x="1082.1682242990655" y="1206.6728971962616"/>
      <point x="1019.7009345794393" y="1117.3364485981308"/>
      <point x="959.1682242990654" y="1098.0" type="qcurve"/>
      <point x="959.1682242990654" y="1097.0" type="line"/>
      <point x="1025.6355140186915" y="1074.0654205607477"/>
      <point x="1093.1682242990655" y="989.5233644859813"/>
      <point x="1093.1682242990655" y="917.0" type="qcurve" smooth="yes"/>
      <point x="1093.1682242990655" y="807.0"/>
      <point x="806.8971962616822" y="686.0"/>
      <point x="574.0841121495328" y="686.0" type="qcurve" smooth="yes"/>
      <point x="318.5607476635514" y="686.0"/>
      <point x="63.0" y="802.0"/>
    </contour>
  </outline>
</glyph>
<glyph name="micro" format="2">
  <advance width="1624.1682242990655"/>
  <unicode hex="00B5"/>
  <outline>
    <contour>
      <point x="242.0" y="1052.0" type="line"/>
      <point x="641.0841121495328" y="1052.0" type="line"/>
      <point x="509.0841121495327" y="371.0" type="line" smooth="yes"/>
      <point x="484.0841121495327" y="245.0"/>
      <point x="576.0841121495328" y="136.0"/>
      <point x="680.0841121495328" y="136.0" type="qcurve" smooth="yes"/>
      <point x="769.0841121495328" y="136.0"/>
      <point x="924.0841121495328" y="232.0"/>
      <point x="977.0841121495328" y="308.0" type="qcurve"/>
      <point x="1121.0841121495328" y="1052.0" type="line"/>
      <point x="1520.1682242990655" y="1052.0" type="line"/>
      <point x="1316.1682242990655" y="0.0" type="line"/>
      <point x="935.0841121495328" y="0.0" type="line"/>
      <point x="953.0841121495328" y="135.0" type="line"/>
      <point x="947.0841121495328" y="135.0" type="line"/>
      <point x="876.0841121495328" y="63.0"/>
      <point x="695.0841121495328" y="-20.0"/>
      <point x="595.0841121495328" y="-20.0" type="qcurve" smooth="yes"/>
      <point x="549.0841121495328" y="-20.0"/>
      <point x="474.0841121495327" y="15.0"/>
      <point x="445.0841121495327" y="42.0" type="qcurve"/>
      <point x="357.0841121495327" y="-416.0" type="line"/>
      <point x="-42.0" y="-416.0" type="line"/>
    </contour>
  </outline>
</glyph>
<glyph name="paragraph" format="2">
  <advance width="1213.8000000000002"/>
  <unicode hex="00B6"/>
  <guideline y="901.0000000000001" identifier="27539Lsr1A"/>
  <guideline y="555.0" identifier="e34wUdCmXR"/>
  <outline>
    <contour>
      <point x="723.8" y="-146.0" type="line"/>
      <point x="537.8" y="-146.0" type="line"/>
      <point x="537.8" y="696.0" type="line"/>
      <point x="450.80000000000007" y="696.0" type="line" smooth="yes"/>
      <point x="255.8" y="696.0"/>
      <point x="46.800000000000004" y="912.0"/>
      <point x="46.800000000000004" y="1076.0" type="qcurve" smooth="yes"/>
      <point x="46.800000000000004" y="1238.0"/>
      <point x="255.8" y="1456.0"/>
      <point x="450.80000000000007" y="1456.0" type="qcurve" smooth="yes"/>
      <point x="723.8" y="1456.0" type="line"/>
    </contour>
    <contour>
      <point x="865.8" y="1459.0" type="line"/>
      <point x="1051.8000000000002" y="1459.0" type="line"/>
      <point x="1051.8000000000002" y="-146.0" type="line"/>
      <point x="865.8" y="-146.0" type="line"/>
    </contour>
  </outline>
</glyph>
<glyph name="periodcentered" format="2">
  <advance width="779.5233644859813"/>
  <unicode hex="00B7"/>
  <outline>
    <contour>
      <point x="176.0" y="749.0" type="qcurve" smooth="yes"/>
      <point x="176.0" y="833.6915887850467"/>
      <point x="286.3457943925234" y="954.2990654205607"/>
      <point x="389.49532710280374" y="954.2990654205607" type="qcurve" smooth="yes"/>
      <point x="493.1775700934579" y="954.2990654205607"/>
      <point x="603.5233644859813" y="833.6915887850467"/>
      <point x="603.5233644859813" y="749.0" type="qcurve" smooth="yes"/>
      <point x="603.5233644859813" y="664.3084112149533"/>
      <point x="493.1775700934579" y="543.7009345794393"/>
      <point x="389.49532710280374" y="543.7009345794393" type="qcurve" smooth="yes"/>
      <point x="286.3457943925234" y="543.7009345794393"/>
      <point x="176.0" y="664.3084112149533"/>
    </contour>
  </outline>
</glyph>
<glyph name="ordmasculine" format="2">
  <advance width="1313.633644859813"/>
  <unicode hex="00BA"/>
  <guideline y="1975.0" identifier="Jnt0R9CyOf"/>
  <outline>
    <contour>
      <point x="109.19065420560747" y="1060.0467289719627" type="qcurve"/>
      <point x="109.19065420560747" y="1106.9532710280375" type="line"/>
      <point x="109.19065420560747" y="1268.411214953271"/>
      <point x="407.1252336448598" y="1477.0"/>
      <point x="660.5457943925234" y="1477.0" type="qcurve" smooth="yes"/>
      <point x="915.4990654205607" y="1477.0"/>
      <point x="1212.433644859813" y="1268.411214953271"/>
      <point x="1212.433644859813" y="1106.9532710280375" type="qcurve"/>
      <point x="1212.433644859813" y="1060.0467289719627" type="line"/>
      <point x="1212.433644859813" y="898.5887850467291"/>
      <point x="917.5644859813085" y="691.0"/>
      <point x="663.611214953271" y="691.0" type="qcurve" smooth="yes"/>
      <point x="409.1906542056075" y="691.0"/>
      <point x="109.19065420560747" y="898.5887850467291"/>
    </contour>
    <contour>
      <point x="481.54579439252336" y="1124.0" type="qcurve"/>
      <point x="481.54579439252336" y="1043.0" type="line"/>
      <point x="481.54579439252336" y="952.0"/>
      <point x="570.5457943925234" y="830.0"/>
      <point x="662.5457943925234" y="830.0" type="qcurve" smooth="yes"/>
      <point x="751.5457943925235" y="830.0"/>
      <point x="840.5457943925234" y="952.0"/>
      <point x="840.5457943925234" y="1043.0" type="qcurve"/>
      <point x="840.5457943925234" y="1124.0" type="line"/>
      <point x="840.5457943925234" y="1213.0"/>
      <point x="750.5457943925234" y="1336.0"/>
      <point x="660.5457943925234" y="1336.0" type="qcurve" smooth="yes"/>
      <point x="570.5457943925234" y="1336.0"/>
      <point x="481.54579439252336" y="1213.0"/>
    </contour>
  </outline>
</glyph>
<glyph name="guillemotright" format="2">
  <advance width="1518.1682242990655"/>
  <unicode hex="00BB"/>
  <guideline y="98.0" identifier="MTEldNnfdj"/>
  <guideline y="443.0" identifier="G9bQni2n1K"/>
  <outline>
    <contour>
      <point x="87.0" y="153.0" type="line"/>
      <point x="345.0" y="551.0" type="line"/>
      <point x="87.0" y="949.0" type="line"/>
      <point x="462.0841121495327" y="949.0" type="line"/>
      <point x="757.0841121495328" y="581.0" type="line"/>
      <point x="757.0841121495328" y="522.0" type="line"/>
      <point x="462.0841121495327" y="153.0" type="line"/>
    </contour>
    <contour>
      <point x="740.0841121495328" y="153.0" type="line"/>
      <point x="998.0841121495328" y="551.0" type="line"/>
      <point x="740.0841121495328" y="949.0" type="line"/>
      <point x="1115.1682242990655" y="949.0" type="line"/>
      <point x="1410.1682242990655" y="581.0" type="line"/>
      <point x="1410.1682242990655" y="522.0" type="line"/>
      <point x="1115.1682242990655" y="153.0" type="line"/>
    </contour>
  </outline>
</glyph>
<glyph name="questiondown" format="2">
  <advance width="1394.7009345794393"/>
  <unicode hex="00BF"/>
  <outline>
    <contour>
      <point x="949.5140186915887" y="957.7757009345794" type="qcurve" smooth="yes"/>
      <point x="949.5140186915887" y="868.2897196261682"/>
      <point x="832.7757009345794" y="740.7570093457944"/>
      <point x="723.7663551401869" y="740.7570093457944" type="qcurve" smooth="yes"/>
      <point x="614.2242990654206" y="740.7570093457944"/>
      <point x="498.01869158878503" y="868.2897196261682"/>
      <point x="498.01869158878503" y="957.7757009345794" type="qcurve" smooth="yes"/>
      <point x="498.01869158878503" y="1046.728971962617"/>
      <point x="614.2242990654206" y="1174.2616822429907"/>
      <point x="723.7663551401869" y="1174.2616822429907" type="qcurve" smooth="yes"/>
      <point x="832.7757009345794" y="1174.2616822429907"/>
      <point x="949.5140186915887" y="1046.728971962617"/>
    </contour>
    <contour>
      <point x="1332.5700934579438" y="35.953271028037385" type="line"/>
      <point x="1332.5700934579438" y="15.953271028037385" type="line" smooth="yes"/>
      <point x="1332.5700934579438" y="-149.0467289719626"/>
      <point x="1058.233644859813" y="-345.04672897196264"/>
      <point x="709.4859813084112" y="-345.04672897196264" type="qcurve" smooth="yes"/>
      <point x="360.7383177570093" y="-345.04672897196264"/>
      <point x="91.86915887850468" y="-139.0467289719626"/>
      <point x="91.86915887850468" y="30.953271028037385" type="qcurve" smooth="yes"/>
      <point x="91.86915887850468" y="181.46728971962617"/>
      <point x="271.8317757009346" y="357.50467289719626"/>
      <point x="404.02803738317755" y="416.1775700934579" type="qcurve" smooth="yes"/>
      <point x="543.8971962616822" y="481.4579439252336"/>
      <point x="641.3644859813085" y="571.7009345794393"/>
      <point x="644.0280373831775" y="619.3271028037383" type="qcurve" smooth="yes"/>
      <point x="646.6915887850467" y="635.1869158878504" type="line"/>
      <point x="828.4299065420561" y="636.2523364485982" type="line"/>
      <point x="828.4299065420561" y="616.1308411214953" type="line" smooth="yes"/>
      <point x="828.4299065420561" y="543.3364485981308"/>
      <point x="771.8878504672897" y="429.1682242990654"/>
      <point x="672.1588785046729" y="343.69158878504675" type="qcurve" smooth="yes"/>
      <point x="582.1682242990654" y="266.95327102803736"/>
      <point x="491.48598130841117" y="119.23364485981308"/>
      <point x="491.48598130841117" y="19.233644859813086" type="qcurve" smooth="yes"/>
      <point x="491.48598130841117" y="-75.43925233644859"/>
      <point x="599.4859813084112" y="-183.0467289719626"/>
      <point x="709.4859813084112" y="-183.0467289719626" type="qcurve" smooth="yes"/>
      <point x="819.4859813084112" y="-183.0467289719626"/>
      <point x="934.4859813084112" y="-79.04672897196261"/>
      <point x="934.4859813084112" y="15.953271028037385" type="qcurve" smooth="yes"/>
      <point x="934.4859813084112" y="35.953271028037385" type="line"/>
    </contour>
  </outline>
</glyph>
<glyph name="AE" format="2">
  <advance width="2127.0841121495328"/>
  <unicode hex="00C6"/>
  <anchor x="993.0" y="1456.0" name="top"/>
  <outline>
    <contour>
      <point x="-15.0" y="0.0" type="line"/>
      <point x="866.0" y="1456.0" type="line"/>
      <point x="2049.0841121495328" y="1456.0" type="line"/>
      <point x="2049.0841121495328" y="1298.0" type="line"/>
      <point x="1344.6728971962616" y="1298.0" type="line"/>
      <point x="1344.6728971962616" y="158.0" type="line"/>
      <point x="2059.0841121495328" y="158.0" type="line"/>
      <point x="2059.0841121495328" y="0.0" type="line"/>
      <point x="930.0" y="0.0" type="line"/>
      <point x="930.0" y="1238.0" type="line"/>
      <point x="212.0" y="0.0" type="line"/>
    </contour>
    <contour>
      <point x="1140.1401869158879" y="672.0" type="line"/>
      <point x="1140.1401869158879" y="830.0" type="line"/>
      <point x="1957.0841121495328" y="830.0" type="line"/>
      <point x="1957.0841121495328" y="672.0" type="line"/>
    </contour>
    <contour>
      <point x="302.0" y="353.0" type="line"/>
      <point x="402.0" y="528.0" type="line"/>
      <point x="1141.5420560747664" y="528.0" type="line"/>
      <point x="1141.5420560747664" y="353.0" type="line"/>
    </contour>
  </outline>
</glyph>
<glyph name="multiply" format="2">
  <advance width="1024.0"/>
  <unicode hex="00D7"/>
  <outline>
    <contour>
      <point x="142.196261682243" y="184.26168224299067" type="line"/>
      <point x="34.196261682243" y="296.2616822429907" type="line"/>
      <point x="875.5420560747664" y="1157.803738317757" type="line"/>
      <point x="983.5420560747664" y="1044.803738317757" type="line"/>
    </contour>
    <contour>
      <point x="761.5327102803739" y="183.7289719626168" type="line"/>
      <point x="34.532710280373834" y="926.7289719626168" type="line"/>
      <point x="260.0747663551402" y="1157.271028037383" type="line"/>
      <point x="987.0747663551401" y="413.2710280373832" type="line"/>
    </contour>
  </outline>
</glyph>
<glyph name="Thorn" format="2">
  <advance width="1629.7289719626167"/>
  <unicode hex="00DE"/>
  <guideline y="901.0" identifier="i9jYwjBDP4"/>
  <guideline y="555.0" identifier="T8KKW8oxop"/>
  <outline>
    <contour>
      <point x="170.0" y="0.0" type="line"/>
      <point x="170.0" y="1456.0" type="line"/>
      <point x="581.4018691588785" y="1456.0" type="line"/>
      <point x="581.4018691588785" y="0.0" type="line"/>
    </contour>
    <contour>
      <point x="381.5420560747664" y="314.0" type="line"/>
      <point x="381.5420560747664" y="465.0" type="line"/>
      <point x="859.4018691588785" y="465.0" type="line" smooth="yes"/>
      <point x="1019.4018691588785" y="465.0"/>
      <point x="1161.4018691588785" y="604.0"/>
      <point x="1161.4018691588785" y="736.0" type="qcurve" smooth="yes"/>
      <point x="1161.4018691588785" y="868.0"/>
      <point x="1019.4018691588785" y="1012.0"/>
      <point x="859.4018691588785" y="1012.0" type="qcurve" smooth="yes"/>
      <point x="381.5420560747664" y="1012.0" type="line"/>
      <point x="381.5420560747664" y="1163.0" type="line"/>
      <point x="942.5046728971963" y="1163.0" type="line" smooth="yes"/>
      <point x="1244.626168224299" y="1163.0"/>
      <point x="1579.7289719626167" y="935.0"/>
      <point x="1579.7289719626167" y="738.0" type="qcurve" smooth="yes"/>
      <point x="1579.7289719626167" y="541.0"/>
      <point x="1244.626168224299" y="314.0"/>
      <point x="942.5046728971963" y="314.0" type="qcurve" smooth="yes"/>
    </contour>
  </outline>
</glyph>
